<svg width="482" height="212" viewBox="0 0 482 212" fill="none" xmlns="http://www.w3.org/2000/svg">
<path d="M1.15039 105.804C1.15039 76.1042 14.0291 47.6959 36.4902 27.8709C55.5784 11.0082 80.2626 1.58942 105.943 1.4375C106.173 1.4375 106.403 1.4375 106.633 1.4375H232.124V3.48836H106.557C106.327 3.48836 106.173 3.48836 105.943 3.48836C80.7992 3.64028 56.5749 12.8312 37.8701 29.39C15.8689 48.8353 3.22019 76.6359 3.22019 105.804C3.22019 134.972 15.8689 162.848 37.8701 182.217C56.8049 198.928 81.1825 208.119 106.633 208.119H210.353V210.17H106.557C80.6459 210.17 55.7317 200.751 36.4902 183.737C14.0291 163.988 1.15039 135.579 1.15039 105.804Z" fill="url(#paint0_linear)"/>
<path d="M211.426 211.383H106.556C80.3388 211.383 55.1946 201.889 35.7232 184.646C13.0321 164.669 0 135.881 0 105.802C0 75.7224 13.0321 47.0103 35.7232 26.9574C55.0413 9.86687 79.9555 0.372131 105.866 0.220215C106.02 0.220215 106.326 0.220215 106.556 0.220215H233.197V4.54982H106.556C106.326 4.54982 106.173 4.54982 105.943 4.54982C81.0287 4.70173 57.1111 13.8167 38.5595 30.1476C16.7884 49.365 4.29291 76.8618 4.29291 105.726C4.29291 134.59 16.7884 162.087 38.5595 181.304C57.2644 197.863 81.412 206.978 106.556 206.978H211.426V211.383Z" fill="white"/>
<path d="M20.6992 105.803C20.6992 80.6614 31.5848 56.5828 50.5963 39.8721C66.7713 25.5921 87.6226 17.6165 109.317 17.5405C109.47 17.5405 109.7 17.5405 109.854 17.5405H231.972V19.5914H109.854C109.7 19.5914 109.47 19.5914 109.317 19.5914C88.0826 19.7433 67.6913 27.491 51.8995 41.4672C33.348 57.7981 22.6924 81.345 22.6924 105.879C22.6924 130.49 33.348 153.961 51.8995 170.292C67.8446 184.42 88.3892 192.167 109.854 192.167H195.099V194.218H109.854C87.9293 194.218 66.9247 186.243 50.5963 171.811C31.5848 155.024 20.6992 131.021 20.6992 105.803Z" fill="url(#paint1_linear)"/>
<path d="M196.248 195.28H109.853C87.6988 195.28 66.3109 187.228 49.8292 172.644C30.5877 155.706 19.5488 131.323 19.5488 105.802C19.5488 80.2798 30.5877 55.9734 49.8292 39.0348C66.2342 24.5269 87.3155 16.5513 109.317 16.3994C109.47 16.3994 109.7 16.3994 109.93 16.3994H233.198V20.729H109.853C109.7 20.729 109.547 20.729 109.393 20.729C88.3887 20.8809 68.304 28.4767 52.7422 42.301C34.4207 58.48 23.9184 81.6471 23.9184 105.878C23.9184 130.108 34.4207 153.275 52.7422 169.454C68.4574 183.354 88.772 191.026 109.93 191.026H196.325V195.28H196.248Z" fill="white"/>
<path d="M40.3223 105.803C40.3223 85.2184 49.2147 65.5452 64.7765 51.8728C77.9619 40.1752 95.0569 33.7188 112.765 33.5669C112.918 33.5669 113.072 33.5669 113.225 33.5669H212.499V35.6178H113.225C113.072 35.6178 112.918 35.6178 112.842 35.6178C95.5935 35.6937 78.9585 41.9982 66.1564 53.3919C51.0546 66.6846 42.3921 85.826 42.3921 105.803C42.3921 125.78 51.0546 144.921 66.1564 158.214C79.1118 169.684 95.9002 175.988 113.302 175.988H177.849V178.039H113.302C95.3635 178.039 78.1919 171.507 64.7765 159.733C49.2147 146.061 40.3223 126.388 40.3223 105.803Z" fill="white"/>
<path d="M178.846 179.177H113.149C94.9807 179.177 77.4258 172.569 63.8571 160.567C48.0653 146.667 39.0195 126.69 39.0195 105.802C39.0195 84.913 48.0653 64.9359 63.8571 51.0356C77.2724 39.1861 94.5974 32.5777 112.612 32.4258C112.689 32.4258 112.919 32.4258 113.072 32.4258H213.496V36.7554H113.072C112.919 36.7554 112.842 36.7554 112.689 36.7554C95.6706 36.8314 79.3422 43.0599 66.6935 54.2258C51.8216 67.2906 43.3124 86.1283 43.3124 105.802C43.3124 125.475 51.8216 144.236 66.6935 157.377C79.4956 168.695 95.9006 174.848 113.072 174.848H178.769V179.177H178.846Z" fill="white"/>
<path d="M59.8711 105.802C59.8711 89.7754 66.7704 74.5078 78.8826 63.8738C89.0782 54.8348 102.34 49.8216 116.139 49.7456C116.216 49.7456 116.369 49.7456 116.522 49.7456H192.951V51.7965H116.522C116.446 51.7965 116.292 51.7965 116.216 51.7965C102.877 51.8724 90.1515 56.7337 80.1858 65.4689C68.5336 75.7232 61.8642 90.459 61.8642 105.878C61.8642 121.298 68.5336 136.034 80.1858 146.288C90.1515 155.099 103.107 159.96 116.522 159.96H192.951V162.011H116.522C102.57 162.011 89.2315 156.998 78.8059 147.807C66.7704 137.097 59.8711 121.83 59.8711 105.802Z" fill="#C8176F"/>
<path d="M194.101 163.075H116.522C102.34 163.075 88.6949 157.91 78.0393 148.567C65.6972 137.704 58.6445 122.133 58.6445 105.802C58.6445 89.4706 65.6972 73.8991 78.0393 63.0369C88.5416 53.77 102.034 48.6048 116.139 48.5288C116.216 48.5288 116.369 48.5288 116.522 48.5288H194.101V52.8585H116.522C116.446 52.8585 116.369 52.8585 116.216 52.8585C103.183 52.9344 90.6114 57.7198 80.9523 66.2272C69.6068 76.2538 63.0141 90.686 63.0141 105.802C63.0141 120.918 69.5301 135.274 80.9523 145.3C90.7647 153.96 103.337 158.745 116.522 158.745H194.101V163.075Z" fill="white"/>
<path d="M480.269 105.804C480.269 135.579 467.391 163.987 444.93 183.812C425.842 200.675 401.157 210.094 375.476 210.246C375.246 210.246 375.017 210.246 374.787 210.246H264.551V208.195H374.787C375.017 208.195 375.17 208.195 375.4 208.195C400.544 208.043 424.768 198.852 443.473 182.293C465.474 162.848 478.123 135.048 478.123 105.88C478.123 76.7122 465.474 48.8357 443.473 29.4665C424.538 12.7559 400.161 3.56502 374.71 3.56502H271.067V1.51416H374.787C400.697 1.51416 425.612 10.9329 444.853 27.9474C467.391 47.6964 480.269 76.1045 480.269 105.804Z" fill="white"/>
<path d="M269.916 0.296387H374.786C401.004 0.296387 426.148 9.79113 445.619 27.0336C468.31 47.0105 481.342 75.7986 481.342 105.878C481.342 135.957 468.31 164.669 445.619 184.722C426.301 201.813 401.387 211.308 375.476 211.459C375.323 211.459 375.016 211.459 374.786 211.459H263.4V207.13H374.786C375.016 207.13 375.169 207.13 375.399 207.13C400.314 206.978 424.231 197.863 442.783 181.532C464.554 162.315 477.049 134.818 477.049 105.954C477.049 77.0899 464.554 49.5931 442.783 30.3757C424.078 13.8169 399.93 4.70195 374.786 4.70195H269.916V0.296387Z" fill="white"/>
<path d="M460.646 105.803C460.646 130.945 449.76 155.024 430.749 171.734C414.573 186.014 393.722 193.99 372.028 194.066C371.874 194.066 371.644 194.066 371.491 194.066H249.373V192.015H371.491C371.644 192.015 371.874 192.015 372.028 192.015C393.262 191.863 413.654 184.115 429.445 170.139C447.997 153.808 458.652 130.262 458.652 105.727C458.652 81.1171 447.997 57.6462 429.445 41.3153C413.5 27.1872 392.956 19.4395 371.491 19.4395H249.373V17.3887H371.491C393.416 17.3887 414.42 25.3642 430.749 39.7961C449.76 56.6587 460.646 80.6613 460.646 105.803Z" fill="white"/>
<path d="M248.223 16.3994H371.491C393.645 16.3994 415.033 24.4509 431.515 39.0348C450.756 55.9734 461.795 80.3559 461.795 105.802C461.795 131.324 450.756 155.63 431.515 172.569C415.11 187.077 394.028 195.052 372.027 195.204C371.874 195.204 371.644 195.204 371.414 195.204H248.223V190.875H371.491C371.644 190.875 371.797 190.875 371.951 190.875C392.955 190.723 413.04 183.127 428.602 169.302C446.923 153.123 457.426 129.956 457.426 105.726C457.426 81.4953 446.923 58.3281 428.602 42.1491C412.887 28.2488 392.572 20.5771 371.414 20.5771H248.223V16.3994Z" fill="white"/>
<path d="M441.096 105.803C441.096 126.388 432.204 146.061 416.642 159.733C403.457 171.431 386.362 177.887 368.653 178.039C368.5 178.039 368.347 178.039 368.194 178.039H268.92V175.988H368.194C368.347 175.988 368.5 175.988 368.577 175.988C385.825 175.912 402.46 169.608 415.262 158.214C430.364 144.922 439.027 125.78 439.027 105.803C439.027 85.8266 430.364 66.6853 415.262 53.3928C402.307 41.9232 385.519 35.6187 368.117 35.6187H303.57V33.5679H368.117C386.055 33.5679 403.227 40.1002 416.642 51.8736C432.204 65.6219 441.096 85.2949 441.096 105.803Z" fill="white"/>
<path d="M302.498 32.5024H368.194C386.363 32.5024 403.918 39.1107 417.486 51.112C433.278 65.0123 442.324 84.9891 442.324 105.877C442.324 126.766 433.278 146.743 417.486 160.643C404.071 172.492 386.746 179.101 368.731 179.252C368.654 179.252 368.424 179.252 368.271 179.252H267.848V174.847H368.271C368.424 174.847 368.501 174.847 368.654 174.847C385.673 174.771 402.001 168.542 414.65 157.377C429.522 144.312 438.031 125.475 438.031 105.801C438.031 86.1285 429.522 67.367 414.65 54.2263C401.848 42.9086 385.443 36.7561 368.271 36.7561H302.574V32.5024H302.498Z" fill="white"/>
<path d="M421.547 105.804C421.547 121.832 414.648 137.099 402.536 147.733C392.264 156.848 379.002 161.862 365.203 161.938C365.126 161.938 364.973 161.938 364.82 161.938H288.391V159.887H364.82C364.896 159.887 365.05 159.887 365.126 159.887C378.465 159.811 391.19 154.949 401.156 146.214C412.808 135.96 419.478 121.224 419.478 105.804C419.478 90.3849 412.808 75.6491 401.156 65.3947C391.19 56.5836 378.235 51.7223 364.82 51.7223H288.391V49.6714H364.82C378.772 49.6714 392.11 54.6846 402.536 63.8756C414.648 74.5857 421.547 89.8532 421.547 105.804Z" fill="white"/>
<path d="M287.318 48.6055H364.897C379.079 48.6055 392.725 53.7706 403.38 63.1134C415.722 73.9754 422.775 89.5467 422.775 105.878C422.775 122.209 415.722 137.78 403.38 148.642C392.878 157.909 379.386 163.074 365.281 163.15C365.204 163.15 365.051 163.15 364.897 163.15H287.318V158.82H364.897C364.974 158.82 365.051 158.82 365.204 158.82C378.236 158.744 390.808 153.959 400.467 145.452C411.813 135.425 418.405 120.993 418.405 105.878C418.405 90.7621 411.889 76.406 400.467 66.3796C390.655 57.7204 378.083 52.9351 364.897 52.9351H287.318V48.6055Z" fill="white"/>
<path d="M389.199 75.1147C381.61 68.3545 371.797 64.7085 361.525 64.7085H248.376H204.374H119.819C119.665 64.7085 119.589 64.7085 119.589 64.7085C109.47 64.7845 99.7341 68.5064 92.2215 75.1147C83.4057 82.9384 78.2695 94.1042 78.2695 105.878C78.2695 117.575 83.329 128.817 92.2215 136.641C99.8108 143.401 109.623 147.047 119.895 147.047H233.121H277.123H361.602C361.755 147.047 361.832 147.047 361.832 147.047C371.951 146.971 381.686 143.249 389.199 136.641C398.015 128.817 403.151 117.651 403.151 105.878C403.151 94.1042 398.091 82.8624 389.199 75.1147ZM233.044 142.717H119.819C110.696 142.717 101.881 139.375 95.0579 133.374C87.162 126.386 82.5624 116.36 82.5624 105.878C82.5624 95.3955 87.0853 85.369 95.0579 78.3809C101.804 72.4562 110.543 69.1141 119.589 69.0381H248.299H361.525C370.647 69.0381 379.463 72.3802 386.286 78.3809C394.182 85.369 398.781 95.3955 398.781 105.878C398.781 116.36 394.258 126.386 386.286 133.374C379.54 139.299 370.801 142.641 361.755 142.717H233.044Z" fill="white"/>
<defs>
<linearGradient id="paint0_linear" x1="-17.3414" y1="105.842" x2="222.438" y2="105.842" gradientUnits="userSpaceOnUse">
<stop/>
<stop offset="1" stop-color="#28D4FF"/>
</linearGradient>
<linearGradient id="paint1_linear" x1="-18.9084" y1="105.841" x2="241.183" y2="105.841" gradientUnits="userSpaceOnUse">
<stop stop-color="#C8176F"/>
<stop offset="1" stop-color="#28D4FF"/>
</linearGradient>
</defs>
</svg>
