<svg width="212" height="112" viewBox="0 0 212 112" fill="none" xmlns="http://www.w3.org/2000/svg">
<g clip-path="url(#clip0)">
<path d="M51.1954 26.3992C56.1928 29.1854 60.0796 33.086 62.8559 38.1011C65.6323 43.1161 67.076 48.9113 67.076 55.3752C67.076 61.9505 65.6323 67.7456 62.8559 72.7607C60.0796 77.7758 56.1928 81.6764 51.1954 84.4625C46.198 87.2486 40.6454 88.586 34.3153 88.586C29.6511 88.586 25.4311 87.6944 21.5443 85.9113C17.6574 84.1282 14.4369 81.4535 11.6606 78.1101V111.767H0V22.833H11.2163V33.086C13.7706 29.5197 17.1021 26.7336 21.1001 24.9505C25.098 23.0559 29.5401 22.1643 34.3153 22.1643C40.6454 22.1643 46.198 23.6131 51.1954 26.3992ZM44.5322 75.324C47.8638 73.4294 50.418 70.7547 52.3059 67.1884C54.1938 63.7336 55.1933 59.7215 55.1933 55.2637C55.1933 50.8059 54.1938 46.7938 52.3059 43.339C50.418 39.8842 47.7528 37.2095 44.5322 35.3149C41.2006 33.4203 37.5359 32.5288 33.3159 32.5288C29.2069 32.5288 25.5422 33.5318 22.2106 35.4264C18.879 37.3209 16.3248 39.9956 14.4369 43.4505C12.549 46.9053 11.5495 50.8059 11.5495 55.3752C11.5495 59.833 12.4379 63.845 14.3258 67.2999C16.2137 70.7547 18.7679 73.4294 22.0995 75.4354C25.4311 77.33 29.0959 78.333 33.2048 78.333C37.5359 78.2215 41.3117 77.33 44.5322 75.324Z" fill="white"/>
<path d="M76.182 13.806C74.6273 12.3572 73.9609 10.5741 73.9609 8.4566C73.9609 6.33914 74.7383 4.556 76.182 2.99576C77.7367 1.43552 79.6246 0.766846 81.8457 0.766846C84.1778 0.766846 86.0657 1.43552 87.5094 2.88432C89.0641 4.33311 89.7305 6.11624 89.7305 8.23371C89.7305 10.4626 88.9531 12.3572 87.5094 13.806C85.9547 15.3662 84.0668 16.0349 81.8457 16.0349C79.6246 16.0349 77.7367 15.2548 76.182 13.806ZM76.0709 28.5168H87.7315V93.4897H76.0709V28.5168Z" fill="white"/>
<path d="M144.146 93.4895L125.378 68.6371L106.499 93.4895H93.3945L118.937 60.2787L94.6161 28.5166H107.72L125.6 51.9202L143.368 28.5166H156.25L131.819 60.2787L157.583 93.4895H144.146Z" fill="white"/>
<path d="M212.001 60.2787H189.791V82.2335H179.574V60.2787H157.363V50.5829H179.574V28.5166H189.791V50.5829H212.001V60.2787Z" fill="white"/>
</g>
<defs>
<clipPath id="clip0">
<rect width="212" height="111" fill="white" transform="translate(0 0.655273)"/>
</clipPath>
</defs>
</svg>
