<svg width="112" height="41" viewBox="0 0 112 41" fill="none" xmlns="http://www.w3.org/2000/svg">
<g clip-path="url(#clip0)">
<path d="M8.13653 34.8993C16.118 41.7757 28.1421 40.8451 34.9834 32.8829L36.1236 33.8652C28.7122 42.4478 15.7034 43.4302 7.09997 36.0367C6.2189 35.2612 5.38965 34.434 4.66406 33.555L5.95976 32.7278C6.63352 33.5033 7.35911 34.2272 8.13653 34.8993Z" fill="url(#paint0_linear)"/>
<path d="M26.5352 2.48174L26.7425 0.930664C29.3339 1.7579 31.8216 3.05046 33.9984 4.96345L33.0136 6.1009C31.0442 4.44643 28.8156 3.20557 26.5352 2.48174Z" fill="url(#paint1_linear)"/>
<path d="M4.9751 7.13492C9.12133 2.3266 15.0815 -0.103412 20.9899 -7.05547e-06L20.7826 1.49936C15.3407 1.44766 9.95057 3.67086 6.11531 8.11727C1.29532 13.7528 0.31059 21.4048 2.95381 27.8159L1.65811 28.6431C-1.3479 21.6633 -0.311344 13.2875 4.9751 7.13492Z" fill="url(#paint2_linear)"/>
<path d="M11.0396 31.5385C17.1553 36.7605 26.3806 36.0883 31.6153 29.9874C36.8499 23.8866 36.1761 14.6835 30.0604 9.46159C23.9447 4.23965 14.7194 4.91178 9.48476 11.0127C4.25014 17.1135 4.92391 26.3166 11.0396 31.5385ZM29.0757 10.599C34.5176 15.304 35.1395 23.5246 30.475 29.0051C25.7587 34.4855 17.5181 35.106 12.0243 30.4011C6.53057 25.6961 5.90863 17.4755 10.625 11.995C15.3413 6.56625 23.6338 5.94583 29.0757 10.599Z" fill="url(#paint3_linear)"/>
<path d="M14.9284 27.0404C18.5564 30.1426 23.9983 29.729 27.108 26.1098C30.2177 22.4906 29.803 17.0619 26.1751 13.9597C22.5471 10.8576 17.1052 11.2712 13.9955 14.8904C10.8859 18.5095 11.3005 23.9383 14.9284 27.0404ZM25.1904 15.1489C28.1445 17.6823 28.5073 22.1804 25.9678 25.1792C23.4282 28.1779 18.9192 28.4364 15.9132 25.903C12.959 23.3696 12.5962 18.8715 15.1358 15.8727C17.6753 12.874 22.2362 12.5638 25.1904 15.1489Z" fill="url(#paint4_linear)"/>
<path d="M104.226 6.41121C96.4522 -0.620319 84.3763 0.000110222 77.3277 7.75547L76.1875 6.72142C83.8062 -1.65437 96.815 -2.3265 105.263 5.27375C106.144 6.04929 106.921 6.92823 107.647 7.80717L106.351 8.63441C105.678 7.85888 105.004 7.13504 104.226 6.41121Z" fill="url(#paint5_linear)"/>
<path d="M85.0481 38.4148L84.789 39.9142C82.1976 39.0353 79.7617 37.6393 77.6367 35.7263L78.6733 34.5889C80.5909 36.3467 82.7677 37.5876 85.0481 38.4148Z" fill="url(#paint6_linear)"/>
<path d="M106.713 34.2788C102.412 38.9837 96.4513 41.2586 90.543 41.0001L90.8021 39.5007C96.244 39.7075 101.686 37.5877 105.625 33.2447C110.6 27.7643 111.792 20.1123 109.253 13.6495L110.549 12.8223C113.347 19.9055 112.155 28.2813 106.713 34.2788Z" fill="url(#paint7_linear)"/>
<path d="M101.271 9.72029C95.3107 4.34324 86.0335 4.80856 80.6434 10.7543C75.2534 16.7001 75.7198 25.9548 81.68 31.3319C87.6402 36.7089 96.9174 36.2436 102.307 30.2978C107.698 24.3521 107.231 15.0973 101.271 9.72029ZM82.6647 30.1944C77.3265 25.3861 76.9118 17.1137 81.7318 11.7367C86.5518 6.41134 94.8443 5.99772 100.234 10.806C105.573 15.6144 105.987 23.8867 101.167 29.2638C96.2955 34.5891 88.003 35.0028 82.6647 30.1944Z" fill="url(#paint8_linear)"/>
<path d="M97.2304 14.1149C93.7061 10.9094 88.2123 11.2196 85.0508 14.7354C81.8893 18.2511 82.1485 23.7316 85.6728 26.8854C89.1971 30.091 94.6908 29.7808 97.8523 26.265C101.066 22.7492 100.755 17.3205 97.2304 14.1149ZM86.6575 25.748C83.7551 23.1111 83.5478 18.613 86.1392 15.7177C88.7824 12.8224 93.2915 12.5639 96.1938 15.2007C99.0962 17.8375 99.3035 22.3356 96.7121 25.2309C94.1207 28.178 89.6117 28.3848 86.6575 25.748Z" fill="url(#paint9_linear)"/>
<path d="M33.7912 21.353L33.6875 19.7502L77.2747 19.6985L77.3784 21.2496L33.7912 21.353Z" fill="url(#paint10_linear)"/>
</g>
<defs>
<linearGradient id="paint0_linear" x1="-30.7605" y1="-33.0526" x2="66.7774" y2="94.8228" gradientUnits="userSpaceOnUse">
<stop stop-color="#C8176F"/>
<stop offset="1" stop-color="#28D4FF"/>
</linearGradient>
<linearGradient id="paint1_linear" x1="-10.0399" y1="-48.8576" x2="87.4979" y2="79.0177" gradientUnits="userSpaceOnUse">
<stop stop-color="#C8176F"/>
<stop offset="1" stop-color="#28D4FF"/>
</linearGradient>
<linearGradient id="paint2_linear" x1="-27.1107" y1="-35.8365" x2="70.427" y2="92.0389" gradientUnits="userSpaceOnUse">
<stop stop-color="#C8176F"/>
<stop offset="1" stop-color="#28D4FF"/>
</linearGradient>
<linearGradient id="paint3_linear" x1="-24.2802" y1="-37.995" x2="73.2576" y2="89.8804" gradientUnits="userSpaceOnUse">
<stop stop-color="#C8176F"/>
<stop offset="1" stop-color="#28D4FF"/>
</linearGradient>
<linearGradient id="paint4_linear" x1="-24.2784" y1="-37.995" x2="73.2593" y2="89.8804" gradientUnits="userSpaceOnUse">
<stop stop-color="#C8176F"/>
<stop offset="1" stop-color="#28D4FF"/>
</linearGradient>
<linearGradient id="paint5_linear" x1="-21.3568" y1="-53.9909" x2="120.496" y2="22.1484" gradientUnits="userSpaceOnUse">
<stop stop-color="#C8176F"/>
<stop offset="1" stop-color="#28D4FF"/>
</linearGradient>
<linearGradient id="paint6_linear" x1="-36.5193" y1="-25.7462" x2="105.334" y2="50.3934" gradientUnits="userSpaceOnUse">
<stop stop-color="#C8176F"/>
<stop offset="1" stop-color="#28D4FF"/>
</linearGradient>
<linearGradient id="paint7_linear" x1="-27.9543" y1="-41.7008" x2="113.899" y2="34.4385" gradientUnits="userSpaceOnUse">
<stop stop-color="#C8176F"/>
<stop offset="1" stop-color="#28D4FF"/>
</linearGradient>
<linearGradient id="paint8_linear" x1="-27.2992" y1="-42.9219" x2="114.554" y2="33.2175" gradientUnits="userSpaceOnUse">
<stop stop-color="#C8176F"/>
<stop offset="1" stop-color="#28D4FF"/>
</linearGradient>
<linearGradient id="paint9_linear" x1="-27.2973" y1="-42.922" x2="114.556" y2="33.2174" gradientUnits="userSpaceOnUse">
<stop stop-color="#C8176F"/>
<stop offset="1" stop-color="#28D4FF"/>
</linearGradient>
<linearGradient id="paint10_linear" x1="-35.5222" y1="-28.1234" x2="106.331" y2="48.016" gradientUnits="userSpaceOnUse">
<stop stop-color="#C8176F"/>
<stop offset="1" stop-color="#28D4FF"/>
</linearGradient>
<clipPath id="clip0">
<rect width="112" height="41" fill="white"/>
</clipPath>
</defs>
</svg>
