<svg width="85" height="76" viewBox="0 0 85 76" fill="none" xmlns="http://www.w3.org/2000/svg">
<g clip-path="url(#clip0)">
<path d="M56.244 0C59.5946 0 62.7174 1.27839 65.0596 3.57948C69.939 8.37342 69.939 16.1396 65.0596 20.9336C62.7174 23.2346 59.562 24.513 56.244 24.513C52.8935 24.513 49.7706 23.2346 47.4285 20.9336C45.0863 18.6325 43.7852 15.5324 43.7852 12.2725C43.7852 8.98066 45.0863 5.91253 47.4285 3.61144C49.7706 1.27839 52.8935 0 56.244 0ZM56.244 23.9058C59.3994 23.9058 62.3921 22.6913 64.6041 20.4861C69.2234 15.9479 69.2234 8.56518 64.6041 4.02691C62.3596 1.85366 59.3994 0.639193 56.244 0.639193C53.0886 0.639193 50.0959 1.85366 47.8839 4.05887C45.6393 6.26409 44.4032 9.17241 44.4032 12.2725C44.4032 15.3726 45.6393 18.3129 47.8839 20.4861C50.1284 22.6594 53.0561 23.9058 56.244 23.9058Z" fill="url(#paint0_linear)"/>
<path d="M56.243 3.25989C58.5852 3.25989 60.9273 4.1228 62.7164 5.88058C64.4405 7.57444 65.4164 9.84357 65.4164 12.2405C65.4164 14.6375 64.473 16.9066 62.7164 18.6005C60.9924 20.2944 58.6828 21.2532 56.243 21.2532C53.8033 21.2532 51.4937 20.3263 49.7696 18.6005C46.1914 15.0849 46.1914 9.36418 49.7696 5.84862C51.5262 4.1228 53.8684 3.25989 56.243 3.25989ZM56.243 20.6459C58.5201 20.6459 60.6671 19.783 62.261 18.185C63.8875 16.5871 64.7658 14.5097 64.7658 12.2725C64.7658 10.0353 63.8875 7.92599 62.261 6.35997C58.943 3.10009 53.5431 3.10009 50.1925 6.35997C46.8745 9.61985 46.8745 14.9251 50.1925 18.217C51.819 19.783 53.966 20.6459 56.243 20.6459Z" fill="url(#paint1_linear)"/>
<path d="M56.2457 6.61566C57.7095 6.61566 59.2059 7.15898 60.3119 8.27756C62.5565 10.4828 62.5565 14.0623 60.3119 16.2675C58.0674 18.4727 54.424 18.4727 52.1795 16.2675C49.935 14.0623 49.935 10.4828 52.1795 8.27756C53.2855 7.15898 54.7493 6.61566 56.2457 6.61566ZM56.2457 17.2902C57.5469 17.2902 58.8481 16.8108 59.8565 15.82C61.8408 13.8705 61.8408 10.6745 59.8565 8.725C57.8722 6.77546 54.6192 6.77546 52.6349 8.725C50.6506 10.6745 50.6506 13.8705 52.6349 15.82C53.6108 16.8108 54.912 17.2902 56.2457 17.2902Z" fill="url(#paint2_linear)"/>
<path d="M56.244 51.487C59.4319 51.487 62.6524 52.6695 65.0596 55.0665C69.939 59.8604 69.939 67.6266 65.0596 72.4206C62.7174 74.7217 59.562 76 56.244 76C52.8935 76 49.7706 74.7217 47.4285 72.4206C45.0863 70.1195 43.7852 67.0194 43.7852 63.7595C43.7852 60.4677 45.0863 57.3995 47.4285 55.0984C49.8357 52.6695 53.0236 51.487 56.244 51.487ZM56.244 75.3608C59.3994 75.3608 62.3921 74.1464 64.6041 71.9412C69.2234 67.4029 69.2234 60.0202 64.6041 55.482C59.9849 50.9437 52.4706 50.9437 47.8514 55.482C45.6068 57.6872 44.3707 60.5955 44.3707 63.6956C44.3707 66.7957 45.6068 69.736 47.8514 71.9092C50.0959 74.0825 53.0561 75.3608 56.244 75.3608Z" fill="url(#paint3_linear)"/>
<path d="M56.2443 54.7148C58.684 54.7148 60.9936 55.6417 62.7177 57.3675C64.4418 59.0614 65.4177 61.3305 65.4177 63.7275C65.4177 66.1244 64.4743 68.3936 62.7177 70.0874C59.1395 73.603 53.3166 73.603 49.7384 70.0874C46.1601 66.5719 46.1601 60.8511 49.7384 57.3355C51.4625 55.6736 53.7721 54.7148 56.2443 54.7148ZM56.2443 72.1009C58.4238 72.1009 60.6033 71.2699 62.2623 69.64C63.8888 68.042 64.7671 65.9646 64.7671 63.7275C64.7671 61.4903 63.8888 59.3809 62.2623 57.8149C60.6358 56.2169 58.5214 55.354 56.2443 55.354C53.9672 55.354 51.8203 56.2169 50.2263 57.8149C46.9083 61.0748 46.9083 66.3801 50.2263 69.672C51.8528 71.3019 54.0323 72.1009 56.2443 72.1009Z" fill="url(#paint4_linear)"/>
<path d="M56.2457 58.0706C57.7095 58.0706 59.2059 58.6139 60.3119 59.7325C62.5565 61.9377 62.5565 65.5172 60.3119 67.7224C58.0674 69.9276 54.424 69.9276 52.1795 67.7224C49.935 65.5172 49.935 61.9377 52.1795 59.7325C53.2855 58.6459 54.7493 58.0706 56.2457 58.0706ZM56.2457 68.7451C57.5469 68.7451 58.8481 68.2657 59.8565 67.275C61.8408 65.3254 61.8408 62.1295 59.8565 60.18C57.8722 58.2304 54.6192 58.2304 52.6349 60.18C50.6506 62.1295 50.6506 65.3254 52.6349 67.275C53.6108 68.2657 54.912 68.7451 56.2457 68.7451Z" fill="url(#paint5_linear)"/>
<path d="M42.5803 29.0833C45.02 29.0833 47.3296 30.0101 49.0537 31.7359C52.6319 35.2515 52.6319 40.9722 49.0537 44.4878C45.4754 48.0033 39.6526 48.0033 36.0743 44.4878C32.4961 40.9722 32.4961 35.2515 36.0743 31.7359C37.8309 30.042 40.1405 29.0833 42.5803 29.0833ZM42.5803 46.4693C44.7597 46.4693 46.9392 45.6383 48.5982 44.0084C51.9163 40.7485 51.9163 35.4432 48.5982 32.1514C46.9718 30.5534 44.8573 29.6905 42.5803 29.6905C40.3032 29.6905 38.1562 30.5534 36.5623 32.1514C33.2442 35.4113 33.2442 40.7166 36.5623 44.0084C38.2213 45.6703 40.4008 46.4693 42.5803 46.4693Z" fill="url(#paint6_linear)"/>
<path d="M72.5415 25.8553C75.7294 25.8553 78.9499 27.0379 81.3571 29.4348C86.2365 34.2288 86.2365 41.995 81.3571 46.7889C79.0149 49.09 75.8596 50.3684 72.5415 50.3684C69.191 50.3684 66.0681 49.09 63.726 46.7889C58.8465 41.995 58.8465 34.2288 63.726 29.4348C66.1332 27.0379 69.3211 25.8553 72.5415 25.8553ZM72.5415 49.7292C75.6969 49.7292 78.6896 48.5147 80.9017 46.3095C85.5209 41.7712 85.5209 34.3886 80.9017 29.8503C76.2824 25.312 68.7681 25.312 64.1489 29.8503C61.9043 32.0555 60.6682 34.9638 60.6682 38.0639C60.6682 41.164 61.9043 44.1043 64.1489 46.2776C66.3934 48.4508 69.3536 49.7292 72.5415 49.7292Z" fill="url(#paint7_linear)"/>
<path d="M72.5412 29.0833C74.9809 29.0833 77.2905 30.0101 79.0146 31.7359C80.7387 33.4298 81.7146 35.6989 81.7146 38.0959C81.7146 40.4928 80.7712 42.762 79.0146 44.4558C75.4363 47.9714 69.6135 47.9714 66.0353 44.4558C62.457 40.9403 62.457 35.2195 66.0353 31.7039C67.7593 30.042 70.0689 29.0833 72.5412 29.0833ZM72.5412 46.4693C74.7207 46.4693 76.9002 45.6383 78.5592 44.0084C80.1857 42.4104 81.064 40.333 81.064 38.0959C81.064 35.8587 80.1857 33.7494 78.5592 32.1833C76.9327 30.5854 74.8183 29.7224 72.5412 29.7224C70.2641 29.7224 68.1172 30.5854 66.5232 32.1833C63.2052 35.4432 63.2052 40.7485 66.5232 44.0404C68.1497 45.6703 70.3617 46.4693 72.5412 46.4693Z" fill="url(#paint8_linear)"/>
<path d="M72.5429 32.439C74.0718 32.439 75.5356 33.0143 76.6091 34.1009C78.8536 36.3061 78.8536 39.8856 76.6091 42.0908C75.5356 43.1455 74.0718 43.7527 72.5429 43.7527C71.014 43.7527 69.5502 43.1775 68.4767 42.0908C67.4032 41.0362 66.7852 39.598 66.7852 38.0959C66.7852 36.5938 67.3707 35.1556 68.4767 34.1009C69.5502 33.0463 70.9815 32.439 72.5429 32.439ZM72.5429 43.1455C73.9091 43.1455 75.1778 42.6342 76.1537 41.6754C78.138 39.7258 78.138 36.5299 76.1537 34.5803C75.1778 33.6215 73.9091 33.1102 72.5429 33.1102C71.1766 33.1102 69.908 33.6215 68.9321 34.5803C67.9562 35.5391 67.4357 36.7855 67.4357 38.1278C67.4357 39.4702 67.9562 40.7166 68.9321 41.6754C69.908 42.6342 71.1766 43.1455 72.5429 43.1455Z" fill="url(#paint9_linear)"/>
<path d="M59.8551 37.7443H51.8203V38.3835H59.8551V37.7443Z" fill="url(#paint10_linear)"/>
<path d="M46.1585 45.9579L50.2247 52.7653L49.6717 53.0849L45.6055 46.2775L46.1585 45.9579Z" fill="url(#paint11_linear)"/>
<path d="M49.6717 22.915L50.2247 23.2346L46.1585 30.0101L45.6055 29.6905L49.6717 22.915Z" fill="url(#paint12_linear)"/>
<path d="M28.7883 51.487C31.9762 51.487 35.1966 52.6695 37.6038 55.0665C42.4833 59.8604 42.4833 67.6266 37.6038 72.4206C32.7244 77.2145 24.8196 77.2145 19.9402 72.4206C17.5981 70.1195 16.2969 67.0194 16.2969 63.7595C16.2969 60.4677 17.5981 57.3995 19.9402 55.0984C22.3799 52.6695 25.6004 51.487 28.7883 51.487ZM37.1484 71.9731C41.7676 67.4349 41.7676 60.0522 37.1484 55.5139C32.5292 50.9756 25.0148 50.9756 20.3956 55.5139C18.1511 57.7191 16.9149 60.6274 16.9149 63.7275C16.9149 66.8276 18.1511 69.7679 20.3956 71.9412C25.0474 76.5114 32.5292 76.5114 37.1484 71.9731Z" fill="url(#paint13_linear)"/>
<path d="M28.7879 54.7148C31.2277 54.7148 33.5373 55.6417 35.2613 57.3675C38.8396 60.8831 38.8396 66.6038 35.2613 70.1194C31.6831 73.6349 25.8603 73.6349 22.282 70.1194C20.5579 68.4255 19.582 66.1564 19.582 63.7594C19.582 61.3624 20.5254 59.0933 22.282 57.3995C24.0386 55.6736 26.3482 54.7148 28.7879 54.7148ZM34.8059 69.672C38.1239 66.4121 38.1239 61.1068 34.8059 57.8149C33.1794 56.2169 31.065 55.354 28.7879 55.354C26.5108 55.354 24.3639 56.2489 22.7699 57.8149C21.1435 59.4129 20.2652 61.4903 20.2652 63.7275C20.2652 65.9646 21.1435 68.074 22.7699 69.672C26.088 72.9318 31.4879 72.9318 34.8059 69.672Z" fill="url(#paint14_linear)"/>
<path d="M28.7887 58.0706C30.2525 58.0706 31.7489 58.6139 32.8549 59.7325C33.9284 60.7872 34.5464 62.2254 34.5464 63.7275C34.5464 65.2296 33.9609 66.6678 32.8549 67.7224C30.6103 69.9276 26.967 69.9276 24.7225 67.7224C22.4779 65.5172 22.4779 61.9377 24.7225 59.7325C25.8285 58.6459 27.3248 58.0706 28.7887 58.0706ZM28.7887 68.7451C30.0899 68.7451 31.3911 68.2657 32.3995 67.275C33.3754 66.3162 33.8958 65.0698 33.8958 63.7275C33.8958 62.3852 33.3754 61.1387 32.3995 60.18C30.4152 58.2304 27.1622 58.2304 25.1779 60.18C23.1936 62.1295 23.1936 65.3254 25.1779 67.275C26.1863 68.2657 27.4875 68.7451 28.7887 68.7451Z" fill="url(#paint15_linear)"/>
<path d="M28.7883 0C31.9762 0 35.1966 1.18251 37.6038 3.57948C42.4833 8.37342 42.4833 16.1396 37.6038 20.9336C32.7244 25.7275 24.8196 25.7275 19.9402 20.9336C17.5981 18.6325 16.2969 15.5324 16.2969 12.2725C16.2969 8.98066 17.5981 5.91253 19.9402 3.61144C22.3799 1.21447 25.6004 0 28.7883 0ZM37.1484 20.4861C41.7676 15.9479 41.7676 8.56518 37.1484 4.02691C32.5292 -0.479394 25.0474 -0.479394 20.4281 4.05887C18.1836 6.26409 16.9475 9.17241 16.9475 12.2725C16.9475 15.3726 18.1836 18.3129 20.4281 20.4861C25.0474 25.0244 32.5292 25.0244 37.1484 20.4861Z" fill="url(#paint16_linear)"/>
<path d="M28.7906 3.25989C31.1327 3.25989 33.4748 4.1228 35.264 5.88058C38.8422 9.39613 38.8422 15.1169 35.264 18.6325C33.5399 20.3263 31.2303 21.2851 28.7906 21.2851C26.3508 21.2851 24.0412 20.3583 22.3171 18.6325C20.5931 16.9386 19.6172 14.6695 19.6172 12.2725C19.6172 9.87553 20.5605 7.6064 22.3171 5.91254C24.0738 4.1228 26.4484 3.25989 28.7906 3.25989ZM28.7906 20.6459C31.0676 20.6459 33.2146 19.783 34.8085 18.185C38.1266 14.9251 38.1266 9.61985 34.8085 6.32801C31.4905 3.06813 26.0906 3.06813 22.7726 6.35997C21.1461 7.95795 20.2678 10.0353 20.2678 12.2725C20.2678 14.5097 21.1461 16.619 22.7726 18.185C24.3665 19.783 26.5135 20.6459 28.7906 20.6459Z" fill="url(#paint17_linear)"/>
<path d="M28.7887 6.61566C30.2525 6.61566 31.7489 7.15898 32.8549 8.27756C33.9284 9.33223 34.5464 10.7704 34.5464 12.2725C34.5464 13.7746 33.9609 15.2128 32.8549 16.2675C30.6103 18.4727 26.967 18.4727 24.7225 16.2675C22.4779 14.0623 22.4779 10.4828 24.7225 8.27756C25.8285 7.15898 27.3248 6.61566 28.7887 6.61566ZM28.7887 17.2902C30.0899 17.2902 31.3911 16.8108 32.3995 15.82C33.3754 14.8612 33.8958 13.6148 33.8958 12.2725C33.8958 10.9302 33.3754 9.68379 32.3995 8.725C30.4152 6.77546 27.1622 6.77546 25.1779 8.725C23.1936 10.6745 23.1936 13.8705 25.1779 15.82C26.1863 16.8108 27.4875 17.2902 28.7887 17.2902Z" fill="url(#paint18_linear)"/>
<path d="M12.4914 25.6316C15.8419 25.6316 18.9648 26.91 21.3069 29.2111C23.6491 31.5122 24.9502 34.6123 24.9502 37.8721C24.9502 41.164 23.6491 44.2321 21.3069 46.5332C16.4275 51.3271 8.52277 51.3271 3.64332 46.5332C1.30119 44.2641 0 41.164 0 37.9041C0 34.6122 1.30119 31.5441 3.64332 29.243C6.01799 26.91 9.14083 25.6316 12.4914 25.6316ZM20.8515 46.1177C23.0961 43.9125 24.3322 41.0042 24.3322 37.9041C24.3322 34.804 23.0961 31.8637 20.8515 29.6905C18.607 27.5172 15.6468 26.2708 12.4914 26.2708C9.33601 26.2708 6.34328 27.4853 4.13127 29.6905C1.91925 31.8957 0.650593 34.804 0.650593 37.9041C0.650593 41.0042 1.88672 43.9445 4.13127 46.1177C8.71795 50.656 16.2323 50.656 20.8515 46.1177Z" fill="url(#paint19_linear)"/>
<path d="M12.4898 28.8915C14.8319 28.8915 17.174 29.7544 18.9632 31.5122C22.5414 35.0277 22.5414 40.7485 18.9632 44.2641C17.2391 45.9579 14.9295 46.9167 12.4898 46.9167C10.05 46.9167 7.74044 45.9899 6.01637 44.2641C4.2923 42.5702 3.31641 40.3011 3.31641 37.9041C3.31641 35.5071 4.25977 33.238 6.01637 31.5441C7.77297 29.7544 10.1476 28.8915 12.4898 28.8915ZM12.4898 46.2775C14.7668 46.2775 16.9138 45.4146 18.5078 43.8166C21.8258 40.5567 21.8258 35.2514 18.5078 31.9596C15.1897 28.6997 9.78981 28.6997 6.43925 31.9596C4.81277 33.5576 3.93447 35.635 3.93447 37.8721C3.93447 40.1093 4.81277 42.2186 6.43925 43.7847C8.06574 45.4146 10.2127 46.2775 12.4898 46.2775Z" fill="url(#paint20_linear)"/>
<path d="M12.4918 32.2473C14.0207 32.2473 15.4845 32.8225 16.558 33.9092C17.6315 34.9638 18.2496 36.402 18.2496 37.9041C18.2496 39.4062 17.664 40.8444 16.558 41.8991C15.4845 42.9537 14.0207 43.561 12.4918 43.561C10.9629 43.561 9.49908 42.9857 8.4256 41.8991C6.18105 39.6938 6.18105 36.1144 8.4256 33.9092C9.49908 32.8225 10.9629 32.2473 12.4918 32.2473ZM12.4918 42.9218C13.8581 42.9218 15.1267 42.4104 16.1026 41.4516C17.0785 40.4928 17.599 39.2464 17.599 37.9041C17.599 36.5618 17.0785 35.3154 16.1026 34.3566C15.1267 33.3978 13.8581 32.8864 12.4918 32.8864C11.1256 32.8864 9.8569 33.3978 8.88101 34.3566C6.8967 36.3061 6.8967 39.5021 8.88101 41.4516C9.82437 42.4104 11.1256 42.9218 12.4918 42.9218Z" fill="url(#paint21_linear)"/>
<path d="M33.2145 37.6165H25.1797V38.2556H33.2145V37.6165Z" fill="url(#paint22_linear)"/>
<path d="M35.3616 22.947L39.3953 29.7225L38.8423 30.074L34.8086 23.2666L35.3616 22.947Z" fill="url(#paint23_linear)"/>
<path d="M38.8423 45.9899L39.3953 46.3095L35.3616 53.1169L34.8086 52.7973L38.8423 45.9899Z" fill="url(#paint24_linear)"/>
</g>
<defs>
<linearGradient id="paint0_linear" x1="53.9764" y1="13.9245" x2="10.087" y2="47.3601" gradientUnits="userSpaceOnUse">
<stop stop-color="#28D4FF"/>
<stop offset="1" stop-color="#C8176F"/>
</linearGradient>
<linearGradient id="paint1_linear" x1="53.9757" y1="13.9249" x2="10.0863" y2="47.3605" gradientUnits="userSpaceOnUse">
<stop stop-color="#28D4FF"/>
<stop offset="1" stop-color="#C8176F"/>
</linearGradient>
<linearGradient id="paint2_linear" x1="53.9781" y1="13.9245" x2="10.0887" y2="47.3601" gradientUnits="userSpaceOnUse">
<stop stop-color="#28D4FF"/>
<stop offset="1" stop-color="#C8176F"/>
</linearGradient>
<linearGradient id="paint3_linear" x1="79.1111" y1="46.9177" x2="35.2217" y2="80.3534" gradientUnits="userSpaceOnUse">
<stop stop-color="#28D4FF"/>
<stop offset="1" stop-color="#C8176F"/>
</linearGradient>
<linearGradient id="paint4_linear" x1="79.1107" y1="46.9167" x2="35.2213" y2="80.3523" gradientUnits="userSpaceOnUse">
<stop stop-color="#28D4FF"/>
<stop offset="1" stop-color="#C8176F"/>
</linearGradient>
<linearGradient id="paint5_linear" x1="79.1124" y1="46.9172" x2="35.223" y2="80.3528" gradientUnits="userSpaceOnUse">
<stop stop-color="#28D4FF"/>
<stop offset="1" stop-color="#C8176F"/>
</linearGradient>
<linearGradient id="paint6_linear" x1="61.6954" y1="24.0585" x2="17.806" y2="57.4942" gradientUnits="userSpaceOnUse">
<stop stop-color="#28D4FF"/>
<stop offset="1" stop-color="#C8176F"/>
</linearGradient>
<linearGradient id="paint7_linear" x1="72.4487" y1="38.172" x2="28.5593" y2="71.6077" gradientUnits="userSpaceOnUse">
<stop stop-color="#28D4FF"/>
<stop offset="1" stop-color="#C8176F"/>
</linearGradient>
<linearGradient id="paint8_linear" x1="72.4476" y1="38.171" x2="28.5582" y2="71.6067" gradientUnits="userSpaceOnUse">
<stop stop-color="#28D4FF"/>
<stop offset="1" stop-color="#C8176F"/>
</linearGradient>
<linearGradient id="paint9_linear" x1="72.4496" y1="38.1715" x2="28.5602" y2="71.607" gradientUnits="userSpaceOnUse">
<stop stop-color="#28D4FF"/>
<stop offset="1" stop-color="#C8176F"/>
</linearGradient>
<linearGradient id="paint10_linear" x1="66.4335" y1="30.2759" x2="22.5439" y2="63.7115" gradientUnits="userSpaceOnUse">
<stop stop-color="#28D4FF"/>
<stop offset="1" stop-color="#C8176F"/>
</linearGradient>
<linearGradient id="paint11_linear" x1="69.1761" y1="33.8782" x2="25.2867" y2="67.3139" gradientUnits="userSpaceOnUse">
<stop stop-color="#28D4FF"/>
<stop offset="1" stop-color="#C8176F"/>
</linearGradient>
<linearGradient id="paint12_linear" x1="57.9202" y1="19.103" x2="14.0307" y2="52.5388" gradientUnits="userSpaceOnUse">
<stop stop-color="#28D4FF"/>
<stop offset="1" stop-color="#C8176F"/>
</linearGradient>
<linearGradient id="paint13_linear" x1="69.2566" y1="33.9831" x2="25.3672" y2="67.4187" gradientUnits="userSpaceOnUse">
<stop stop-color="#28D4FF"/>
<stop offset="1" stop-color="#C8176F"/>
</linearGradient>
<linearGradient id="paint14_linear" x1="69.256" y1="33.9826" x2="25.3666" y2="67.4183" gradientUnits="userSpaceOnUse">
<stop stop-color="#28D4FF"/>
<stop offset="1" stop-color="#C8176F"/>
</linearGradient>
<linearGradient id="paint15_linear" x1="69.257" y1="33.983" x2="25.3676" y2="67.4187" gradientUnits="userSpaceOnUse">
<stop stop-color="#28D4FF"/>
<stop offset="1" stop-color="#C8176F"/>
</linearGradient>
<linearGradient id="paint16_linear" x1="44.1223" y1="0.990397" x2="0.232888" y2="34.4261" gradientUnits="userSpaceOnUse">
<stop stop-color="#28D4FF"/>
<stop offset="1" stop-color="#C8176F"/>
</linearGradient>
<linearGradient id="paint17_linear" x1="44.1249" y1="0.990817" x2="0.235482" y2="34.4265" gradientUnits="userSpaceOnUse">
<stop stop-color="#28D4FF"/>
<stop offset="1" stop-color="#C8176F"/>
</linearGradient>
<linearGradient id="paint18_linear" x1="44.1226" y1="0.990319" x2="0.233207" y2="34.426" gradientUnits="userSpaceOnUse">
<stop stop-color="#28D4FF"/>
<stop offset="1" stop-color="#C8176F"/>
</linearGradient>
<linearGradient id="paint19_linear" x1="50.7849" y1="9.73547" x2="6.8955" y2="43.1711" gradientUnits="userSpaceOnUse">
<stop stop-color="#28D4FF"/>
<stop offset="1" stop-color="#C8176F"/>
</linearGradient>
<linearGradient id="paint20_linear" x1="50.784" y1="9.73645" x2="6.89465" y2="43.1721" gradientUnits="userSpaceOnUse">
<stop stop-color="#28D4FF"/>
<stop offset="1" stop-color="#C8176F"/>
</linearGradient>
<linearGradient id="paint21_linear" x1="50.7857" y1="9.73603" x2="6.89635" y2="43.1717" gradientUnits="userSpaceOnUse">
<stop stop-color="#28D4FF"/>
<stop offset="1" stop-color="#C8176F"/>
</linearGradient>
<linearGradient id="paint22_linear" x1="56.802" y1="17.6317" x2="12.9129" y2="51.0674" gradientUnits="userSpaceOnUse">
<stop stop-color="#28D4FF"/>
<stop offset="1" stop-color="#C8176F"/>
</linearGradient>
<linearGradient id="paint23_linear" x1="54.0578" y1="14.0293" x2="10.1684" y2="47.4649" gradientUnits="userSpaceOnUse">
<stop stop-color="#28D4FF"/>
<stop offset="1" stop-color="#C8176F"/>
</linearGradient>
<linearGradient id="paint24_linear" x1="65.3138" y1="28.8044" x2="21.4243" y2="62.24" gradientUnits="userSpaceOnUse">
<stop stop-color="#28D4FF"/>
<stop offset="1" stop-color="#C8176F"/>
</linearGradient>
<clipPath id="clip0">
<rect width="85" height="76" fill="white"/>
</clipPath>
</defs>
</svg>
