<svg width="175" height="92" viewBox="0 0 175 92" fill="none" xmlns="http://www.w3.org/2000/svg">
<g clip-path="url(#clip0)">
<path d="M109.466 35.6396V55.2H106.12V52.2494C105.391 53.244 104.463 54.0396 103.304 54.6033C102.144 55.1669 100.852 55.4321 99.4935 55.4321C96.8761 55.4321 94.822 54.7027 93.3311 53.2771C91.8402 51.8515 91.0781 49.7297 91.0781 46.9117V35.6728H94.6232V46.5139C94.6232 48.4036 95.087 49.8292 95.9816 50.8238C96.8761 51.7852 98.2014 52.2825 99.8911 52.2825C101.746 52.2825 103.237 51.7189 104.298 50.5917C105.391 49.4645 105.921 47.8732 105.921 45.7845V35.6728H109.466V35.6396Z" fill="#212121"/>
<path d="M133.155 27.8152V55.1665H129.776V52.0833C128.981 53.1773 127.987 53.973 126.794 54.5698C125.602 55.1334 124.276 55.4318 122.818 55.4318C120.93 55.4318 119.24 55.0008 117.716 54.1719C116.225 53.3431 115.033 52.1496 114.204 50.6577C113.343 49.1327 112.945 47.4087 112.945 45.4527C112.945 43.4966 113.376 41.7395 114.204 40.2476C115.066 38.7557 116.225 37.5954 117.716 36.7334C119.207 35.9046 120.897 35.4736 122.818 35.4736C124.21 35.4736 125.502 35.7388 126.695 36.2692C127.888 36.7997 128.848 37.5622 129.644 38.6231V27.8152H133.155ZM126.463 51.4202C127.457 50.8566 128.252 50.0278 128.815 49C129.378 47.9391 129.677 46.7456 129.677 45.4195C129.677 44.0602 129.378 42.8667 128.815 41.839C128.252 40.7781 127.457 39.9824 126.463 39.4188C125.469 38.8552 124.343 38.5568 123.117 38.5568C121.858 38.5568 120.731 38.8552 119.737 39.4188C118.743 39.9824 117.948 40.7781 117.385 41.839C116.822 42.8999 116.524 44.0934 116.524 45.4195C116.524 46.7788 116.822 47.9723 117.385 49C117.948 50.0609 118.743 50.8566 119.737 51.4202C120.731 51.9838 121.858 52.2822 123.117 52.2822C124.343 52.2822 125.469 52.017 126.463 51.4202Z" fill="#212121"/>
<path d="M138.457 31.1969C137.994 30.7659 137.762 30.2023 137.762 29.5724C137.762 28.9425 137.994 28.3789 138.457 27.9479C138.921 27.4838 139.485 27.2517 140.18 27.2517C140.876 27.2517 141.439 27.4838 141.903 27.8816C142.367 28.3126 142.599 28.8431 142.599 29.473C142.599 30.136 142.367 30.6996 141.903 31.1638C141.439 31.6279 140.876 31.86 140.18 31.86C139.485 31.86 138.921 31.6611 138.457 31.1969ZM138.391 35.6395H141.936V55.1998H138.391V35.6395Z" fill="#212121"/>
<path d="M163.57 37.5955C165.028 39.0211 165.757 41.1429 165.757 43.9278V55.1667H162.212V44.3256C162.212 42.4359 161.748 41.0103 160.853 40.0489C159.959 39.0874 158.633 38.6233 156.944 38.6233C155.022 38.6233 153.531 39.1869 152.405 40.3141C151.311 41.4413 150.748 43.0327 150.748 45.1213V55.1999H147.203V35.6395H150.583V38.5901C151.278 37.5955 152.272 36.7999 153.465 36.2694C154.691 35.739 156.049 35.4737 157.606 35.4737C160.124 35.4406 162.079 36.17 163.57 37.5955Z" fill="#212121"/>
<path d="M170.891 31.1969C170.427 30.7659 170.195 30.2023 170.195 29.5724C170.195 28.9425 170.427 28.3789 170.891 27.9479C171.355 27.4838 171.918 27.2517 172.614 27.2517C173.31 27.2517 173.873 27.4838 174.337 27.8816C174.801 28.3126 175.032 28.8431 175.032 29.473C175.032 30.136 174.801 30.6996 174.337 31.1638C173.873 31.6279 173.31 31.86 172.614 31.86C171.918 31.86 171.355 31.6611 170.891 31.1969ZM170.825 35.6395H174.37V55.1998H170.825V35.6395Z" fill="#212121"/>
<path d="M91.1133 60.6711H93.068C93.5319 60.6711 93.9626 60.7706 94.327 60.9364C94.6915 61.1353 94.9896 61.3674 95.1884 61.732C95.3872 62.0636 95.4866 62.4614 95.4866 62.8924C95.4866 63.3234 95.3872 63.7212 95.1884 64.0528C94.9896 64.3843 94.6915 64.6495 94.327 64.8485C93.9626 65.0474 93.5319 65.1137 93.068 65.1137H91.1133V60.6711ZM93.0018 64.4506C93.3331 64.4506 93.6312 64.3843 93.8632 64.2517C94.0951 64.1191 94.2939 63.9533 94.4264 63.7212C94.5589 63.4892 94.6252 63.2239 94.6252 62.9256C94.6252 62.6272 94.5589 62.362 94.4264 62.1299C94.2939 61.8978 94.0951 61.732 93.8632 61.5994C93.6312 61.4668 93.3331 61.4005 93.0018 61.4005H91.9084V64.4506H93.0018Z" fill="#212121"/>
<path d="M103.006 64.4496V65.1458H99.6602V60.6702H102.907V61.3664H100.488V62.5267H102.642V63.223H100.488V64.4496H103.006Z" fill="#212121"/>
<path d="M111.191 60.6702V65.1127H110.495L108.043 62.0958V65.1127H107.215V60.6702H107.911L110.362 63.6871V60.6702H111.191Z" fill="#212121"/>
<path d="M116.592 61.3995H115.102V60.6702H118.879V61.3664H117.388V65.1127H116.559V61.3995H116.592Z" fill="#212121"/>
<path d="M125.504 64.1181H123.284L122.854 65.1459H121.992L124.013 60.7034H124.841L126.862 65.1459H126.001L125.504 64.1181ZM125.239 63.4551L124.411 61.499L123.582 63.4551H125.239Z" fill="#212121"/>
<path d="M130.707 60.6702H131.535V64.4165H133.855V65.1127H130.707V60.6702Z" fill="#212121"/>
<path d="M143.262 65.0466C142.931 64.9471 142.699 64.8145 142.5 64.6487L142.798 64.0188C142.997 64.1514 143.196 64.284 143.461 64.3835C143.726 64.483 143.991 64.5161 144.256 64.5161C144.587 64.5161 144.819 64.4498 144.985 64.3504C145.151 64.2509 145.217 64.1183 145.217 63.9194C145.217 63.7868 145.184 63.6873 145.084 63.5878C144.985 63.4884 144.885 63.4552 144.753 63.3889C144.62 63.3558 144.422 63.2895 144.19 63.2232C143.858 63.1568 143.56 63.0574 143.361 62.9911C143.163 62.9248 142.964 62.7922 142.831 62.6264C142.699 62.4606 142.599 62.2286 142.599 61.9302C142.599 61.6981 142.666 61.466 142.798 61.2671C142.931 61.0682 143.129 60.9024 143.395 60.803C143.66 60.6704 143.991 60.6372 144.388 60.6372C144.654 60.6372 144.919 60.6704 145.184 60.7367C145.449 60.803 145.681 60.9024 145.879 61.035L145.614 61.665C145.416 61.5655 145.217 61.466 145.018 61.3997C144.819 61.3334 144.587 61.3003 144.388 61.3003C144.057 61.3003 143.825 61.3666 143.66 61.466C143.494 61.5655 143.428 61.7313 143.428 61.897C143.428 62.0296 143.461 62.1291 143.56 62.1954C143.66 62.2617 143.759 62.328 143.892 62.3943C144.024 62.4275 144.223 62.4938 144.455 62.5601C144.786 62.6264 145.051 62.7259 145.283 62.7922C145.482 62.8585 145.681 62.9911 145.813 63.1568C145.979 63.3226 146.045 63.5547 146.045 63.8531C146.045 64.0851 145.979 64.3172 145.846 64.5161C145.714 64.715 145.515 64.8808 145.25 64.9803C144.985 65.1129 144.654 65.146 144.256 65.146C143.925 65.2123 143.593 65.146 143.262 65.0466Z" fill="#212121"/>
<path d="M150.682 64.6817C150.351 64.3502 150.152 63.8529 150.152 63.1898V60.6702H150.981V63.1567C150.981 64.0186 151.345 64.4828 152.107 64.4828C152.869 64.4828 153.234 64.0518 153.234 63.1567V60.6702H154.062V63.1898C154.062 63.8197 153.896 64.317 153.565 64.6817C153.234 65.0464 152.737 65.2121 152.14 65.2121C151.478 65.2121 151.014 65.0464 150.682 64.6817Z" fill="#212121"/>
<path d="M158.535 60.6702H159.363V65.1127H158.535V60.6702Z" fill="#212121"/>
<path d="M164.764 61.3995H163.273V60.6702H167.05V61.3664H165.56V65.1127H164.731V61.3995H164.764Z" fill="#212121"/>
<path d="M174.338 64.4496V65.1458H170.992V60.6702H174.239V61.3664H171.82V62.5267H173.974V63.223H171.82V64.4496H174.338Z" fill="#212121"/>
<path d="M39.3605 60.7365C32.171 60.7365 26.3398 54.9016 26.3398 47.7073C26.3398 47.641 26.3398 47.5747 26.3398 47.5084V47.4753V31.2302H28.3277V47.7073C28.3277 53.8075 33.2643 58.7473 39.3605 58.7473C45.4567 58.7473 50.3932 53.8075 50.3932 47.7073C50.3932 47.6079 50.3932 47.5084 50.3932 47.409V31.2302H52.3811V47.3758C52.3811 47.4753 52.3811 47.5747 52.3811 47.7073C52.3811 54.8684 46.55 60.7365 39.3605 60.7365Z" fill="url(#paint0_linear)"/>
<path d="M39.3588 66.9694C29.2869 66.9694 21.0703 58.7474 21.0703 48.6689C21.0703 48.5694 21.0703 48.4368 21.0703 48.3373V24.9644H23.0582V48.3705C23.0582 48.5031 23.0582 48.6026 23.0582 48.702C23.0582 57.6865 30.3802 65.0134 39.3588 65.0134C48.3374 65.0134 55.6595 57.6865 55.6595 48.6689C55.6595 48.5363 55.6595 48.3705 55.6595 48.2379V24.9644H57.6474V48.2047C57.6474 48.3373 57.6474 48.5031 57.6474 48.6689C57.6474 58.7806 49.4639 66.9694 39.3588 66.9694Z" fill="url(#paint1_linear)"/>
<path d="M39.3611 73.2352C26.3736 73.2352 15.8047 62.6594 15.8047 49.6633C15.8047 49.5307 15.8047 49.3981 15.8047 49.2655V49.2323V18.7314H17.7926V49.2987C17.7926 49.4313 17.7926 49.5307 17.7926 49.6633C17.7926 61.5653 27.4669 71.246 39.3611 71.246C51.2553 71.246 60.9296 61.5653 60.9296 49.6633C60.9296 49.4644 60.9296 49.2655 60.9296 49.0666V18.7314H62.9175V49.0334C62.9175 49.2323 62.9175 49.4313 62.9175 49.6633C62.9507 62.6594 52.3817 73.2352 39.3611 73.2352Z" fill="url(#paint2_linear)"/>
<path d="M39.3595 79.5011C23.4564 79.5011 10.5352 66.5713 10.5352 50.6578C10.5352 50.4921 10.5352 50.3594 10.5352 50.2268V50.1605V12.4985H12.523V50.26C12.523 50.3926 12.523 50.5252 12.523 50.6578C12.523 65.4773 24.5497 77.5119 39.3595 77.5119C54.1692 77.5119 66.1959 65.4773 66.1959 50.6578C66.1959 50.4257 66.1959 50.1605 66.1959 49.9284V12.4985H68.1838V49.8953C68.1838 50.1274 68.1838 50.3926 68.1838 50.6578C68.2169 66.5382 55.2625 79.5011 39.3595 79.5011Z" fill="url(#paint3_linear)"/>
<path d="M39.3617 85.7672C20.5431 85.7672 5.26953 70.4504 5.26953 51.6526C5.26953 51.4537 5.26953 51.2547 5.26953 51.089V51.0558V6.29907H7.25741V51.1553C7.25741 51.3211 7.25741 51.52 7.25741 51.6857C7.25741 69.3895 21.6696 83.8111 39.3617 83.8111C57.0539 83.8111 71.466 69.3895 71.466 51.6857C71.466 51.3874 71.466 51.089 71.466 50.8238V6.33223H73.4539V50.7243C73.4539 51.0227 73.4539 51.3211 73.4539 51.6194C73.4871 70.4504 58.1804 85.7672 39.3617 85.7672Z" fill="url(#paint4_linear)"/>
<path d="M39.3601 92C17.659 92 0 74.3294 0 52.6141C0 52.4151 0 52.1831 0 51.9841V51.9178V0H1.98788V52.0173C1.98788 52.2162 1.98788 52.4151 1.98788 52.6141C1.98788 73.2353 18.7524 90.0108 39.3601 90.0108C59.9678 90.0108 76.7323 73.2353 76.7323 52.6141C76.7323 52.2825 76.7323 51.9178 76.7323 51.5863V0H78.7202V51.5532C78.7202 51.8847 78.7202 52.2494 78.7202 52.6141C78.7533 74.3294 61.0943 92 39.3601 92Z" fill="url(#paint5_linear)"/>
</g>
<defs>
<linearGradient id="paint0_linear" x1="39.3758" y1="59.7514" x2="39.3758" y2="17.5693" gradientUnits="userSpaceOnUse">
<stop stop-color="#C8176F"/>
<stop offset="1" stop-color="#28D4FF"/>
</linearGradient>
<linearGradient id="paint1_linear" x1="39.3743" y1="59.7515" x2="39.3743" y2="17.5694" gradientUnits="userSpaceOnUse">
<stop stop-color="#C8176F"/>
<stop offset="1" stop-color="#28D4FF"/>
</linearGradient>
<linearGradient id="paint2_linear" x1="39.3764" y1="59.7514" x2="39.3764" y2="17.5693" gradientUnits="userSpaceOnUse">
<stop stop-color="#C8176F"/>
<stop offset="1" stop-color="#28D4FF"/>
</linearGradient>
<linearGradient id="paint3_linear" x1="39.3748" y1="59.7513" x2="39.3748" y2="17.5692" gradientUnits="userSpaceOnUse">
<stop stop-color="#C8176F"/>
<stop offset="1" stop-color="#28D4FF"/>
</linearGradient>
<linearGradient id="paint4_linear" x1="39.3772" y1="59.7514" x2="39.3772" y2="17.5694" gradientUnits="userSpaceOnUse">
<stop stop-color="#C8176F"/>
<stop offset="1" stop-color="#28D4FF"/>
</linearGradient>
<linearGradient id="paint5_linear" x1="39.3754" y1="59.7515" x2="39.3754" y2="17.5694" gradientUnits="userSpaceOnUse">
<stop stop-color="#C8176F"/>
<stop offset="1" stop-color="#28D4FF"/>
</linearGradient>
<clipPath id="clip0">
<rect width="175" height="92" fill="white"/>
</clipPath>
</defs>
</svg>
