<svg width="28" height="27" viewBox="0 0 28 27" fill="none" xmlns="http://www.w3.org/2000/svg">
<g>
<path d="M14.13 2.40161C17.6692 2.40161 18.0484 2.40161 19.4388 2.52801C20.7028 2.52801 21.4612 2.78081 21.8404 3.03361C22.4724 3.28641 22.8516 3.53921 23.3572 4.04481C23.8628 4.55041 24.1156 4.92961 24.3684 5.56162C24.4948 6.06722 24.7476 6.69922 24.874 7.96322C25.0004 9.22723 25.0004 9.60643 25.0004 13.1456C25.0004 16.6848 25.0004 17.064 24.874 18.4545C24.874 19.7185 24.6212 20.4769 24.3684 20.8561C24.1156 21.4881 23.8628 21.8673 23.3572 22.3729C22.8516 22.8785 22.4724 23.1313 21.8404 23.3841C21.3348 23.5105 20.7028 23.7633 19.4388 23.8897C18.1748 24.0161 17.6692 24.0161 14.13 24.0161C10.5908 24.0161 10.2116 24.0161 8.8212 23.8897C7.55719 23.8897 6.79879 23.6369 6.41959 23.3841C5.78759 23.1313 5.40839 22.8785 4.90279 22.3729C4.39718 21.8673 4.14438 21.4881 3.89158 20.8561C3.76518 20.3505 3.51238 19.7185 3.38598 18.4545C3.38598 17.064 3.25958 16.6848 3.25958 13.1456C3.25958 9.60643 3.25958 9.22723 3.38598 7.83682C3.38598 6.57282 3.63878 5.81442 3.89158 5.43522C4.14438 4.80321 4.39718 4.42401 4.90279 3.91841C5.40839 3.41281 5.78759 3.16001 6.41959 2.90721C6.79879 2.78081 7.55719 2.52801 8.8212 2.40161C10.2116 2.40161 10.5908 2.40161 14.13 2.40161ZM14.13 0C10.5908 0 10.0852 0 8.6948 0.1264C7.30439 0.1264 6.41959 0.379201 5.53479 0.632002C4.64999 1.0112 3.89158 1.5168 3.25958 2.27521C2.62758 3.03361 1.99558 3.66561 1.61638 4.55041C1.36358 5.43521 1.11078 6.32002 1.11078 7.71042C0.984375 9.10083 0.984375 9.60643 0.984375 13.1456C0.984375 16.6848 0.984375 17.1904 1.11078 18.5809C1.23718 19.9713 1.36358 20.9825 1.74278 21.7409C2.12198 22.6257 2.50118 23.3841 3.25958 24.0161C4.01798 24.7745 4.77639 25.1537 5.53479 25.5329C6.41959 25.9121 7.30439 26.0385 8.6948 26.1649C10.0852 26.2913 10.5908 26.2913 14.13 26.2913C17.6692 26.2913 18.1748 26.2913 19.5652 26.1649C20.9556 26.0385 21.9668 25.9121 22.7252 25.5329C23.61 25.1537 24.3684 24.7745 25.0004 24.0161C25.7588 23.2577 26.138 22.4993 26.5172 21.7409C26.8964 20.8561 27.0228 19.9713 27.1492 18.5809C27.2757 17.1904 27.2756 16.6848 27.2756 13.1456C27.2756 9.60643 27.2757 9.10083 27.1492 7.71042C27.0228 6.32002 26.8964 5.30881 26.5172 4.55041C26.138 3.66561 25.7588 2.90721 25.0004 2.27521C24.242 1.5168 23.4836 1.1376 22.7252 0.758402C21.8404 0.379201 20.9556 0.252801 19.5652 0.1264C18.1748 0 17.7956 0 14.13 0Z" fill="black"/>
<path d="M14.1303 6.44653C10.3383 6.44653 7.30469 9.48014 7.30469 13.2721C7.30469 17.0642 10.3383 20.0978 14.1303 20.0978C17.9223 20.0978 20.9559 17.0642 20.9559 13.2721C20.9559 9.48014 17.9223 6.44653 14.1303 6.44653ZM14.1303 17.5698C11.7287 17.5698 9.70629 15.5474 9.70629 13.1457C9.83269 10.7441 11.7287 8.84814 14.1303 8.84814C16.5319 8.84814 18.5543 10.8705 18.5543 13.2721C18.5543 15.6738 16.6583 17.5698 14.1303 17.5698Z" fill="black"/>
<path d="M22.8509 6.19374C22.8509 7.07854 22.0925 7.83695 21.2077 7.83695C20.3229 7.83695 19.5645 7.07854 19.5645 6.19374C19.5645 5.30894 20.3229 4.55054 21.2077 4.55054C22.0925 4.55054 22.8509 5.30894 22.8509 6.19374Z" fill="black"/>
</g>
</svg>