<svg width="28" height="29" viewBox="0 0 28 29" fill="none" xmlns="http://www.w3.org/2000/svg">
<g>
<path d="M6.64043 9.42908H1.01172V28.1403H6.64043V9.42908Z" fill="black"/>
<path d="M3.75309 6.92464C5.62933 6.92464 7.07259 5.30398 7.07259 3.53599C7.07259 1.76799 5.62933 0 3.75309 0C1.87685 0 0.433594 1.62066 0.433594 3.38865C0.433594 5.15665 1.87685 6.92464 3.75309 6.92464Z" fill="black"/>
<path d="M15.7324 18.2691C15.7324 15.6171 16.887 13.9965 19.1963 13.9965C21.2168 13.9965 22.2271 15.4698 22.2271 18.2691C22.2271 20.9211 22.2271 28.1404 22.2271 28.1404H27.8558C27.8558 28.1404 27.8558 21.3631 27.8558 16.2065C27.8558 11.1972 25.1136 8.6925 21.2168 8.6925C17.32 8.6925 15.7324 11.7865 15.7324 11.7865V9.42917H10.248V28.1404H15.7324C15.7324 28.1404 15.7324 21.2158 15.7324 18.2691Z" fill="black"/>
</g>
</svg>