<svg width="60" height="60" viewBox="0 0 60 60" fill="none" xmlns="http://www.w3.org/2000/svg">
<g clip-path="url(#clip0)">
<path d="M30 29.9999C29.8477 29.9999 29.707 29.9765 29.5664 29.9179L5.8125 21.1757C5.32031 20.9999 4.99219 20.5312 4.99219 20.0039C4.99219 19.4765 5.32031 19.0078 5.8125 18.832L22.0664 12.8554C22.7109 12.621 23.4375 12.9492 23.6719 13.5937C23.9062 14.2382 23.5781 14.9531 22.9336 15.1992L9.86719 20.0039L30 27.4218L50.1328 20.0039L37.0664 15.1992C36.4219 14.9648 36.082 14.2382 36.3281 13.5937C36.5625 12.9492 37.2891 12.621 37.9336 12.8554L54.1875 18.832C54.6797 19.0195 55.0078 19.4882 55.0078 20.0039C55.0078 20.5312 54.6797 20.9999 54.1875 21.1757L30.4336 29.9296C30.293 29.9765 30.1523 29.9999 30 29.9999Z" fill="white"/>
<path d="M30.0003 59.9998C29.8479 59.9998 29.7073 59.9763 29.5667 59.9177L16.2893 55.0427C15.6448 54.8084 15.305 54.0935 15.551 53.4373C15.7854 52.7927 16.512 52.4529 17.1565 52.699L30.0003 57.4216L42.844 52.699C43.4885 52.4646 44.2034 52.7927 44.4495 53.4373C44.6838 54.0818 44.3557 54.7967 43.7112 55.0427L30.4339 59.9177C30.2932 59.9763 30.1526 59.9998 30.0003 59.9998Z" fill="white"/>
<path d="M6.24609 44.4023C5.55469 44.4023 4.99219 43.8398 4.99219 43.1484V20.0039C4.99219 19.3125 5.55469 18.75 6.24609 18.75C6.9375 18.75 7.5 19.3125 7.5 20.0039V43.1484C7.5 43.8398 6.9375 44.4023 6.24609 44.4023Z" fill="white"/>
<path d="M53.7539 44.4023C53.0625 44.4023 52.5 43.8398 52.5 43.1484V20.0039C52.5 19.3125 53.0625 18.75 53.7539 18.75C54.4453 18.75 55.0078 19.3125 55.0078 20.0039V43.1484C54.9961 43.8398 54.4453 44.4023 53.7539 44.4023Z" fill="white"/>
<path d="M30 20.0039C29.3086 20.0039 28.7461 19.4414 28.7461 18.75V8.75391C28.7461 8.0625 29.3086 7.5 30 7.5C30.6914 7.5 31.2539 8.0625 31.2539 8.75391V18.75C31.2539 19.4414 30.6914 20.0039 30 20.0039Z" fill="white"/>
<path d="M52.3477 53.6016C52.0313 53.6016 51.7031 53.4844 51.457 53.2383L45.3516 47.1328C44.8594 46.6406 44.8594 45.8555 45.3516 45.3633C45.8438 44.8711 46.6289 44.8711 47.1211 45.3633L53.2266 51.4688C53.7188 51.9609 53.7188 52.7461 53.2266 53.2383C52.9922 53.4727 52.6758 53.6016 52.3477 53.6016Z" fill="white"/>
<path d="M7.65234 53.6016C7.33594 53.6016 7.00781 53.4844 6.76172 53.2383C6.26953 52.7461 6.26953 51.9609 6.76172 51.4688L12.8672 45.3633C13.3594 44.8711 14.1445 44.8711 14.6367 45.3633C15.1289 45.8555 15.1289 46.6406 14.6367 47.1328L8.53125 53.2383C8.28516 53.4727 7.96875 53.6016 7.65234 53.6016Z" fill="white"/>
<path d="M30 60C29.3086 60 28.7461 59.4375 28.7461 58.7461V28.7461C28.7461 28.0547 29.3086 27.4922 30 27.4922C30.6914 27.4922 31.2539 28.0547 31.2539 28.7461V58.7461C31.2539 59.4375 30.6914 60 30 60Z" fill="white"/>
<path d="M30 9.99609C27.2461 9.99609 24.9961 7.75781 24.9961 4.99219C24.9961 2.22656 27.2461 0 30 0C32.7539 0 35.0039 2.23828 35.0039 5.00391C35.0039 7.76953 32.7539 9.99609 30 9.99609ZM30 2.49609C28.6172 2.49609 27.5039 3.62109 27.5039 4.99219C27.5039 6.36328 28.6172 7.5 30 7.5C31.3828 7.5 32.4961 6.375 32.4961 5.00391C32.4961 3.63281 31.3828 2.49609 30 2.49609Z" fill="white"/>
<path d="M54.9961 60C52.2422 60 49.9922 57.7617 49.9922 54.9961C49.9922 52.2305 52.2305 49.9922 54.9961 49.9922C57.7617 49.9922 60 52.2305 60 54.9961C60 57.7617 57.7617 60 54.9961 60ZM54.9961 52.5C53.6133 52.5 52.5 53.625 52.5 54.9961C52.5 56.3672 53.625 57.4922 54.9961 57.4922C56.3672 57.4922 57.4922 56.3672 57.4922 54.9961C57.4922 53.625 56.3789 52.5 54.9961 52.5Z" fill="white"/>
<path d="M5.00391 60C2.23828 60 0 57.7617 0 54.9961C0 52.2305 2.23828 49.9922 5.00391 49.9922C7.76953 49.9922 10.0078 52.2305 10.0078 54.9961C10.0078 57.7617 7.75781 60 5.00391 60ZM5.00391 52.5C3.62109 52.5 2.50781 53.625 2.50781 54.9961C2.50781 56.3672 3.63281 57.4922 5.00391 57.4922C6.375 57.4922 7.5 56.3789 7.5 54.9961C7.5 53.6133 6.375 52.5 5.00391 52.5Z" fill="white"/>
</g>
<defs>
<clipPath id="clip0">
<rect width="60" height="60" fill="white"/>
</clipPath>
</defs>
</svg>
