<svg width="78" height="49" viewBox="0 0 78 49" fill="none" xmlns="http://www.w3.org/2000/svg">
<g clip-path="url(#clip0)">
<path d="M52.4375 27.6111L45.7953 24.7094C45.3231 24.5 45.0184 24.0513 45.0184 23.5427V21.7479C47.2426 19.9979 48.6746 17.3205 48.6746 14.2991V11.7863C49.4059 11.3825 49.8934 10.6197 49.8934 9.75214V9.51282C49.9086 4.26282 45.5668 0 40.2195 0H37.782C32.4348 0 28.093 4.26282 28.093 9.51282V11.7265C28.093 12.4893 28.4281 13.1774 29.007 13.6111C29.0984 13.6859 29.2051 13.7457 29.3117 13.8056V14.2991C29.3117 17.3056 30.7438 19.9979 32.968 21.7479V23.5427C32.968 24.0513 32.6633 24.5 32.191 24.7094L25.5488 27.6111C23.3703 28.5534 21.9688 30.6774 21.9688 33.0256V47.8932C21.9688 48.5064 22.4867 49.015 23.1113 49.015C23.7359 49.015 24.2539 48.5064 24.2539 47.8932V33.0256C24.2539 32.891 24.2691 32.7714 24.2844 32.6368L27.3465 35.6432C27.8188 36.1068 28.0777 36.735 28.0777 37.3932V47.8932C28.0777 48.5064 28.5957 49.015 29.2203 49.015C29.8449 49.015 30.3629 48.5064 30.3629 47.8932V37.3932C30.3629 36.1368 29.8602 34.9551 28.9613 34.0577L25.3203 30.4829C25.6555 30.1538 26.0363 29.8697 26.4934 29.6752L33.0137 26.8333L37.8582 31.5897V47.9081C37.8582 48.5214 38.3762 49.0299 39.0008 49.0299C39.6254 49.0299 40.1434 48.5214 40.1434 47.9081V31.5598L44.9879 26.8034L51.5082 29.6453C51.95 29.8397 52.3461 30.1239 52.6813 30.453L49.0402 34.0278C48.1262 34.9252 47.6387 36.1068 47.6387 37.3633V47.8633C47.6387 48.4765 48.1567 48.985 48.7813 48.985C49.4059 48.985 49.9238 48.4765 49.9238 47.8633V37.3633C49.9238 36.7051 50.1828 36.0769 50.6551 35.6133L53.7172 32.6068C53.7324 32.7415 53.7477 32.8611 53.7477 32.9957V47.8633C53.7477 48.4765 54.2656 48.985 54.8902 48.985C55.5149 48.985 56.0328 48.4765 56.0328 47.8633V32.9957C56.0176 30.6774 54.616 28.5534 52.4375 27.6111ZM39.0008 29.5107L34.7504 25.3376C35.0703 24.7991 35.2531 24.1859 35.2531 23.5427V23.0791C36.4109 23.5577 37.6754 23.812 39.0008 23.812C40.3262 23.812 41.5906 23.5427 42.7484 23.0791V23.5427C42.7484 24.1859 42.9313 24.7991 43.2512 25.3376L39.0008 29.5107ZM39.0008 21.5833C34.918 21.5833 31.5969 18.3226 31.5969 14.3141V13.8056C32.3129 13.5214 32.9984 13.0876 33.6688 12.4893C34.1258 12.0705 34.1563 11.3526 33.7297 10.9038C33.3031 10.4551 32.5719 10.4252 32.1148 10.844C31.5359 11.3675 30.9723 11.6966 30.4238 11.8312C30.4086 11.8312 30.3934 11.8312 30.3934 11.8312C30.3781 11.8162 30.3781 11.7863 30.3781 11.7265V9.51282C30.3781 5.50427 33.6992 2.24359 37.782 2.24359H40.2195C44.3024 2.24359 47.6234 5.50427 47.6234 9.51282V9.75214C47.6234 9.78205 47.6082 9.82692 47.5777 9.82692C40.7375 11.1581 37.3098 8.66026 36.152 7.5235C35.7102 7.08974 34.9789 7.08974 34.5371 7.5235C34.0953 7.95727 34.0953 8.67521 34.5371 9.10898C38.0867 12.594 43.2664 12.6538 46.4199 12.2799V14.3141C46.4047 18.3226 43.0836 21.5833 39.0008 21.5833Z" fill="white"/>
<path d="M20.5969 21.5084V19.1153C20.5969 16.1836 19.043 13.611 16.7121 12.1302C16.8492 11.6815 16.9254 11.2029 16.9254 10.7242C16.9254 8.12167 14.7621 6.0127 12.1266 6.0127C9.49102 6.0127 7.32773 8.10671 7.32773 10.7093C7.32773 11.1879 7.40391 11.6665 7.54102 12.1153C5.21016 13.611 3.65625 16.1836 3.65625 19.1003V21.4935C3.65625 24.3204 5.10352 26.8332 7.3125 28.3289V30.8119C7.3125 31.3054 7.03828 31.7392 6.59648 31.9486L2.65078 33.8931C1.0207 34.7007 0 36.3161 0 38.111V47.8781C0 48.4913 0.517969 48.9999 1.14258 48.9999C1.76719 48.9999 2.28516 48.4913 2.28516 47.8781V38.5896L4.14375 40.4144C4.61602 40.8781 4.875 41.5063 4.875 42.1644V47.8631C4.875 48.4764 5.39297 48.9849 6.01758 48.9849C6.64219 48.9849 7.16016 48.4764 7.16016 47.8631V42.1794C7.16016 40.923 6.65742 39.7413 5.75859 38.8439L3.16875 36.3012C3.15352 36.2862 3.13828 36.2713 3.12305 36.2713C3.29063 36.1366 3.47344 36.002 3.67148 35.9123L7.61719 33.9678C7.81523 33.8631 8.01328 33.7435 8.18086 33.6238L10.9688 36.361V47.8931C10.9688 48.5063 11.4867 49.0149 12.1113 49.0149C12.7359 49.0149 13.2539 48.5063 13.2539 47.8931V36.361L16.0418 33.6238C16.2246 33.7584 16.4074 33.8781 16.6055 33.9678L17.7023 34.5063C17.8699 34.5811 18.0375 34.626 18.2051 34.626C18.6316 34.626 19.0277 34.4016 19.2258 34.0127C19.5152 33.4593 19.2867 32.7862 18.7078 32.502L17.6109 31.9636C17.1691 31.7392 16.8949 31.3054 16.8949 30.8268V28.3589C19.1496 26.8482 20.5969 24.3354 20.5969 21.5084ZM12.1266 8.24133C13.5129 8.24133 14.6402 9.34817 14.6402 10.7093C14.6402 10.8589 14.625 11.0084 14.5945 11.158C13.8023 10.9187 12.9797 10.799 12.1113 10.799C11.243 10.799 10.4203 10.9336 9.62813 11.158C9.59766 11.0084 9.58242 10.8738 9.58242 10.7242C9.61289 9.34817 10.7402 8.24133 12.1266 8.24133ZM12.1266 13.0277C15.5391 13.0277 18.3117 15.7499 18.3117 19.1003V19.5042C13.5586 20.9401 10.725 17.3952 10.6031 17.2306C10.4051 16.9764 10.1004 16.8118 9.76523 16.7819C9.43008 16.752 9.11016 16.8717 8.88164 17.111C7.78477 18.1879 6.71836 18.6965 5.95664 18.9507C6.03281 15.6751 8.775 13.0277 12.1266 13.0277ZM12.1266 34.3119L9.49102 31.7093C9.56719 31.4251 9.61289 31.111 9.61289 30.8119V29.4358C10.4051 29.6751 11.2582 29.8097 12.1266 29.8097C12.9949 29.8097 13.848 29.6751 14.6402 29.4358V30.8119C14.6402 31.126 14.6859 31.4251 14.7621 31.7093L12.1266 34.3119ZM12.1266 27.5811C8.71406 27.5811 5.94141 24.8589 5.94141 21.5084V21.2691C6.85547 21.0597 8.19609 20.5811 9.61289 19.4742C10.1156 19.9379 10.8316 20.5063 11.7305 20.9849C12.7969 21.5533 14.2898 22.0918 16.1027 22.0918C16.7883 22.0918 17.5195 22.017 18.3117 21.8375C18.1289 25.0383 15.4324 27.5811 12.1266 27.5811Z" fill="white"/>
<path d="M75.35 31.4998L68.9516 28.3588C68.5098 28.1344 68.2355 27.7006 68.2355 27.222V25.6365C69.7285 24.3352 70.673 22.4357 70.673 20.3117V19.0404C70.7035 19.0404 70.7187 19.0404 70.7492 19.0404C71.3738 19.0404 71.8918 18.5318 71.8918 17.9186V15.5254C71.8918 11.6066 68.6469 8.40576 64.6402 8.40576H62.2027C58.2113 8.40576 54.9512 11.5917 54.9512 15.5254V17.9186C54.9512 18.5318 55.4691 19.0404 56.0937 19.0404C56.109 19.0404 56.1242 19.0404 56.1699 19.0404V20.3117C56.1699 22.4207 57.1145 24.3352 58.6074 25.6365V27.222C58.6074 27.7156 58.3332 28.1494 57.8914 28.3588C57.3277 28.6429 57.0992 29.316 57.3734 29.8694C57.5715 30.2583 57.9828 30.4827 58.3941 30.4827C58.5617 30.4827 58.7445 30.4378 58.8969 30.363C59.0949 30.2583 59.293 30.1387 59.4605 30.019L62.2484 32.7562V47.878C62.2484 48.4912 62.7664 48.9998 63.391 48.9998C64.0156 48.9998 64.5336 48.4912 64.5336 47.878V32.7562L67.3215 30.019C67.5043 30.1536 67.6871 30.2733 67.8852 30.363L74.0703 33.3994L72.1965 35.2391C71.2824 36.1365 70.7949 37.3182 70.7949 38.5746V47.878C70.7949 48.4912 71.3129 48.9998 71.9375 48.9998C72.5621 48.9998 73.0801 48.4912 73.0801 47.878V38.5746C73.0801 37.9164 73.3391 37.2882 73.8113 36.8246L75.5937 35.0746C75.6547 35.284 75.6699 35.4934 75.6699 35.7028V47.863C75.6699 48.4763 76.1879 48.9848 76.8125 48.9848C77.4371 48.9848 77.9551 48.4763 77.9551 47.863V35.7028C78.0008 33.9229 76.9801 32.3075 75.35 31.4998ZM57.2363 16.5575V15.5105C57.2363 12.8182 59.4605 10.6344 62.2027 10.6344H64.6402C67.3824 10.6344 69.6066 12.8182 69.6066 15.5105V16.7519C64.6402 16.4827 61.6391 14.5981 61.6086 14.5682C61.4105 14.4485 61.1973 14.3737 60.9687 14.3737C60.6793 14.3737 60.3746 14.4784 60.1613 14.7028C59.0797 15.7947 58.0133 16.3032 57.2363 16.5575ZM63.4215 30.707L60.7859 28.1194C60.8621 27.8353 60.9078 27.5211 60.9078 27.222V26.9827C61.7 27.2669 62.5379 27.4314 63.4215 27.4314C64.3051 27.4314 65.1582 27.2669 65.9352 26.9827V27.222C65.9352 27.5361 65.9809 27.8353 66.057 28.1194L63.4215 30.707ZM63.4215 25.1729C60.6793 25.1729 58.4551 22.9891 58.4551 20.2968V18.487C59.2625 18.1729 60.1918 17.6793 61.1363 16.8865C62.3398 17.4998 64.8535 18.5617 68.3879 18.9058V20.2968C68.3879 22.9891 66.1637 25.1729 63.4215 25.1729Z" fill="white"/>
</g>
<defs>
<clipPath id="clip0">
<rect width="78" height="49" fill="white"/>
</clipPath>
</defs>
</svg>
