<svg width="47" height="59" viewBox="0 0 47 59" fill="none" xmlns="http://www.w3.org/2000/svg">
<path d="M23.5 34.7138C32.5962 34.7138 40 27.124 40 17.7939C40 8.4638 32.5962 0.874023 23.5 0.874023C14.4038 0.874023 7 8.4638 7 17.7939C7 27.124 14.4038 34.7138 23.5 34.7138ZM23.5 3.29115C31.2998 3.29115 37.6429 9.79806 37.6429 17.7939C37.6429 25.7898 31.2998 32.2967 23.5 32.2967C15.7002 32.2967 9.35714 25.7922 9.35714 17.7939C9.35714 9.79564 15.7002 3.29115 23.5 3.29115Z" fill="white"/>
<path d="M18.3623 27.5347C18.5594 27.5347 18.7566 27.4834 18.9371 27.3833L23.5 24.7893L28.0629 27.3833C28.462 27.6104 28.9513 27.5811 29.3218 27.3125C29.6924 27.0438 29.8824 26.5797 29.8087 26.118L28.9251 20.5392L32.6615 16.5993C32.9726 16.272 33.0795 15.7933 32.9394 15.3585C32.7968 14.9237 32.431 14.6086 31.9916 14.5402L26.8753 13.7342L24.5736 8.69757C24.1841 7.83779 22.8159 7.83779 22.4264 8.69757L20.1247 13.7342L15.0084 14.5402C14.5666 14.6086 14.2008 14.9261 14.0606 15.3585C13.9205 15.7933 14.0274 16.272 14.3385 16.5993L18.0749 20.5392L17.1913 26.118C17.1176 26.5797 17.3076 27.0438 17.6782 27.3125C17.8825 27.4615 18.12 27.5347 18.3623 27.5347ZM23.5 22.1733C23.3029 22.1733 23.1033 22.2246 22.9252 22.3247L19.9276 24.0296L20.5143 20.3242C20.5737 19.9408 20.4573 19.5524 20.1912 19.2739L17.6497 16.5944L21.1081 16.0497C21.5 15.9911 21.8373 15.7322 22.0036 15.3634L23.5 12.0903L24.9964 15.3634C25.1627 15.7322 25.5 15.9911 25.8919 16.0522L29.3503 16.5944L26.8088 19.2739C26.5451 19.5499 26.4263 19.9408 26.4857 20.3242L27.0724 24.0296L24.0748 22.3247C23.8967 22.2246 23.6971 22.1733 23.5 22.1733Z" fill="white"/>
<path d="M33.4264 58.2991C33.4407 58.2991 33.4526 58.2991 33.4669 58.2991C33.9082 58.2846 34.3042 58.0261 34.4974 57.6252L37.9373 50.5478L45.7305 51.0503C46.1742 51.0623 46.5869 50.8594 46.8207 50.4826C47.0545 50.1058 47.0592 49.6275 46.8374 49.2411L34.8147 28.1395C34.4879 27.5622 33.7603 27.3642 33.1854 27.6975C32.6153 28.0308 32.4197 28.77 32.7489 29.3473L43.6576 48.4971L37.2932 48.0865C36.8161 48.0623 36.3581 48.3208 36.1482 48.758L33.3429 54.5309L24.2257 38.5647C23.8917 37.9874 23.1617 37.7942 22.5964 38.1227C22.0263 38.4584 21.8307 39.1951 22.1599 39.7748L32.3935 57.6976C32.6058 58.0696 33.0017 58.2991 33.4264 58.2991Z" fill="white"/>
<path d="M13.2551 58.2991C13.669 58.2991 14.055 58.0692 14.2619 57.6942L27.8476 33.1046C28.1662 32.5239 27.9685 31.786 27.4105 31.4545C26.8618 31.1278 26.1433 31.3287 25.8271 31.9094L22.2185 38.5364L13.3342 54.527L10.5743 48.7323C10.365 48.2968 9.9116 48.0379 9.4582 48.0621L3.25476 48.4734L13.855 29.3519C14.1759 28.7737 13.9852 28.0333 13.4272 27.6994C12.8715 27.3631 12.16 27.5615 11.8368 28.1422L0.155367 49.221C-0.0585442 49.6081 -0.0515671 50.0848 0.176296 50.4647C0.404158 50.8445 0.806402 51.0502 1.23888 51.0332L8.83739 50.5276L12.2135 57.6216C12.4041 58.0208 12.7901 58.2773 13.2203 58.2918C13.2296 58.2991 13.2435 58.2991 13.2551 58.2991Z" fill="white"/>
</svg>
