<svg width="58" height="63" viewBox="0 0 58 63" fill="none" xmlns="http://www.w3.org/2000/svg">
<g clip-path="url(#clip0)">
<path d="M26.7177 0C25.3771 0 24.1321 0.57913 22.9351 1.12696C21.8977 1.61217 20.9241 2.05043 20.0623 2.05043C19.1844 2.05043 18.2108 1.59652 17.1894 1.12696C15.9924 0.57913 14.7474 0 13.4068 0C8.33138 0 4.64453 5.35304 4.64453 12.7096C4.64453 16.8417 7.07051 40.5391 13.4068 40.5391C15.5295 40.5391 16.1998 37.2209 17.2213 32.1965C17.7001 29.8643 18.961 23.6348 20.0463 23.6348C21.5944 23.6348 22.6478 29.5513 23.2224 32.713C24.0683 37.4243 24.6269 40.5391 26.7018 40.5391C33.038 40.5391 35.464 16.8417 35.464 12.7096C35.48 5.35304 31.7931 0 26.7177 0ZM26.8614 38.4574C26.2868 37.7687 25.6963 34.5287 25.3132 32.353C24.3556 27.047 23.382 21.5687 20.0623 21.5687C17.2373 21.5687 16.2796 26.2957 15.1624 31.7739C14.6676 34.1687 13.9335 37.7687 13.2791 38.4574C10.3105 37.9878 6.7513 21.0991 6.7513 12.7096C6.7513 6.63652 9.60821 2.06609 13.4068 2.06609C14.2846 2.06609 15.2582 2.52 16.2796 2.98957C17.4767 3.53739 18.7056 4.11652 20.0623 4.11652C21.4029 4.11652 22.6478 3.53739 23.8449 2.98957C24.8823 2.50435 25.8559 2.06609 26.7177 2.06609C30.5163 2.06609 33.3732 6.63652 33.3732 12.7096C33.3732 21.0835 29.83 37.9252 26.8614 38.4574Z" fill="white"/>
<path d="M14.6199 3.17725C11.0129 3.17725 8.07617 6.05725 8.07617 9.59464C8.07617 10.1894 8.57094 10.659 9.16148 10.659C9.76797 10.659 10.2468 10.1738 10.2468 9.59464C10.2468 7.23116 12.1939 5.32159 14.604 5.32159C15.2105 5.32159 15.6893 4.83638 15.6893 4.25725C15.6893 3.67812 15.2105 3.17725 14.6199 3.17725Z" fill="white"/>
<path d="M19.0561 50.1494L15.9917 45.1407C15.4331 44.2328 14.5233 43.6068 13.47 43.3876C12.4166 43.1685 11.3472 43.4033 10.4534 44.045C8.88933 45.172 8.47436 47.3946 9.52775 49.1007L10.9642 51.4328C11.1717 51.7615 11.5228 51.9494 11.9058 51.9494C12.0974 51.9494 12.2889 51.9024 12.4645 51.7928C12.9752 51.4955 13.1508 50.8381 12.8315 50.3215L11.3951 47.9894C10.9163 47.2224 11.0759 46.2363 11.7462 45.7511C12.1293 45.4694 12.5921 45.3755 13.039 45.4694C13.5019 45.5633 13.8849 45.8294 14.1243 46.2207L17.1887 51.2294C17.492 51.7302 18.1623 51.9024 18.689 51.5894C19.1997 51.3076 19.3753 50.6502 19.0561 50.1494Z" fill="white"/>
<path d="M49.2689 57.4589C49.1571 56.8798 48.5985 56.5041 47.992 56.6137C27.8341 60.3859 23.2215 57.8346 23.2056 57.8346C23.0619 57.7406 22.8864 57.6624 22.7108 57.6467L10.2138 56.0502L2.76032 52.1998C2.50495 52.0589 2.31343 51.8398 2.23363 51.5737C2.15383 51.3076 2.18575 51.0259 2.31343 50.7911L2.87204 49.805C3.15933 49.2885 3.86159 49.085 4.40424 49.3511L10.0063 52.1841C10.1659 52.2624 10.3415 52.2937 10.533 52.3093L21.817 52.1059C22.0085 52.1059 22.2001 52.0433 22.3756 51.9493L25.8071 49.8833C26.1423 49.6798 26.3498 49.3041 26.3178 48.9128C26.3019 48.5215 26.0625 48.1772 25.6954 48.005C23.3811 46.9406 19.9975 44.7963 19.6783 43.4033C19.6464 43.2311 19.6464 43.0902 19.822 42.8867C20.4604 42.1354 26.5892 43.4189 36.5325 48.6937C36.6921 48.772 36.8676 48.8189 37.0432 48.8189L48.2314 48.8502C48.8379 48.8502 49.3167 48.3806 49.3167 47.7859C49.3167 47.1911 48.8379 46.7215 48.2314 46.7215L37.3145 46.6902C32.2232 44.0137 20.7157 38.4572 18.1302 41.5407C17.5556 42.2293 17.3481 43.0276 17.5556 43.8885C18.0344 45.9859 21.003 47.9424 23.03 49.0693L21.4978 49.9928L10.7884 50.1806L5.4257 47.4728C3.82966 46.6746 1.83462 47.2537 0.988718 48.8033L0.398184 49.7737C-0.0167858 50.525 -0.112548 51.3859 0.142818 52.1998C0.398184 53.0137 0.956797 53.7024 1.73886 54.0937L9.36791 58.038C9.47964 58.1006 9.60732 58.1319 9.735 58.1476L22.216 59.7285C22.9342 60.0885 24.9772 60.8241 29.8451 60.8241C33.8511 60.8241 39.7565 60.3232 48.391 58.7111C48.9975 58.6015 49.3806 58.038 49.2689 57.4589Z" fill="white"/>
<path d="M56.9149 42.6992H48.2005C47.594 42.6992 47.1152 43.1844 47.1152 43.7636V61.9357C47.1152 62.5305 47.61 63.0001 48.2005 63.0001H56.9149C57.5214 63.0001 58.0002 62.5149 58.0002 61.9357V43.7792C58.0002 43.1844 57.5214 42.6992 56.9149 42.6992ZM55.8296 60.8714H49.2858V44.8436H55.8296V60.8714Z" fill="white"/>
</g>
<defs>
<clipPath id="clip0">
<rect width="58" height="63" fill="white"/>
</clipPath>
</defs>
</svg>
