<svg width="62" height="62" viewBox="0 0 62 62" fill="none" xmlns="http://www.w3.org/2000/svg">
<path d="M62 30.6124C62 30.5155 62 30.4187 61.9879 30.3097C61.9879 30.237 61.9879 30.1765 61.9879 30.1038C61.9879 29.9464 61.9758 29.8011 61.9758 29.6437C61.9758 29.5589 61.9637 29.4741 61.9637 29.4015C61.9516 29.0624 61.9273 28.7233 61.891 28.3843C61.891 28.3601 61.891 28.3479 61.891 28.3237C61.4672 23.371 59.8809 18.6483 57.2531 14.4948C57.1684 14.3616 57.0836 14.2284 56.9988 14.1073C56.9383 14.0226 56.8898 13.9378 56.8293 13.853C56.7687 13.7683 56.7203 13.6835 56.6598 13.5987C56.6234 13.5382 56.575 13.4776 56.5387 13.4171C56.466 13.3081 56.3812 13.1991 56.3086 13.0901C56.2844 13.0538 56.2602 13.0175 56.2359 12.9812C56.1754 12.9085 56.127 12.8237 56.0664 12.739C56.0059 12.6542 55.9453 12.5694 55.8727 12.4847C55.8484 12.4483 55.8121 12.3999 55.7758 12.3636C55.6668 12.2183 55.5578 12.0851 55.4488 11.9397C55.2551 11.6976 55.0734 11.4554 54.8676 11.2253C54.7949 11.1405 54.7344 11.0679 54.6617 10.9831C54.4437 10.7288 54.2137 10.4624 53.9836 10.2081C53.8988 10.1112 53.8141 10.0265 53.7293 9.92959C53.6445 9.83272 53.5477 9.73584 53.4629 9.65107C53.3781 9.5542 53.2812 9.46943 53.1965 9.37256C53.1117 9.27568 53.0148 9.19092 52.9301 9.09404C52.9301 9.09404 52.9301 9.09404 52.918 9.08193C52.7969 8.96084 52.6758 8.83975 52.5547 8.71865C52.5426 8.70654 52.5426 8.70654 52.5305 8.69443C52.4094 8.57334 52.2883 8.46436 52.1672 8.34326L52.1551 8.33115C52.0219 8.21006 51.9008 8.08897 51.7676 7.96787C51.6344 7.84678 51.5012 7.72568 51.368 7.6167C51.1379 7.42295 50.9078 7.21709 50.6777 7.02334C50.6656 7.01123 50.6535 7.01123 50.6535 6.99912C50.5324 6.90225 50.4234 6.80537 50.3023 6.72061C50.2055 6.63584 50.1086 6.56318 50.0117 6.49053C49.9754 6.46631 49.9512 6.44209 49.9148 6.41787C49.8059 6.33311 49.6848 6.24834 49.5758 6.16357C49.2609 5.92139 48.9461 5.70342 48.6191 5.47334C48.5223 5.40068 48.4254 5.34014 48.3285 5.27959C45.5312 3.40264 42.5039 2.01006 39.307 1.12607C39.198 1.08975 39.077 1.06553 38.968 1.0292C38.859 0.992871 38.7379 0.968652 38.6168 0.944434C38.5078 0.920215 38.3867 0.883887 38.2656 0.859668C38.1566 0.835449 38.0598 0.81123 37.9508 0.787012C37.6359 0.714355 37.3211 0.641699 37.0063 0.581152C36.8973 0.556934 36.8004 0.544824 36.6914 0.520606C36.5824 0.496387 36.4855 0.484277 36.3766 0.460059C36.1707 0.42373 35.9527 0.387402 35.7469 0.351074C35.5773 0.326855 35.4078 0.302637 35.2383 0.278418C35.0687 0.254199 34.8992 0.22998 34.7297 0.217871C34.5602 0.193652 34.3906 0.181543 34.209 0.157324C34.0637 0.145215 33.9062 0.133105 33.7488 0.108887C33.4461 0.084668 33.1434 0.0604492 32.8285 0.0483398C32.6953 0.0362305 32.55 0.0362305 32.4168 0.0241211C32.3078 0.0241211 32.1988 0.0120117 32.0898 0.0120117C32.0051 0.0120117 31.9082 0.0120117 31.8234 -9.76557e-05C31.7023 -9.76557e-05 31.5691 -9.76557e-05 31.4359 -0.012207C31.2906 -0.012207 31.1453 -0.012207 30.9879 -0.012207C30.8547 -0.012207 30.7336 -0.012207 30.6004 -0.012207C30.5035 -0.012207 30.4066 -0.012207 30.2977 -9.76557e-05C30.225 -9.76557e-05 30.1645 -9.76557e-05 30.0918 -9.76557e-05C30.007 -9.76557e-05 29.9102 -9.76557e-05 29.8254 0.0120117C29.7164 0.0120117 29.5953 0.0241211 29.4863 0.0241211C29.1109 0.0362305 28.7355 0.0604492 28.3723 0.0967773C23.1895 0.532715 18.2609 2.24014 13.9621 5.07373C13.7926 5.18271 13.6352 5.2917 13.4656 5.41279C13.3809 5.47334 13.2961 5.52178 13.2234 5.58232C13.0902 5.6792 12.957 5.76396 12.8359 5.86084C12.7027 5.95772 12.5816 6.04248 12.4484 6.13936C12.3395 6.22412 12.2305 6.29678 12.1215 6.38154C11.9762 6.49053 11.843 6.59951 11.6977 6.7085L11.6855 6.72061C11.4434 6.91436 11.2012 7.12021 10.959 7.32607C10.8742 7.39873 10.8016 7.45928 10.7168 7.53193C10.4746 7.73779 10.2324 7.95576 10.0023 8.17373C9.92969 8.24639 9.84492 8.31904 9.77227 8.3917C9.69961 8.46436 9.62695 8.5249 9.5543 8.59756C9.53008 8.60967 9.51797 8.63389 9.49375 8.646C9.4332 8.70654 9.36055 8.76709 9.3 8.83975C9.22734 8.9124 9.14258 8.98506 9.06992 9.06982C3.22109 14.9308 0 22.7171 0 30.9999C0 31.1452 0 31.3026 0 31.448C0 31.569 0 31.7022 0.0121094 31.8354C0.0121094 31.9202 0.0121094 32.0171 0.0242188 32.1019C0.0242188 32.2108 0.0363281 32.3198 0.0363281 32.4288C0.0363281 32.562 0.0484375 32.7073 0.0605469 32.8405C0.0726563 33.1433 0.096875 33.446 0.121094 33.7608C0.133203 33.9183 0.145313 34.0636 0.169531 34.221C0.205859 34.5601 0.242188 34.9112 0.290625 35.2503C0.314844 35.4198 0.339063 35.5894 0.363281 35.7589C0.3875 35.9284 0.411719 36.0979 0.448047 36.2675C0.472266 36.437 0.508594 36.6065 0.544922 36.7761C0.569141 36.9093 0.593359 37.0546 0.629687 37.1878C0.666016 37.3815 0.714453 37.5632 0.750781 37.7569C0.787109 37.9265 0.823437 38.096 0.871875 38.2655V38.2776V38.2897C1.73164 41.8741 3.22109 45.2647 5.30391 48.3284C5.43711 48.5343 5.58242 48.7401 5.72773 48.9339C5.80039 49.0429 5.88516 49.1519 5.96992 49.2608C6.05469 49.3698 6.12734 49.4788 6.21211 49.5878C6.29688 49.6968 6.38164 49.8058 6.4543 49.9147C6.55117 50.0358 6.64805 50.1569 6.74492 50.278C6.79336 50.3386 6.8418 50.3991 6.89023 50.4597C6.93867 50.5202 6.98711 50.5808 7.03555 50.6413C7.03555 50.6413 7.03555 50.6534 7.04766 50.6534C7.24141 50.8956 7.43516 51.1257 7.64102 51.3558C7.85898 51.5979 8.07695 51.8401 8.29492 52.0823C8.33125 52.1308 8.37969 52.1671 8.41602 52.2155C8.51289 52.3245 8.60977 52.4214 8.71875 52.5304L8.73086 52.5425C8.85195 52.6757 8.97305 52.7968 9.10625 52.9179C14.9672 58.7788 22.7414 61.9999 31.0242 61.9999C31.1695 61.9999 31.327 61.9999 31.4723 61.9999C31.6055 61.9999 31.7266 61.9999 31.8598 61.9878C31.9445 61.9878 32.0414 61.9878 32.1262 61.9757C32.2352 61.9757 32.3441 61.9636 32.4531 61.9636C32.5863 61.9636 32.7316 61.9515 32.8648 61.9394C33.1676 61.9272 33.4703 61.903 33.7852 61.8788C33.9426 61.8667 34.0879 61.8546 34.2453 61.8304C34.4148 61.8183 34.5965 61.794 34.766 61.7698C34.8023 61.7698 34.8508 61.7577 34.8871 61.7577C34.9961 61.7456 35.093 61.7335 35.202 61.7214C35.2141 61.7214 35.2383 61.7214 35.2504 61.7093C35.2625 61.7093 35.2625 61.7093 35.2746 61.7093C35.5289 61.673 35.7832 61.6366 36.0254 61.6003C36.1465 61.5761 36.2797 61.5519 36.4008 61.5397C36.4734 61.5276 36.534 61.5155 36.6066 61.5034C36.7035 61.4913 36.8004 61.4671 36.9094 61.4429C37.0184 61.4187 37.1273 61.3944 37.2363 61.3823C37.3453 61.3581 37.4664 61.3339 37.5754 61.3097C37.6965 61.2854 37.8055 61.2612 37.9145 61.237C37.9992 61.2128 38.0719 61.2007 38.1566 61.1765C38.2051 61.1644 38.2414 61.1522 38.2898 61.1401C38.4352 61.1038 38.5805 61.0675 38.7258 61.0312C38.8227 61.0069 38.9074 60.9827 38.9922 60.9585C39.0043 60.9585 39.0164 60.9585 39.0164 60.9464C39.198 60.8979 39.3918 60.8495 39.5734 60.789C39.743 60.7405 39.9004 60.6921 40.0578 60.6437C42.8793 59.7839 45.5555 58.5366 48.0258 56.9019C48.2316 56.7687 48.4375 56.6354 48.6313 56.4901C48.7281 56.4175 48.8371 56.3448 48.934 56.2722C49.152 56.1147 49.3699 55.9573 49.5879 55.7878C49.6969 55.703 49.8059 55.6304 49.9148 55.5456C50.0359 55.4487 50.157 55.3519 50.2781 55.2671C50.3992 55.1702 50.5203 55.0733 50.6414 54.9765C50.6414 54.9765 50.6535 54.9644 50.6656 54.9644C50.8957 54.7706 51.1379 54.5769 51.368 54.371C51.5012 54.2499 51.6344 54.1409 51.7676 54.0198C51.7797 54.0077 51.7918 53.9956 51.816 53.9835C51.9371 53.8745 52.0461 53.7655 52.1672 53.6565C52.3004 53.5354 52.4215 53.4144 52.5426 53.2933L52.5547 53.2812C52.6758 53.1601 52.809 53.039 52.9301 52.9058C53.0027 52.8331 53.0754 52.7605 53.1359 52.6878C53.1602 52.6636 53.1965 52.6272 53.2207 52.603C53.2812 52.5425 53.3539 52.4698 53.4145 52.3972C53.4508 52.3608 53.4871 52.3245 53.5113 52.2882C53.584 52.2155 53.6566 52.1308 53.7293 52.0581C53.8383 51.937 53.9473 51.828 54.0562 51.7069C54.1531 51.5979 54.25 51.489 54.3469 51.38C54.3711 51.3558 54.3953 51.3194 54.4195 51.2952C54.6375 51.0409 54.8555 50.7866 55.0734 50.5202C55.1703 50.4112 55.2551 50.3022 55.3398 50.1812C55.4125 50.0843 55.4973 49.9874 55.5699 49.8905C55.582 49.8663 55.6063 49.8421 55.6305 49.8179C55.7152 49.7089 55.8 49.5878 55.8848 49.4788C55.9574 49.3819 56.0301 49.2851 56.1027 49.1761C56.1027 49.1761 56.1027 49.1761 56.1027 49.164C56.1754 49.055 56.2602 48.9581 56.3328 48.8491C56.4055 48.7401 56.4781 48.6312 56.5508 48.5343C56.6113 48.4374 56.684 48.3405 56.7445 48.2437C56.8172 48.1347 56.8898 48.0378 56.9504 47.9288C57.023 47.8198 57.0836 47.7108 57.1562 47.6019C58.8516 44.9499 60.1109 42.0679 60.9223 39.0405C60.9586 38.9073 60.9949 38.762 61.0312 38.6288C61.0434 38.5683 61.0676 38.4956 61.0797 38.4351C61.0918 38.3745 61.1039 38.314 61.1281 38.2655C61.1645 38.1323 61.1887 37.9991 61.225 37.8538C61.2613 37.7085 61.2855 37.5632 61.3219 37.4058C61.3461 37.3089 61.3582 37.2241 61.3824 37.1272C61.4066 37.0183 61.4188 36.9093 61.443 36.8003C61.4914 36.5339 61.5398 36.2796 61.5762 36.0132C61.6004 35.8921 61.6125 35.7589 61.6367 35.6378C61.6852 35.3472 61.7215 35.0565 61.7578 34.7538C61.7578 34.7175 61.7699 34.669 61.7699 34.6327C61.782 34.4874 61.8063 34.3421 61.8184 34.1968C61.8305 34.0515 61.8426 33.894 61.8668 33.7366C61.8789 33.5913 61.891 33.446 61.9031 33.3007C61.9152 33.1675 61.9152 33.0464 61.9273 32.9132C61.9273 32.8405 61.9395 32.7558 61.9395 32.6831C61.9395 32.5983 61.9516 32.5136 61.9516 32.4288C61.9516 32.3198 61.9637 32.1987 61.9637 32.0897C61.9637 32.005 61.9637 31.9081 61.9758 31.8233C61.9758 31.6901 61.9758 31.569 61.9879 31.4358C61.9879 31.2905 61.9879 31.1331 61.9879 30.9878C62 30.8667 62 30.7456 62 30.6124ZM32.2109 2.446C32.2594 2.446 32.3199 2.446 32.3684 2.446C32.7074 2.45811 33.0465 2.48232 33.3855 2.50654C33.5066 2.51865 33.6277 2.53076 33.7609 2.54287C33.882 2.55498 34.0031 2.56709 34.1363 2.5792C39.5855 3.17256 44.6957 5.2917 48.9582 8.75498C49.0066 8.79131 49.0551 8.82764 49.1035 8.87607C49.2004 8.94873 49.2973 9.0335 49.3941 9.11826C49.5031 9.20303 49.6121 9.2999 49.709 9.38467C49.8059 9.46943 49.9148 9.56631 50.0117 9.65107L50.0238 9.66318C50.1328 9.76006 50.2297 9.84482 50.3266 9.9417L44.0297 16.2265C43.957 16.1659 43.8844 16.0933 43.8117 16.0327C43.7391 15.9722 43.6664 15.9116 43.5938 15.839C43.3637 15.6452 43.1457 15.4636 42.9156 15.294C42.843 15.2335 42.7582 15.1729 42.6855 15.1245C42.5281 15.0155 42.3707 14.8944 42.2133 14.7854C41.8984 14.5675 41.5715 14.3495 41.2445 14.1558C41.1598 14.1073 41.075 14.0589 40.9902 14.0104C40.9055 13.962 40.8207 13.9136 40.7359 13.8651C40.5664 13.7683 40.3969 13.6714 40.2273 13.5866C40.1426 13.5382 40.0578 13.4897 39.973 13.4534C39.8156 13.3687 39.6461 13.296 39.4887 13.2112C39.2707 13.1022 39.0648 13.0054 38.8469 12.9206C37.9023 12.5089 36.9336 12.1698 35.9285 11.9155C35.1414 11.7097 34.3422 11.5644 33.5309 11.4554C33.0949 11.3948 32.6469 11.3585 32.1988 11.3343V2.446H32.2109ZM29.8859 13.7683C29.8859 13.7683 29.898 13.7683 29.8859 13.7683C29.9223 13.7683 30.6852 13.7319 31 13.7319C31.327 13.7319 32.0777 13.7683 32.102 13.7683H32.1141C39.8156 14.2647 46.1609 19.823 47.832 27.1491C47.8563 27.2702 47.8805 27.3913 47.9047 27.5003C47.9289 27.6335 47.9531 27.7546 47.9773 27.8878C48.0016 27.9968 48.0137 28.1058 48.0379 28.2269C48.05 28.2632 48.05 28.2995 48.05 28.3358C48.0863 28.5659 48.1105 28.7839 48.1469 29.014C48.1469 29.0503 48.159 29.0987 48.159 29.1351C48.1711 29.2319 48.1832 29.3409 48.1953 29.4378C48.2074 29.5347 48.2074 29.6315 48.2195 29.7163C48.2195 29.7647 48.2316 29.8132 48.2316 29.8616C48.2316 29.8737 48.2316 29.8858 48.2316 29.8979C48.2316 29.9101 48.2316 29.9101 48.2316 29.9222C48.2437 30.0796 48.2559 30.5034 48.2559 30.794C48.2559 30.8183 48.2559 30.8425 48.2559 30.8667C48.2559 30.903 48.2559 30.9394 48.2559 30.9636V31.012C48.2559 31.1089 48.2559 31.2058 48.2559 31.2905C48.2559 31.3995 48.2559 31.4964 48.2437 31.6054C48.2437 31.6296 48.2437 31.6659 48.2437 31.6901C48.2437 31.7749 48.2316 31.8597 48.2316 31.9323C48.2316 32.005 48.2195 32.0776 48.2195 32.1503C48.2074 32.2956 48.1953 32.4288 48.1832 32.5741C47.7836 36.7882 45.8461 40.6995 42.7703 43.5815V42.7218C42.7703 38.871 40.2395 35.5894 36.752 34.4753C38.8953 32.78 40.2637 30.1522 40.2637 27.2097C40.2637 22.0995 36.098 17.9339 30.9879 17.9339C25.8777 17.9339 21.7121 22.0995 21.7121 27.2097C21.7121 30.1522 23.0805 32.7679 25.2238 34.4753C21.7363 35.5894 19.2055 38.871 19.2055 42.7218V43.5815C15.9723 40.5542 13.9984 36.3886 13.7441 31.9444C13.7199 31.6175 13.7199 31.2905 13.7199 30.9636C13.7199 30.6487 13.7562 29.8858 13.7562 29.8616V29.8495C14.3133 21.2519 21.252 14.3132 29.8859 13.7683ZM31 34.0999C27.2219 34.0999 24.1461 31.0241 24.1461 27.246C24.1461 23.4679 27.2219 20.3921 31 20.3921C34.7781 20.3921 37.8539 23.4679 37.8539 27.246C37.8539 31.0241 34.7781 34.0999 31 34.0999ZM12.0125 9.65107C12.1578 9.51787 12.3152 9.38467 12.4727 9.25146C12.5938 9.15459 12.7148 9.04561 12.8359 8.94873C12.848 8.93662 12.8602 8.93662 12.8723 8.92451C12.9934 8.82764 13.1145 8.73076 13.2355 8.62178C13.3324 8.53701 13.4414 8.46435 13.5504 8.37959C13.6473 8.30693 13.7441 8.23428 13.841 8.14951C13.9258 8.07686 14.0227 8.01631 14.1074 7.94365C15.4637 6.95068 16.9047 6.07881 18.4184 5.32803C18.4547 5.30381 18.491 5.2917 18.5395 5.26748C21.6516 3.75381 25.0301 2.82139 28.5418 2.51865C28.566 2.51865 28.6023 2.51865 28.6266 2.51865C28.7113 2.50654 28.8082 2.50654 28.893 2.49443C28.9898 2.48232 29.0988 2.48232 29.1957 2.47021C29.4016 2.45811 29.5953 2.446 29.8012 2.43389V11.3343C29.777 11.3343 29.7648 11.3343 29.7406 11.3343C29.668 11.3343 29.5953 11.3464 29.5348 11.3464C29.4016 11.3585 29.2563 11.3706 29.123 11.3827C28.9898 11.3948 28.8566 11.4069 28.7113 11.419H28.6992C28.5902 11.4312 28.4691 11.4433 28.3602 11.4675C28.3238 11.4675 28.2875 11.4796 28.2512 11.4796C28.1785 11.4917 28.0938 11.5038 28.0211 11.5159C27.9484 11.528 27.8758 11.5401 27.8031 11.5522C27.7426 11.5644 27.6941 11.5644 27.6457 11.5765C27.573 11.5886 27.5004 11.6007 27.4277 11.6128C27.343 11.6249 27.2461 11.6491 27.1613 11.6612C27.1129 11.6733 27.0766 11.6733 27.0281 11.6854C26.9555 11.6976 26.8707 11.7218 26.798 11.7339C26.7254 11.746 26.6527 11.7581 26.5801 11.7823C26.5438 11.7944 26.5074 11.7944 26.4711 11.8065C26.3863 11.8308 26.3016 11.8429 26.2289 11.8671C26.1441 11.8913 26.0715 11.9034 25.9867 11.9276C25.8898 11.9519 25.7809 11.9761 25.684 12.0124C25.5871 12.0366 25.4902 12.0729 25.3934 12.0972C25.3813 12.0972 25.3691 12.0972 25.357 12.1093C25.248 12.1456 25.1391 12.1698 25.0301 12.2062C24.909 12.2425 24.7879 12.2909 24.6668 12.3272C24.5699 12.3515 24.4852 12.3878 24.4004 12.4241C24.3641 12.4362 24.3277 12.4483 24.2914 12.4604C24.2188 12.4847 24.134 12.521 24.0613 12.5452C23.7586 12.6542 23.468 12.7753 23.1652 12.9085C23.0805 12.9448 23.0078 12.9812 22.923 13.0175C22.693 13.1144 22.475 13.2233 22.2449 13.3323C22.1602 13.3687 22.0875 13.4171 22.0027 13.4534C21.0461 13.9499 20.1258 14.519 19.2539 15.1729C19.0359 15.3425 18.818 15.512 18.6 15.6815C18.491 15.7663 18.382 15.8632 18.273 15.9479C18.1641 16.0327 18.0672 16.1296 17.9582 16.2144L11.6613 9.92959C11.7824 9.84482 11.8914 9.74795 12.0125 9.65107ZM2.47031 29.244C2.47031 29.1593 2.48242 29.0624 2.48242 28.9776C2.48242 28.9171 2.49453 28.8444 2.49453 28.7718C2.49453 28.687 2.50664 28.6022 2.51875 28.5175C2.54297 28.3116 2.55508 28.0937 2.5793 27.8878C2.61562 27.5487 2.66406 27.2097 2.7125 26.8706C2.73672 26.689 2.76094 26.5073 2.79727 26.3257C2.83359 26.1077 2.86992 25.8776 2.91836 25.6597C2.94258 25.5507 2.95469 25.4417 2.97891 25.3327C3.03945 25.0421 3.1 24.7636 3.16055 24.4851C3.18477 24.4003 3.19688 24.3155 3.22109 24.2308C3.24531 24.146 3.25742 24.0612 3.28164 23.9765C3.30586 23.8917 3.31797 23.8069 3.34219 23.7343C3.36641 23.6495 3.39062 23.5647 3.41484 23.48C3.43906 23.4073 3.45117 23.3347 3.47539 23.262C3.49961 23.1772 3.52383 23.1046 3.54805 23.0198C3.57227 22.9351 3.59648 22.8624 3.6207 22.7776C3.64492 22.705 3.66914 22.6323 3.69336 22.5476C3.76602 22.2933 3.85078 22.039 3.93555 21.7968C3.99609 21.6151 4.05664 21.4335 4.1293 21.264C4.17773 21.1429 4.21406 21.0339 4.2625 20.9128C4.29883 20.8038 4.33516 20.7069 4.38359 20.6101C4.41992 20.5132 4.46836 20.4042 4.50469 20.3073C4.54102 20.2104 4.58945 20.1015 4.62578 20.0046C4.67422 19.9077 4.71055 19.7987 4.75898 19.7019C4.80742 19.5929 4.85586 19.496 4.9043 19.387C5.02539 19.1085 5.15859 18.83 5.2918 18.5515C5.58242 17.946 5.89727 17.3526 6.23633 16.7593C6.28477 16.6745 6.3332 16.5897 6.38164 16.505C6.50273 16.2991 6.62383 16.1054 6.74492 15.9116C6.80547 15.8147 6.86602 15.73 6.92656 15.6331C7.03555 15.4636 7.14453 15.3062 7.25352 15.1366C7.27773 15.1124 7.28984 15.0761 7.31406 15.0519C7.37461 14.9671 7.42305 14.8823 7.48359 14.8097C7.54414 14.7128 7.60469 14.628 7.67734 14.5433C7.73789 14.4464 7.81055 14.3616 7.87109 14.2769C7.93164 14.1921 8.0043 14.0952 8.06484 14.0104C8.12539 13.9257 8.19805 13.8288 8.25859 13.744C8.33125 13.6472 8.40391 13.5624 8.47656 13.4655C8.53711 13.3808 8.60977 13.3081 8.67031 13.2233C8.74297 13.1386 8.81563 13.0538 8.87617 12.9569C9.22734 12.521 9.59062 12.1093 9.97813 11.6854L16.275 17.9823C15.9844 18.3093 15.718 18.6362 15.4516 18.9753C15.3668 19.0722 15.2941 19.1812 15.2215 19.278C15.1125 19.4112 15.0156 19.5565 14.9187 19.7019C14.8582 19.7866 14.7977 19.8714 14.7371 19.9562C14.6645 20.0651 14.5797 20.1862 14.507 20.2952C14.4344 20.4163 14.3617 20.5253 14.2891 20.6464C14.1316 20.9007 13.9863 21.155 13.841 21.4093C13.7805 21.5062 13.732 21.603 13.6715 21.712C13.6109 21.821 13.5625 21.9179 13.502 22.0269C13.4535 22.1237 13.4051 22.2206 13.3566 22.3175C13.284 22.4628 13.2113 22.6081 13.1387 22.7655C13.0902 22.8624 13.0418 22.9714 13.0055 23.0683C12.9934 23.0925 12.9812 23.1288 12.9691 23.153C12.9207 23.2741 12.8723 23.3831 12.8238 23.5042C12.7754 23.6253 12.727 23.7585 12.6785 23.8796C12.6301 24.0007 12.5816 24.1339 12.5332 24.255C12.4848 24.3761 12.4363 24.5093 12.4 24.6425C12.3637 24.7515 12.3273 24.8605 12.291 24.9815C12.2426 25.1269 12.1941 25.2843 12.1457 25.4417C12.1215 25.5386 12.0973 25.6233 12.0609 25.7202C12.0488 25.7565 12.0367 25.805 12.0246 25.8413C11.9883 25.9624 11.9641 26.0835 11.9277 26.1925C11.8914 26.3257 11.8672 26.4468 11.8309 26.58C11.8309 26.58 11.8309 26.58 11.8309 26.5921C11.8066 26.7132 11.7703 26.8343 11.7461 26.9554C11.7461 26.9675 11.734 26.9917 11.734 27.0038C11.7098 27.137 11.6855 27.2581 11.6613 27.3913C11.6371 27.5003 11.625 27.6093 11.6008 27.7304C11.6008 27.7667 11.5887 27.803 11.5887 27.8272C11.5645 27.9483 11.5523 28.0694 11.5281 28.1905V28.2026C11.516 28.3237 11.4918 28.4327 11.4797 28.5538C11.4797 28.578 11.4676 28.6144 11.4676 28.6386C11.4555 28.7355 11.4434 28.8323 11.4313 28.9292C11.4191 28.9776 11.4191 29.0261 11.4191 29.0745C11.407 29.1593 11.407 29.244 11.3949 29.3167C11.3949 29.3772 11.3828 29.4257 11.3828 29.4862C11.3707 29.571 11.3707 29.6558 11.3586 29.7405C11.3586 29.7769 11.3586 29.8011 11.3465 29.8374H2.44609C2.4582 29.6073 2.4582 29.4257 2.47031 29.244ZM9.67539 50.0237L9.66328 50.0116C9.56641 49.9147 9.48164 49.8058 9.39687 49.7089C9.3 49.5999 9.21523 49.4909 9.13047 49.394C5.44922 45.0347 3.19688 39.7308 2.60352 34.0757C2.59141 33.9667 2.5793 33.8456 2.56719 33.7366C2.55508 33.6276 2.54297 33.5065 2.54297 33.3976C2.53086 33.3007 2.53086 33.2038 2.51875 33.1069C2.50664 32.9132 2.49453 32.7073 2.48242 32.5136C2.48242 32.4167 2.47031 32.3319 2.47031 32.2351V32.2108H11.3707C11.3949 32.6589 11.4434 33.0948 11.4918 33.5429C11.6008 34.3542 11.7461 35.1534 11.952 35.9405C12.2184 36.994 12.5816 38.0233 13.0297 39.0163C13.0902 39.1616 13.1629 39.2948 13.2234 39.4401C13.2961 39.5855 13.3687 39.7429 13.4414 39.8882C13.5141 40.0335 13.5988 40.1788 13.6715 40.3241C13.7805 40.53 13.8895 40.7358 14.0105 40.9296C14.0711 41.0386 14.1316 41.1355 14.1922 41.2444C14.5434 41.8136 14.9187 42.3706 15.3426 42.9155C15.4637 43.0729 15.5848 43.2183 15.7059 43.3757C15.827 43.521 15.948 43.6784 16.0813 43.8237C16.1418 43.8964 16.2023 43.969 16.275 44.0417L9.97813 50.3386C9.85703 50.2296 9.77227 50.1327 9.67539 50.0237ZM29.7891 59.5538C29.6074 59.5417 29.4258 59.5417 29.232 59.5296C29.1473 59.5296 29.0625 59.5175 28.9777 59.5175C28.9172 59.5175 28.8445 59.5054 28.784 59.5054C28.6992 59.5054 28.6145 59.4933 28.5297 59.4812C28.4328 59.469 28.3359 59.469 28.2391 59.4569C28.2148 59.4569 28.1906 59.4569 28.1543 59.4448C28.0695 59.4327 27.9727 59.4206 27.8879 59.4206C27.4641 59.3722 27.0523 59.3237 26.6406 59.2632C26.4469 59.239 26.2531 59.2026 26.0473 59.1663C26.0109 59.1542 25.9625 59.1542 25.9262 59.1421C25.8414 59.13 25.7445 59.1058 25.6598 59.0937C25.5508 59.0694 25.4418 59.0573 25.3328 59.0331C25.2238 59.0089 25.1148 58.9847 25.0059 58.9726C24.8969 58.9604 24.7879 58.9241 24.6789 58.8999C24.5094 58.8636 24.3398 58.8272 24.1703 58.7788C24.0977 58.7546 24.0129 58.7425 23.9402 58.7183C23.7586 58.6698 23.5648 58.6214 23.3832 58.573C23.3105 58.5487 23.2379 58.5245 23.1531 58.5124C22.9109 58.4397 22.6809 58.3792 22.4508 58.3065C22.3781 58.2823 22.3176 58.2702 22.2449 58.246C22.1844 58.2339 22.1359 58.2097 22.0754 58.1976C21.6758 58.0644 21.2883 57.9312 20.8887 57.7858C20.7918 57.7495 20.6828 57.7132 20.5859 57.6647C20.4891 57.6284 20.3801 57.58 20.2832 57.5437C20.1863 57.5073 20.0773 57.4589 19.9805 57.4226C19.8836 57.3741 19.7746 57.3378 19.6777 57.2894C19.5688 57.2409 19.4719 57.1925 19.3629 57.144C19.0844 57.0229 18.8059 56.8897 18.5273 56.7565C18.2125 56.6112 17.9098 56.4538 17.607 56.2843C17.5102 56.2358 17.4133 56.1874 17.3164 56.1269C17.2316 56.0784 17.1348 56.03 17.05 55.9815C16.6625 55.7636 16.275 55.5335 15.8875 55.2913C15.7906 55.2308 15.7059 55.1702 15.609 55.1097C15.3547 54.9522 15.1004 54.7827 14.8582 54.6132C14.7855 54.5647 14.725 54.5163 14.6523 54.48C14.6039 54.4437 14.5555 54.4073 14.507 54.371C14.4102 54.3105 14.3254 54.2378 14.2406 54.1772C14.1801 54.1288 14.1195 54.0804 14.059 54.044C13.9984 53.9956 13.9379 53.9593 13.8773 53.9108C13.5867 53.6929 13.3082 53.4749 13.0176 53.2448C12.957 53.1964 12.9086 53.1479 12.848 53.0995C12.4484 52.7604 12.0488 52.4214 11.6492 52.0581L17.9461 45.7612C18.0187 45.8218 18.0793 45.8823 18.152 45.9429C18.2246 46.0034 18.2973 46.064 18.3699 46.1245C18.6969 46.3909 19.0359 46.6573 19.3871 46.9116C19.4477 46.9479 19.4961 46.9964 19.5566 47.0327C19.6172 47.069 19.6656 47.1054 19.7262 47.1538C19.7262 47.1538 19.7262 47.1538 19.7383 47.1538C19.7988 47.2022 19.8715 47.2386 19.932 47.287C20.0168 47.3476 20.0895 47.396 20.1742 47.4444C20.2469 47.4929 20.3195 47.5413 20.3922 47.5897C21.3852 48.2315 22.4387 48.7765 23.5285 49.2245C23.6012 49.2608 23.6859 49.2851 23.7586 49.3214C23.8434 49.3577 23.9402 49.394 24.025 49.4304C24.1461 49.4788 24.2672 49.5272 24.4004 49.5636C24.4973 49.5999 24.582 49.6362 24.6789 49.6604C24.691 49.6604 24.691 49.6604 24.7031 49.6726C24.8363 49.721 24.9695 49.7573 25.1148 49.8058C25.1148 49.8058 25.1148 49.8058 25.127 49.8058C25.1875 49.83 25.2602 49.8421 25.3328 49.8663C25.4055 49.8905 25.466 49.9026 25.5387 49.9269C25.575 49.939 25.6234 49.9511 25.6598 49.9632C25.7687 49.9995 25.8777 50.0237 25.9988 50.0601C26.1562 50.0964 26.3137 50.1448 26.4711 50.1812C26.5801 50.2054 26.6891 50.2296 26.798 50.2538C26.907 50.278 27.016 50.3022 27.125 50.3265C27.343 50.3749 27.573 50.4112 27.791 50.4476C27.8637 50.4597 27.9363 50.4718 28.0211 50.4839C28.0816 50.496 28.1422 50.5081 28.2027 50.5081C28.2633 50.5202 28.3117 50.5202 28.3723 50.5323C28.4813 50.5444 28.5902 50.5565 28.7113 50.5808C28.9172 50.605 29.123 50.6292 29.3289 50.6413C29.341 50.6413 29.3531 50.6413 29.3652 50.6413C29.3895 50.6413 29.4137 50.6413 29.4258 50.6413C29.559 50.6534 29.6801 50.6655 29.8133 50.6655V59.5538H29.7891ZM31.0242 48.2679H30.9758C27.6336 48.2679 24.4246 47.3112 21.6395 45.519V42.7702C21.6395 39.3312 24.4367 36.5339 27.8758 36.5339H34.1121C37.5512 36.5339 40.3605 39.3312 40.3605 42.7702V45.519C37.5754 47.3112 34.3664 48.2679 31.0242 48.2679ZM50.0238 52.3245L50.0117 52.3366C49.9148 52.4335 49.8059 52.5183 49.709 52.603C49.6 52.6999 49.491 52.7847 49.3941 52.8694C49.2973 52.9542 49.2004 53.0269 49.1035 53.1116C49.0551 53.1479 49.0066 53.1843 48.9582 53.2206C48.8613 53.2933 48.7766 53.3659 48.6797 53.4507C48.5828 53.5233 48.4859 53.596 48.3891 53.6687C48.2922 53.7413 48.2074 53.814 48.1105 53.8745C44.6473 56.478 40.6633 58.2339 36.4129 59.0452C36.2434 59.0815 36.0738 59.1058 35.9043 59.1421C35.8801 59.1421 35.868 59.1542 35.8438 59.1542C35.7711 59.1663 35.6863 59.1784 35.6137 59.1905C35.5289 59.2026 35.432 59.2147 35.3473 59.2269C35.2625 59.239 35.1656 59.2511 35.0809 59.2632C34.9961 59.2753 34.8992 59.2874 34.8145 59.2995C34.7297 59.3116 34.6328 59.3237 34.548 59.3358C34.4148 59.3601 34.2695 59.3722 34.1363 59.3843C34.0273 59.3964 33.9062 59.4085 33.7973 59.4206C33.6641 59.4327 33.5309 59.4448 33.3977 59.4569C33.0586 59.4812 32.7195 59.5054 32.3805 59.5175C32.332 59.5175 32.2836 59.5175 32.223 59.5175V50.6171C32.6711 50.5929 33.1191 50.5444 33.5551 50.496C34.3664 50.387 35.1656 50.2417 35.9527 50.0358C36.2313 49.9632 36.5098 49.8905 36.7883 49.8058C36.8852 49.7815 36.9699 49.7452 37.0668 49.721C37.1637 49.6968 37.2484 49.6604 37.3453 49.6241C37.418 49.5999 37.5027 49.5757 37.5754 49.5394C37.6117 49.5272 37.6359 49.5151 37.6723 49.503C37.7449 49.4788 37.8176 49.4546 37.8902 49.4183C37.9629 49.394 38.0477 49.3577 38.1203 49.3335C38.2051 49.2972 38.2898 49.2729 38.3746 49.2366C38.4957 49.1882 38.6289 49.1397 38.75 49.0792C38.859 49.0308 38.9559 48.9944 39.0527 48.946C39.1496 48.8976 39.2586 48.8491 39.3555 48.8128C39.4523 48.7644 39.5613 48.7159 39.6582 48.6675C39.9973 48.4979 40.3363 48.3284 40.6754 48.1347C40.7844 48.0741 40.8934 48.0136 41.0023 47.953C41.0992 47.8925 41.1961 47.8319 41.293 47.7835C41.3172 47.7714 41.3293 47.7593 41.3535 47.7472C41.4504 47.6866 41.5594 47.6261 41.6562 47.5534C41.7652 47.4808 41.8742 47.4081 41.9711 47.3476C42.0801 47.2749 42.177 47.2022 42.2859 47.1296C42.2859 47.1296 42.2859 47.1296 42.298 47.1296C42.4555 47.0206 42.6008 46.9116 42.7582 46.8026C42.8309 46.7421 42.9035 46.6937 42.9883 46.6331C43.0609 46.5726 43.1336 46.5241 43.2062 46.4636C43.2789 46.403 43.3516 46.3425 43.4242 46.2819C43.6422 46.1003 43.8602 45.9187 44.066 45.737L50.3629 52.0339C50.2297 52.1429 50.1328 52.2276 50.0238 52.3245ZM59.5539 32.2229C59.5539 32.3198 59.5418 32.4046 59.5418 32.5015C59.5297 32.6952 59.5176 32.9011 59.5055 33.0948C59.4934 33.1917 59.4934 33.2886 59.4813 33.3855C59.4691 33.4944 59.457 33.6155 59.457 33.7245C59.4449 33.8335 59.4328 33.9546 59.4207 34.0636C59.4086 34.1604 59.3965 34.2573 59.3844 34.3542C59.3723 34.4511 59.3602 34.548 59.348 34.6448C59.3359 34.7417 59.3238 34.8386 59.3117 34.9355C59.2996 35.0323 59.2875 35.1292 59.2754 35.2261C59.2633 35.3229 59.2512 35.4198 59.227 35.5167C58.5004 40.1425 56.6477 44.4776 53.8141 48.2073C53.7414 48.3042 53.6688 48.4011 53.5961 48.4858C53.5234 48.5827 53.4508 48.6675 53.3781 48.7644C53.3781 48.7644 53.3781 48.7644 53.366 48.7765C53.3055 48.8491 53.257 48.9097 53.1965 48.9823C53.0996 49.1034 52.9906 49.2366 52.8816 49.3577C52.7969 49.4667 52.7 49.5757 52.6152 49.6726C52.5305 49.7694 52.4336 49.8784 52.3488 49.9753L52.3367 49.9874C52.2398 50.0843 52.1551 50.1933 52.0582 50.2901L45.7613 43.9933C45.8824 43.8479 46.0035 43.7147 46.1246 43.5694C46.1852 43.4968 46.2457 43.4241 46.3062 43.3515C46.4516 43.1698 46.5969 42.9882 46.7301 42.8065C46.7301 42.7944 46.7422 42.7944 46.7422 42.7823C46.8148 42.6854 46.8754 42.6007 46.948 42.5038C47.0207 42.4069 47.0812 42.3101 47.1539 42.2132C47.1539 42.2132 47.1539 42.2132 47.1539 42.2011C47.2871 42.0194 47.4082 41.8257 47.5293 41.6319C47.5898 41.5351 47.6504 41.4382 47.7109 41.3413C47.7715 41.2444 47.832 41.1476 47.8926 41.0507C48.0016 40.869 48.1105 40.6753 48.2195 40.4937C48.2316 40.4815 48.2316 40.4694 48.2437 40.4573C48.2922 40.3605 48.3527 40.2636 48.4012 40.1667C48.4496 40.0698 48.498 39.9729 48.5586 39.8761C48.6676 39.6702 48.7645 39.4765 48.8492 39.2706C48.9945 38.9679 49.1277 38.6651 49.2488 38.3503C49.2852 38.2534 49.3336 38.1444 49.3699 38.0476C49.4062 37.9507 49.4426 37.8538 49.4789 37.7569C49.4789 37.7448 49.491 37.7206 49.5031 37.7085C49.5395 37.6116 49.5758 37.5147 49.6 37.43C49.6242 37.3452 49.6605 37.2605 49.6848 37.1878C49.709 37.1151 49.7332 37.0304 49.7574 36.9577C49.7816 36.8851 49.8059 36.8124 49.8301 36.7397C49.8543 36.6429 49.8906 36.5581 49.9148 36.4612C49.9391 36.3644 49.9633 36.2796 49.9996 36.1827C50.0238 36.0858 50.048 36.0011 50.0723 35.9042C50.2781 35.1171 50.4355 34.3179 50.5324 33.5065V33.4944C50.5445 33.3855 50.5566 33.2765 50.5688 33.1675C50.5809 33.0222 50.593 32.8769 50.6172 32.7315C50.6293 32.6468 50.6293 32.562 50.6414 32.4772C50.6414 32.4167 50.6535 32.3562 50.6535 32.2835C50.6535 32.2472 50.6535 32.2108 50.6656 32.1745L59.5539 32.2229ZM50.6535 29.789C50.6535 29.7284 50.6414 29.68 50.6414 29.6194C50.6414 29.571 50.6293 29.5347 50.6293 29.4862C50.6293 29.4257 50.6172 29.3651 50.6172 29.3046C50.6051 29.1472 50.593 28.9776 50.5688 28.8202C50.5688 28.796 50.5687 28.7718 50.5566 28.7476C50.5445 28.6386 50.5324 28.5296 50.5203 28.4206C50.5082 28.3116 50.4961 28.2026 50.4719 28.0815C50.4355 27.8636 50.3992 27.6335 50.3629 27.4155C50.3387 27.3065 50.3266 27.1976 50.3023 27.0886C50.2781 26.9796 50.2539 26.8706 50.2297 26.7616C50.2055 26.6647 50.1813 26.5558 50.157 26.4589C50.157 26.4468 50.157 26.4347 50.1449 26.4104C50.1207 26.3136 50.0965 26.2046 50.0723 26.1077C50.0359 25.9745 49.9996 25.8292 49.9633 25.696C49.9633 25.6839 49.9512 25.6718 49.9512 25.6597C49.927 25.5628 49.8906 25.4659 49.8664 25.369C49.8543 25.3206 49.8422 25.2722 49.8301 25.2237C49.7938 25.1026 49.7574 24.9815 49.7211 24.8605C49.7211 24.8483 49.709 24.8362 49.709 24.8241C49.6363 24.594 49.5516 24.364 49.4668 24.1339C49.4426 24.0612 49.4184 23.9886 49.382 23.9159C49.3457 23.8069 49.2973 23.7101 49.2609 23.6011C49.2004 23.4679 49.152 23.3347 49.0914 23.1894C49.0309 23.0562 48.9703 22.9229 48.9098 22.7897C48.8492 22.6687 48.7887 22.5354 48.7281 22.4144C48.716 22.4022 48.716 22.378 48.7039 22.3538C48.6434 22.2327 48.5828 22.1116 48.5223 21.9905C48.3891 21.7241 48.2438 21.4698 48.0984 21.2155C47.9531 20.9612 47.7957 20.7069 47.6383 20.4526C47.5535 20.3315 47.4809 20.1983 47.3961 20.0772C47.3113 19.9562 47.2266 19.8351 47.1418 19.714C46.9844 19.4839 46.8148 19.2659 46.6453 19.048C46.6332 19.0358 46.6211 19.0116 46.609 18.9995C46.5605 18.939 46.5 18.8663 46.4516 18.7937C46.4152 18.7573 46.391 18.7089 46.3547 18.6726C46.3426 18.6483 46.3305 18.6362 46.3062 18.612C46.2336 18.5272 46.1609 18.4425 46.1004 18.3577C46.0398 18.2851 45.9793 18.2124 45.9188 18.1397C45.8582 18.0671 45.7977 17.9944 45.7371 17.9339L52.034 11.637C52.143 11.746 52.2398 11.8671 52.3367 11.9761C52.373 12.0245 52.4094 12.0608 52.4578 12.1093C52.5426 12.2062 52.6273 12.303 52.7121 12.412C52.9059 12.6421 53.0996 12.8722 53.2812 13.1022C53.4508 13.3081 53.6203 13.5261 53.7777 13.744C53.8504 13.8409 53.9109 13.9257 53.9836 14.0226C55.0008 15.3909 55.8848 16.8562 56.6477 18.4062C56.6719 18.4425 56.684 18.4909 56.7082 18.5272C58.2219 21.6394 59.1543 25.0058 59.457 28.5175V28.5296C59.457 28.5417 59.457 28.5659 59.457 28.578C59.4691 28.6749 59.4691 28.7839 59.4813 28.8808C59.5055 29.1835 59.5176 29.4862 59.5297 29.789H50.6535Z" fill="white"/>
</svg>
