<svg width="77" height="76" viewBox="0 0 77 76" fill="none" xmlns="http://www.w3.org/2000/svg">
<path d="M38.3158 6.90909C48.6316 6.90909 49.7369 6.90909 53.7895 7.27273C57.4737 7.27273 59.6842 8 60.7895 8.72727C62.6316 9.45455 63.7369 10.1818 65.2105 11.6364C66.6842 13.0909 67.4211 14.1818 68.1579 16C68.5263 17.4545 69.2632 19.2727 69.6316 22.9091C70 26.5455 70 27.6364 70 37.8182C70 48 70 49.0909 69.6316 53.0909C69.6316 56.7273 68.8947 58.9091 68.1579 60C67.4211 61.8182 66.6842 62.9091 65.2105 64.3636C63.7369 65.8182 62.6316 66.5455 60.7895 67.2727C59.3158 67.6364 57.4737 68.3636 53.7895 68.7273C50.1053 69.0909 48.6316 69.0909 38.3158 69.0909C28 69.0909 26.8947 69.0909 22.8421 68.7273C19.1579 68.7273 16.9474 68 15.8421 67.2727C14 66.5455 12.8947 65.8182 11.4211 64.3636C9.94737 62.9091 9.21053 61.8182 8.47369 60C8.10526 58.5455 7.36842 56.7273 7 53.0909C7 49.0909 6.63158 48 6.63158 37.8182C6.63158 27.6364 6.63158 26.5455 7 22.5455C7 18.9091 7.73684 16.7273 8.47369 15.6364C9.21053 13.8182 9.94737 12.7273 11.4211 11.2727C12.8947 9.81818 14 9.09091 15.8421 8.36364C16.9474 8 19.1579 7.27273 22.8421 6.90909C26.8947 6.90909 28 6.90909 38.3158 6.90909ZM38.3158 0C28 0 26.5263 0 22.4737 0.363636C18.4211 0.363636 15.8421 1.09091 13.2632 1.81818C10.6842 2.90909 8.47369 4.36364 6.63158 6.54545C4.78947 8.72727 2.94737 10.5455 1.84211 13.0909C1.10526 15.6364 0.368421 18.1818 0.368421 22.1818C0 26.1818 0 27.6364 0 37.8182C0 48 0 49.4545 0.368421 53.4546C0.736842 57.4546 1.10526 60.3636 2.21053 62.5455C3.31579 65.0909 4.42105 67.2727 6.63158 69.0909C8.84211 71.2727 11.0526 72.3636 13.2632 73.4546C15.8421 74.5455 18.4211 74.9091 22.4737 75.2727C26.5263 75.6364 28 75.6364 38.3158 75.6364C48.6316 75.6364 50.1053 75.6364 54.1579 75.2727C58.2105 74.9091 61.1579 74.5455 63.3684 73.4546C65.9474 72.3636 68.1579 71.2727 70 69.0909C72.2105 66.9091 73.3158 64.7273 74.4211 62.5455C75.5263 60 75.8948 57.4546 76.2632 53.4546C76.6316 49.4545 76.6316 48 76.6316 37.8182C76.6316 27.6364 76.6316 26.1818 76.2632 22.1818C75.8948 18.1818 75.5263 15.2727 74.4211 13.0909C73.3158 10.5455 72.2105 8.36364 70 6.54545C67.7895 4.36364 65.579 3.27273 63.3684 2.18182C60.7895 1.09091 58.2105 0.727273 54.1579 0.363636C50.1053 0 49 0 38.3158 0Z" fill="black"/>
<path d="M38.3156 18.5459C27.263 18.5459 18.4209 27.2732 18.4209 38.1823C18.4209 49.0913 27.263 57.8186 38.3156 57.8186C49.3683 57.8186 58.2104 49.0913 58.2104 38.1823C58.2104 27.2732 49.3683 18.5459 38.3156 18.5459ZM38.3156 50.5459C31.3156 50.5459 25.4209 44.7277 25.4209 37.8186C25.7893 30.9095 31.3156 25.455 38.3156 25.455C45.3156 25.455 51.2104 31.2732 51.2104 38.1823C51.2104 45.0913 45.6841 50.5459 38.3156 50.5459Z" fill="black"/>
<path d="M63.7371 17.8186C63.7371 20.364 61.5266 22.5459 58.9477 22.5459C56.3687 22.5459 54.1582 20.364 54.1582 17.8186C54.1582 15.2731 56.3687 13.0913 58.9477 13.0913C61.5266 13.0913 63.7371 15.2731 63.7371 17.8186Z" fill="black"/>
</svg>
