<svg width="81" height="81" viewBox="0 0 81 81" fill="none" xmlns="http://www.w3.org/2000/svg">
<path d="M18.2356 27.1411H1.69629V80.9998H18.2356V27.1411Z" fill="black"/>
<path d="M9.75393 19.9319C15.267 19.9319 19.5079 15.267 19.5079 10.178C19.5079 5.08901 15.267 0 9.75393 0C4.24084 0 0 4.66492 0 9.75393C0 14.8429 4.24084 19.9319 9.75393 19.9319Z" fill="black"/>
<path d="M44.9521 52.5859C44.9521 44.9524 48.3448 40.2875 55.1301 40.2875C61.0673 40.2875 64.0359 44.5284 64.0359 52.5859C64.0359 60.2195 64.0359 80.9996 64.0359 80.9996H80.5751C80.5751 80.9996 80.5751 61.4917 80.5751 46.6488C80.5751 32.2299 72.5175 25.0205 61.0673 25.0205C49.617 25.0205 44.9521 33.9263 44.9521 33.9263V27.1409H28.8369V80.9996H44.9521C44.9521 80.9996 44.9521 61.0676 44.9521 52.5859Z" fill="black"/>
</svg>
