<svg width="353" height="358" viewBox="0 0 353 358" fill="none" xmlns="http://www.w3.org/2000/svg">
<path d="M352.199 68.2001C351.499 49.3001 343.399 31.7001 329.499 18.9001C315.599 6.10009 297.499 -0.599906 278.599 0.100094C239.499 1.60009 208.899 34.7001 210.499 73.7001L215.499 73.5001C214.799 55.9001 220.999 39.1001 232.999 26.2001C244.999 13.3001 261.099 5.70009 278.699 5.00009C296.299 4.30009 313.099 10.5001 325.999 22.5001C338.899 34.5001 346.399 50.7001 347.099 68.3001C347.799 85.9001 341.599 102.7 329.599 115.6C317.599 128.5 301.399 136 283.799 136.7L283.999 141.7C302.899 141 320.499 132.9 333.299 119C346.099 105.1 352.899 87.1001 352.199 68.2001Z" fill="white"/>
<path d="M261.1 92.8002C266.6 97.9002 273.8 100.7 281.3 100.7C281.7 100.7 282.1 100.7 282.5 100.7C290.4 100.4 297.8 97.0001 303.2 91.2001C308.6 85.4002 311.4 77.8002 311.1 69.9002C310.8 62.0002 307.4 54.6002 301.6 49.2002C295.8 43.8002 288.2 41.0002 280.3 41.3002C272.4 41.6002 265 45.0002 259.6 50.8002C254.2 56.6002 251.4 64.2002 251.7 72.1002C251.9 80.0002 255.3 87.4002 261.1 92.8002ZM263.1 54.2002C267.6 49.4002 273.7 46.5002 280.3 46.3002C280.6 46.3002 281 46.3002 281.3 46.3002C287.5 46.3002 293.5 48.6002 298.1 52.9002C302.9 57.4002 305.8 63.5002 306 70.1002C306.2 76.7001 303.9 83.0002 299.4 87.8002C294.9 92.6002 288.8 95.5001 282.2 95.7001C275.6 96.0001 269.3 93.6002 264.5 89.1002C259.7 84.6002 256.8 78.5002 256.6 71.9002C256.4 65.3002 258.6 59.0002 263.1 54.2002Z" fill="#C8176F"/>
<path d="M80.1998 211.9C62.7998 214.4 45.3998 209.9 31.2998 199.3C17.1998 188.7 8.09977 173.3 5.59977 155.8C3.09977 138.4 7.59977 121 18.1998 106.9C28.7998 92.8 44.1998 83.7 61.6998 81.2C79.0998 78.7 96.4998 83.2 110.6 93.8L113.6 89.8C98.4998 78.5 79.7998 73.7 60.9998 76.4C42.2998 79 25.6998 88.8 14.2998 104C2.89977 119.2 -1.90023 137.8 0.799765 156.6C3.49977 175.4 13.2998 192 28.3998 203.4C40.7998 212.7 55.5998 217.7 70.8998 217.7C74.1998 217.7 77.5998 217.5 80.9998 217C99.7998 214.3 116.4 204.5 127.8 189.4L123.8 186.4C113.1 200.3 97.5998 209.4 80.1998 211.9Z" fill="white"/>
<path d="M101.2 106.4C78.9998 89.6999 47.3998 94.1999 30.6998 116.4C13.9998 138.6 18.4998 170.2 40.6998 186.9C49.6998 193.7 60.3998 197 70.8998 197C86.1998 197 101.3 190.1 111.2 176.9C120 165.2 122.9 150.8 120.4 137.4L234.5 89.5999C239.8 102.8 250.6 113.2 263.9 118.1L223.8 236.1C220.9 236 218 236.2 215.1 236.6C201.8 238.5 190 245.4 181.9 256.2C173.8 267 170.4 280.2 172.3 293.5C174.2 306.8 181.1 318.6 191.9 326.7C200.7 333.3 211.2 336.8 222 336.8C224.4 336.8 226.8 336.6 229.2 336.3C242.5 334.4 254.3 327.5 262.4 316.7C279.1 294.5 274.6 262.9 252.4 246.2C245.4 241 237.4 237.7 229 236.5L268.7 119.6C272.7 120.6 276.9 121.2 281.3 121.2C282 121.2 282.6 121.2 283.3 121.2C311 120.1 332.7 96.6999 331.6 68.9999C331.1 55.5999 325.4 43.0999 315.5 33.9999C305.6 24.8999 292.8 20.0999 279.4 20.5999C266 21.0999 253.5 26.7999 244.4 36.6999C235.3 46.5999 230.5 59.4999 231 72.8999C231.2 77.0999 231.8 81.0999 232.9 84.8999L119.2 132.5C116.3 122.4 110.2 113.2 101.2 106.4ZM249.4 250.3C269.4 265.3 273.4 293.8 258.4 313.8C251.1 323.5 240.5 329.7 228.5 331.4C216.5 333.1 204.6 330 194.9 322.7C185.2 315.4 179 304.8 177.3 292.8C175.6 280.8 178.7 268.9 186 259.2C193.3 249.5 203.9 243.3 215.9 241.6C218.1 241.3 220.2 241.1 222.3 241.1C223.4 241.1 224.5 241.1 225.6 241.2L227.2 241.7L227.3 241.3C235.2 242.3 242.8 245.3 249.4 250.3ZM248 40.1999C256.2 31.2999 267.4 26.1999 279.5 25.6999C280.1 25.6999 280.7 25.6999 281.3 25.6999C292.7 25.6999 303.6 29.8999 312 37.7999C320.9 45.9999 326 57.1999 326.5 69.2999C327.5 94.2999 307.9 115.4 283 116.4C258 117.4 236.9 97.7999 235.9 72.8999C235.5 60.5999 239.8 48.9999 248 40.1999ZM107.2 173.9C92.1998 193.9 63.6998 197.9 43.6998 182.9C23.6998 167.9 19.6998 139.4 34.6998 119.4C49.6998 99.3999 78.1998 95.3999 98.1998 110.4C118.2 125.4 122.2 153.9 107.2 173.9Z" fill="white"/>
<path d="M88.7994 122.9C75.6994 113.1 56.9994 115.7 47.1994 128.8C37.3994 141.9 39.9994 160.6 53.0994 170.4C58.3994 174.4 64.6994 176.4 70.8994 176.4C79.8994 176.4 88.8994 172.3 94.6994 164.6C104.599 151.4 101.899 132.7 88.7994 122.9ZM90.6994 161.5C82.4994 172.4 66.9994 174.6 56.0994 166.4C45.1994 158.2 42.9994 142.7 51.1994 131.8C55.1994 126.5 60.9994 123.1 67.4994 122.2C73.9994 121.3 80.4994 123 85.7994 126.9C96.6994 135.1 98.8994 150.6 90.6994 161.5Z" fill="#28D4FF"/>
<path d="M264.8 229.8L261.8 233.8C275.9 244.4 285 259.8 287.5 277.3C290 294.7 285.5 312.1 274.9 326.2C253 355.3 211.6 361.1 182.6 339.3C153.5 317.4 147.7 276 169.5 247L165.5 244C142 275.3 148.3 319.8 179.6 343.3C192 352.6 206.8 357.6 222.1 357.6C225.4 357.6 228.8 357.4 232.2 356.9C251 354.2 267.6 344.4 279 329.3C290.4 314.2 295.2 295.5 292.5 276.7C289.8 257.9 279.9 241.2 264.8 229.8Z" fill="white"/>
<path d="M198.4 268.6C193.6 274.9 191.6 282.8 192.7 290.6C193.8 298.5 197.9 305.4 204.3 310.2C209.5 314.1 215.7 316.2 222.1 316.2C223.5 316.2 224.9 316.1 226.3 315.9C234.2 314.8 241.1 310.7 245.9 304.3C250.7 297.9 252.7 290.1 251.6 282.3C250.5 274.4 246.4 267.5 240 262.7C226.9 252.9 208.2 255.5 198.4 268.6ZM246.6 283C247.5 289.5 245.8 296 241.9 301.3C233.7 312.2 218.2 314.4 207.3 306.2C202 302.2 198.6 296.4 197.7 289.9C196.8 283.4 198.5 276.9 202.4 271.6C207.3 265.2 214.7 261.8 222.2 261.8C227.4 261.8 232.6 263.4 237 266.8C242.2 270.7 245.7 276.5 246.6 283Z" fill="#6804E8"/>
</svg>
