<svg width="252" height="967" viewBox="0 0 252 967" fill="none" xmlns="http://www.w3.org/2000/svg">
<path d="M249 964L135 964C101.863 964 75 937.137 75 904L75 783C75 749.863 101.863 723 135 723L189 723C222.137 723 249 696.137 249 663L249 541.5C249 508.363 222.137 481.5 189 481.5L86.5 481.5C53.3629 481.5 26.5 454.637 26.5 421.5L26.5 301.5C26.5 268.363 53.3629 241.5 86.5 241.5L120 241.5C153.137 241.5 180 214.637 180 181.5L180 63C180 29.8629 153.137 3 120 2.99999L0 2.99999" stroke="url(#paint0_linear)" stroke-width="5"/>
<defs>
<linearGradient id="paint0_linear" x1="249" y1="612.75" x2="-63.5" y2="612.75" gradientUnits="userSpaceOnUse">
<stop stop-color="#28D4FF"/>
<stop offset="1" stop-color="#C8176F"/>
</linearGradient>
</defs>
</svg>
