<svg width="32" height="21" viewBox="0 0 32 21" fill="none" xmlns="http://www.w3.org/2000/svg">
<path d="M31.45 21H0.55C0.24375 21 0 20.7496 0 20.449V0.550984C0 0.250447 0.25 0 0.55 0H31.4437C31.75 0 31.9937 0.250447 31.9937 0.550984V20.449C32 20.7558 31.75 21 31.45 21Z" fill="#F5F5F5"/>
<path d="M32 1.61539H0V0.550984C0 0.250447 0.25 0 0.55 0H31.4438C31.75 0 31.9937 0.250447 31.9937 0.550984L32 1.61539Z" fill="#FF000E"/>
<path d="M32 6.46094H0V8.07632H32V6.46094Z" fill="#FF000E"/>
<path d="M32 3.23145H0V4.84683H32V3.23145Z" fill="#FF000E"/>
<path d="M32 11.3078H0.55C0.24375 11.3078 0 11.0573 0 10.7568V9.69238H32V11.3078Z" fill="#FF000E"/>
<path d="M32 16.1533H0V17.7687H32V16.1533Z" fill="#FF000E"/>
<path d="M31.45 21.0001H0.55C0.24375 21.0001 0 20.7497 0 20.4492V19.3848H32V20.4492C32 20.756 31.75 21.0001 31.45 21.0001Z" fill="#FF000E"/>
<path d="M32 12.9229H0V14.5382H32V12.9229Z" fill="#FF000E"/>
<path d="M14.3438 0H0.55C0.25 0 0 0.250447 0 0.550984V10.7567C0 11.0635 0.25 11.3077 0.55 11.3077H14.3438C14.65 11.3077 14.8938 11.0572 14.8938 10.7567V0.550984C14.8938 0.250447 14.65 0 14.3438 0Z" fill="#0B159B"/>
<path d="M1.54948 1.27097L1.67448 1.64037H2.06198C2.11198 1.64037 2.13073 1.70299 2.09323 1.73429L1.78073 1.96596L1.89948 2.33536C1.91198 2.38545 1.86198 2.42302 1.81823 2.39172L1.50573 2.16631L1.19323 2.39172C1.14948 2.42302 1.09948 2.37919 1.11198 2.33536L1.23073 1.96596L0.918235 1.73429C0.880735 1.70299 0.899485 1.64037 0.949485 1.64037H1.33698L1.46198 1.27097C1.46823 1.22088 1.53073 1.22088 1.54948 1.27097Z" fill="#F5F5F5"/>
<path d="M1.54948 3.18717L1.67448 3.55658H2.06198C2.11198 3.55658 2.13073 3.61919 2.09323 3.65049L1.78073 3.88216L1.89948 4.25157C1.91198 4.30166 1.86198 4.33922 1.81823 4.30792L1.50573 4.08252L1.19323 4.30792C1.14948 4.33922 1.09948 4.2954 1.11198 4.25157L1.23073 3.88216L0.918235 3.65049C0.880735 3.61919 0.899485 3.55658 0.949485 3.55658H1.33698L1.46198 3.18717C1.46823 3.14334 1.53073 3.14334 1.54948 3.18717Z" fill="#F5F5F5"/>
<path d="M1.54948 5.10886L1.67448 5.47827H2.06198C2.11198 5.47827 2.13073 5.54088 2.09323 5.57218L1.78073 5.80385L1.89948 6.17326C1.91198 6.22335 1.86198 6.26091 1.81823 6.22961L1.50573 6.00421L1.19323 6.22961C1.14948 6.26091 1.09948 6.21709 1.11198 6.17326L1.23073 5.80385L0.918235 5.57218C0.880735 5.54088 0.899485 5.47827 0.949485 5.47827H1.33698L1.46198 5.10886C1.46823 5.05877 1.53073 5.05877 1.54948 5.10886Z" fill="#F5F5F5"/>
<path d="M1.54948 7.02506L1.67448 7.39447H2.06198C2.11198 7.39447 2.13073 7.45708 2.09323 7.48839L1.78073 7.72005L1.89948 8.08946C1.91198 8.13955 1.86198 8.17712 1.81823 8.14581L1.50573 7.92041L1.19323 8.14581C1.14948 8.17712 1.09948 8.13329 1.11198 8.08946L1.23073 7.72005L0.918235 7.48839C0.880735 7.45708 0.899485 7.39447 0.949485 7.39447H1.33698L1.46198 7.02506C1.46823 6.98123 1.53073 6.98123 1.54948 7.02506Z" fill="#F5F5F5"/>
<path d="M1.54948 8.94772L1.67448 9.31714H2.06198C2.11198 9.31714 2.13073 9.37975 2.09323 9.41105L1.78073 9.64272L1.89948 10.0121C1.91198 10.0622 1.86198 10.0998 1.81823 10.0685L1.50573 9.84308L1.19323 10.0685C1.14948 10.0998 1.09948 10.056 1.11198 10.0121L1.23073 9.64272L0.918235 9.41105C0.880735 9.37975 0.899485 9.31714 0.949485 9.31714H1.33698L1.46198 8.94772C1.46823 8.89763 1.53073 8.89763 1.54948 8.94772Z" fill="#F5F5F5"/>
<path d="M3.03777 2.21042L3.16277 2.57983H3.55027C3.60027 2.57983 3.61902 2.64244 3.58152 2.67375L3.26902 2.90541L3.38777 3.27482C3.40027 3.32491 3.35027 3.36247 3.30652 3.33117L2.99402 3.10577L2.68152 3.33117C2.63777 3.36247 2.58777 3.31865 2.60027 3.27482L2.71902 2.90541L2.40652 2.67375C2.36902 2.64244 2.38777 2.57983 2.43777 2.57983H2.82527L2.95027 2.21042C2.95652 2.16033 3.01902 2.16033 3.03777 2.21042Z" fill="#F5F5F5"/>
<path d="M3.03777 4.12662L3.16277 4.49603H3.55027C3.60027 4.49603 3.61902 4.55864 3.58152 4.58995L3.26902 4.82161L3.38777 5.19102C3.40027 5.24111 3.35027 5.27868 3.30652 5.24737L2.99402 5.02197L2.68152 5.24737C2.63777 5.27868 2.58777 5.23485 2.60027 5.19102L2.71902 4.82161L2.40652 4.58995C2.36902 4.55864 2.38777 4.49603 2.43777 4.49603H2.82527L2.95027 4.12662C2.95652 4.08279 3.01902 4.08279 3.03777 4.12662Z" fill="#F5F5F5"/>
<path d="M3.03777 6.04831L3.16277 6.41772H3.55027C3.60027 6.41772 3.61902 6.48033 3.58152 6.51163L3.26902 6.7433L3.38777 7.11271C3.40027 7.1628 3.35027 7.20036 3.30652 7.16906L2.99402 6.94365L2.68152 7.16906C2.63777 7.20036 2.58777 7.15653 2.60027 7.11271L2.71902 6.7433L2.40652 6.51163C2.36902 6.48033 2.38777 6.41772 2.43777 6.41772H2.82527L2.95027 6.04831C2.95652 5.99822 3.01902 5.99822 3.03777 6.04831Z" fill="#F5F5F5"/>
<path d="M3.03777 7.97018L3.16277 8.33959H3.55027C3.60027 8.33959 3.61902 8.40221 3.58152 8.43351L3.26902 8.66518L3.38777 9.03459C3.40027 9.08468 3.35027 9.12224 3.30652 9.09094L2.99402 8.86553L2.68152 9.09094C2.63777 9.12224 2.58777 9.07841 2.60027 9.03459L2.71902 8.66518L2.40652 8.43351C2.36902 8.40221 2.38777 8.33959 2.43777 8.33959H2.82527L2.95027 7.97018C2.95652 7.92009 3.01902 7.92009 3.03777 7.97018Z" fill="#F5F5F5"/>
<path d="M4.52409 1.27097L4.64909 1.64037H5.03659C5.08659 1.64037 5.10534 1.70299 5.06784 1.73429L4.75534 1.96596L4.87409 2.33536C4.88659 2.38545 4.83659 2.42302 4.79284 2.39172L4.48034 2.16631L4.16784 2.39172C4.12409 2.42302 4.07409 2.37919 4.08659 2.33536L4.20534 1.96596L3.89284 1.73429C3.85534 1.70299 3.87409 1.64037 3.92409 1.64037H4.31159L4.43659 1.27097C4.43659 1.22088 4.50534 1.22088 4.52409 1.27097Z" fill="#F5F5F5"/>
<path d="M4.52449 3.18717L4.64949 3.55658H5.03699C5.08699 3.55658 5.10574 3.61919 5.06824 3.65049L4.74949 3.88216L4.86824 4.25157C4.88074 4.30166 4.83074 4.33922 4.78699 4.30792L4.47449 4.08252L4.16199 4.30792C4.11824 4.33922 4.06824 4.2954 4.08074 4.25157L4.19949 3.88216L3.88698 3.65049C3.84948 3.61919 3.86823 3.55658 3.91823 3.55658H4.30574L4.43074 3.18717C4.43699 3.14334 4.50574 3.14334 4.52449 3.18717Z" fill="#F5F5F5"/>
<path d="M4.52409 5.10886L4.64909 5.47827H5.03659C5.08659 5.47827 5.10534 5.54088 5.06784 5.57218L4.75534 5.80385L4.87409 6.17326C4.88659 6.22335 4.83659 6.26091 4.79284 6.22961L4.48034 6.00421L4.16784 6.22961C4.12409 6.26091 4.07409 6.21709 4.08659 6.17326L4.20534 5.80385L3.89284 5.57218C3.85534 5.54088 3.87409 5.47827 3.92409 5.47827H4.31159L4.43659 5.10886C4.43659 5.05877 4.50534 5.05877 4.52409 5.10886Z" fill="#F5F5F5"/>
<path d="M4.52409 7.02506L4.64909 7.39447H5.03659C5.08659 7.39447 5.10534 7.45708 5.06784 7.48839L4.75534 7.72005L4.87409 8.08946C4.88659 8.13955 4.83659 8.17712 4.79284 8.14581L4.48034 7.92041L4.16784 8.14581C4.12409 8.17712 4.07409 8.13329 4.08659 8.08946L4.20534 7.72005L3.89284 7.48839C3.85534 7.45708 3.87409 7.39447 3.92409 7.39447H4.31159L4.43659 7.02506C4.43659 6.98123 4.50534 6.98123 4.52409 7.02506Z" fill="#F5F5F5"/>
<path d="M4.52409 8.94772L4.64909 9.31714H5.03659C5.08659 9.31714 5.10534 9.37975 5.06784 9.41105L4.75534 9.64272L4.87409 10.0121C4.88659 10.0622 4.83659 10.0998 4.79284 10.0685L4.48034 9.84308L4.16784 10.0685C4.12409 10.0998 4.07409 10.056 4.08659 10.0121L4.20534 9.64272L3.89284 9.41105C3.85534 9.37975 3.87409 9.31714 3.92409 9.31714H4.31159L4.43659 8.94772C4.43659 8.89763 4.50534 8.89763 4.52409 8.94772Z" fill="#F5F5F5"/>
<path d="M6.01238 2.21042L6.13738 2.57983H6.52488C6.57488 2.57983 6.59363 2.64244 6.55613 2.67375L6.24363 2.90541L6.36238 3.27482C6.37488 3.32491 6.32488 3.36247 6.28113 3.33117L5.96863 3.10577L5.65613 3.33117C5.61238 3.36247 5.56238 3.31865 5.57488 3.27482L5.69363 2.90541L5.38113 2.67375C5.34363 2.64244 5.36238 2.57983 5.41238 2.57983H5.79988L5.92488 2.21042C5.92488 2.16033 5.99363 2.16033 6.01238 2.21042Z" fill="#F5F5F5"/>
<path d="M6.01238 4.12662L6.13738 4.49603H6.52488C6.57488 4.49603 6.59363 4.55864 6.55613 4.58995L6.24363 4.82161L6.36238 5.19102C6.37488 5.24111 6.32488 5.27868 6.28113 5.24737L5.96863 5.02197L5.65613 5.24737C5.61238 5.27868 5.56238 5.23485 5.57488 5.19102L5.69363 4.82161L5.38113 4.58995C5.34363 4.55864 5.36238 4.49603 5.41238 4.49603H5.79988L5.92488 4.12662C5.92488 4.08279 5.99363 4.08279 6.01238 4.12662Z" fill="#F5F5F5"/>
<path d="M6.01238 6.04831L6.13738 6.41772H6.52488C6.57488 6.41772 6.59363 6.48033 6.55613 6.51163L6.24363 6.7433L6.36238 7.11271C6.37488 7.1628 6.32488 7.20036 6.28113 7.16906L5.96863 6.94365L5.65613 7.16906C5.61238 7.20036 5.56238 7.15653 5.57488 7.11271L5.69363 6.7433L5.38113 6.51163C5.34363 6.48033 5.36238 6.41772 5.41238 6.41772H5.79988L5.92488 6.04831C5.92488 5.99822 5.99363 5.99822 6.01238 6.04831Z" fill="#F5F5F5"/>
<path d="M6.01238 7.97018L6.13738 8.33959H6.52488C6.57488 8.33959 6.59363 8.40221 6.55613 8.43351L6.24363 8.66518L6.36238 9.03459C6.37488 9.08468 6.32488 9.12224 6.28113 9.09094L5.96863 8.86553L5.65613 9.09094C5.61238 9.12224 5.56238 9.07841 5.57488 9.03459L5.69363 8.66518L5.38113 8.43351C5.34363 8.40221 5.36238 8.33959 5.41238 8.33959H5.79988L5.92488 7.97018C5.92488 7.92009 5.99363 7.92009 6.01238 7.97018Z" fill="#F5F5F5"/>
<path d="M7.49871 1.27097L7.62371 1.64037H8.01121C8.06121 1.64037 8.07996 1.70299 8.04246 1.73429L7.72996 1.96596L7.84871 2.33536C7.86121 2.38545 7.81121 2.42302 7.76746 2.39172L7.45496 2.16631L7.14245 2.39172C7.0987 2.42302 7.0487 2.37919 7.0612 2.33536L7.17995 1.96596L6.86745 1.73429C6.82995 1.70299 6.8487 1.64037 6.8987 1.64037H7.28621L7.41121 1.27097C7.41121 1.22088 7.47996 1.22088 7.49871 1.27097Z" fill="#F5F5F5"/>
<path d="M7.49871 3.18717L7.62371 3.55658H8.01121C8.06121 3.55658 8.07996 3.61919 8.04246 3.65049L7.72996 3.88216L7.84871 4.25157C7.86121 4.30166 7.81121 4.33922 7.76746 4.30792L7.45496 4.08252L7.14245 4.30792C7.0987 4.33922 7.0487 4.2954 7.0612 4.25157L7.17995 3.88216L6.86745 3.65049C6.82995 3.61919 6.8487 3.55658 6.8987 3.55658H7.28621L7.41121 3.18717C7.41121 3.14334 7.47996 3.14334 7.49871 3.18717Z" fill="#F5F5F5"/>
<path d="M7.49871 5.10886L7.62371 5.47827H8.01121C8.06121 5.47827 8.07996 5.54088 8.04246 5.57218L7.72996 5.80385L7.84871 6.17326C7.86121 6.22335 7.81121 6.26091 7.76746 6.22961L7.45496 6.00421L7.14245 6.22961C7.0987 6.26091 7.0487 6.21709 7.0612 6.17326L7.17995 5.80385L6.86745 5.57218C6.82995 5.54088 6.8487 5.47827 6.8987 5.47827H7.28621L7.41121 5.10886C7.41121 5.05877 7.47996 5.05877 7.49871 5.10886Z" fill="#F5F5F5"/>
<path d="M7.49871 7.02506L7.62371 7.39447H8.01121C8.06121 7.39447 8.07996 7.45708 8.04246 7.48839L7.72996 7.72005L7.84871 8.08946C7.86121 8.13955 7.81121 8.17712 7.76746 8.14581L7.45496 7.92041L7.14245 8.14581C7.0987 8.17712 7.0487 8.13329 7.0612 8.08946L7.17995 7.72005L6.86745 7.48839C6.82995 7.45708 6.8487 7.39447 6.8987 7.39447H7.28621L7.41121 7.02506C7.41121 6.98123 7.47996 6.98123 7.49871 7.02506Z" fill="#F5F5F5"/>
<path d="M7.49871 8.94772L7.62371 9.31714H8.01121C8.06121 9.31714 8.07996 9.37975 8.04246 9.41105L7.72996 9.64272L7.84871 10.0121C7.86121 10.0622 7.81121 10.0998 7.76746 10.0685L7.45496 9.84308L7.14245 10.0685C7.0987 10.0998 7.0487 10.056 7.0612 10.0121L7.17995 9.64272L6.86745 9.41105C6.82995 9.37975 6.8487 9.31714 6.8987 9.31714H7.28621L7.41121 8.94772C7.41121 8.89763 7.47996 8.89763 7.49871 8.94772Z" fill="#F5F5F5"/>
<path d="M8.98699 2.21042L9.11199 2.57983H9.49949C9.54948 2.57983 9.56824 2.64244 9.53074 2.67375L9.21824 2.90541L9.33698 3.27482C9.34948 3.32491 9.29949 3.36247 9.25574 3.33117L8.94324 3.10577L8.63074 3.33117C8.58699 3.36247 8.53699 3.31865 8.54949 3.27482L8.66823 2.90541L8.35573 2.67375C8.31823 2.64244 8.33698 2.57983 8.38698 2.57983H8.77448L8.89948 2.21042C8.89948 2.16033 8.96824 2.16033 8.98699 2.21042Z" fill="#F5F5F5"/>
<path d="M8.98699 4.12662L9.11199 4.49603H9.49949C9.54948 4.49603 9.56824 4.55864 9.53074 4.58995L9.21824 4.82161L9.33698 5.19102C9.34948 5.24111 9.29949 5.27868 9.25574 5.24737L8.94324 5.02197L8.63074 5.24737C8.58699 5.27868 8.53699 5.23485 8.54949 5.19102L8.66823 4.82161L8.35573 4.58995C8.31823 4.55864 8.33698 4.49603 8.38698 4.49603H8.77448L8.89948 4.12662C8.89948 4.08279 8.96824 4.08279 8.98699 4.12662Z" fill="#F5F5F5"/>
<path d="M8.98699 6.04831L9.11199 6.41772H9.49949C9.54948 6.41772 9.56824 6.48033 9.53074 6.51163L9.21824 6.7433L9.33698 7.11271C9.34948 7.1628 9.29949 7.20036 9.25574 7.16906L8.94324 6.94365L8.63074 7.16906C8.58699 7.20036 8.53699 7.15653 8.54949 7.11271L8.66823 6.7433L8.35573 6.51163C8.31823 6.48033 8.33698 6.41772 8.38698 6.41772H8.77448L8.89948 6.04831C8.89948 5.99822 8.96824 5.99822 8.98699 6.04831Z" fill="#F5F5F5"/>
<path d="M8.98699 7.97018L9.11199 8.33959H9.49949C9.54948 8.33959 9.56824 8.40221 9.53074 8.43351L9.21824 8.66518L9.33698 9.03459C9.34948 9.08468 9.29949 9.12224 9.25574 9.09094L8.94324 8.86553L8.63074 9.09094C8.58699 9.12224 8.53699 9.07841 8.54949 9.03459L8.66823 8.66518L8.35573 8.43351C8.31823 8.40221 8.33698 8.33959 8.38698 8.33959H8.77448L8.89948 7.97018C8.89948 7.92009 8.96824 7.92009 8.98699 7.97018Z" fill="#F5F5F5"/>
<path d="M10.4675 1.27097L10.5925 1.64037H10.98C11.03 1.64037 11.0487 1.70299 11.0112 1.73429L10.6987 1.96596L10.8175 2.33536C10.83 2.38545 10.78 2.42302 10.7362 2.39172L10.4237 2.16631L10.1112 2.39172C10.0675 2.42302 10.0175 2.37919 10.03 2.33536L10.1487 1.96596L9.8362 1.73429C9.7987 1.70299 9.81745 1.64037 9.86745 1.64037H10.255L10.38 1.27097C10.3862 1.22088 10.455 1.22088 10.4675 1.27097Z" fill="#F5F5F5"/>
<path d="M10.4675 3.18717L10.5925 3.55658H10.98C11.03 3.55658 11.0487 3.61919 11.0112 3.65049L10.6987 3.88216L10.8175 4.25157C10.83 4.30166 10.78 4.33922 10.7362 4.30792L10.4237 4.08252L10.1112 4.30792C10.0675 4.33922 10.0175 4.2954 10.03 4.25157L10.1487 3.88216L9.8362 3.65049C9.7987 3.61919 9.81745 3.55658 9.86745 3.55658H10.255L10.38 3.18717C10.3862 3.14334 10.455 3.14334 10.4675 3.18717Z" fill="#F5F5F5"/>
<path d="M10.4675 5.10886L10.5925 5.47827H10.98C11.03 5.47827 11.0487 5.54088 11.0112 5.57218L10.6987 5.80385L10.8175 6.17326C10.83 6.22335 10.78 6.26091 10.7362 6.22961L10.4237 6.00421L10.1112 6.22961C10.0675 6.26091 10.0175 6.21709 10.03 6.17326L10.1487 5.80385L9.8362 5.57218C9.7987 5.54088 9.81745 5.47827 9.86745 5.47827H10.255L10.38 5.10886C10.3862 5.05877 10.455 5.05877 10.4675 5.10886Z" fill="#F5F5F5"/>
<path d="M10.4675 7.02506L10.5925 7.39447H10.98C11.03 7.39447 11.0487 7.45708 11.0112 7.48839L10.6987 7.72005L10.8175 8.08946C10.83 8.13955 10.78 8.17712 10.7362 8.14581L10.4237 7.92041L10.1112 8.14581C10.0675 8.17712 10.0175 8.13329 10.03 8.08946L10.1487 7.72005L9.8362 7.48839C9.7987 7.45708 9.81745 7.39447 9.86745 7.39447H10.255L10.38 7.02506C10.3862 6.98123 10.455 6.98123 10.4675 7.02506Z" fill="#F5F5F5"/>
<path d="M10.4675 8.94772L10.5925 9.31714H10.98C11.03 9.31714 11.0487 9.37975 11.0112 9.41105L10.6987 9.64272L10.8175 10.0121C10.83 10.0622 10.78 10.0998 10.7362 10.0685L10.4237 9.84308L10.1112 10.0685C10.0675 10.0998 10.0175 10.056 10.03 10.0121L10.1487 9.64272L9.8362 9.41105C9.7987 9.37975 9.81745 9.31714 9.86745 9.31714H10.255L10.38 8.94772C10.3862 8.89763 10.455 8.89763 10.4675 8.94772Z" fill="#F5F5F5"/>
<path d="M11.9557 2.21042L12.0807 2.57983H12.4682C12.5182 2.57983 12.537 2.64244 12.4995 2.67375L12.187 2.90541L12.3057 3.27482C12.3182 3.32491 12.2682 3.36247 12.2245 3.33117L11.912 3.10577L11.5995 3.33117C11.5557 3.36247 11.5057 3.31865 11.5182 3.27482L11.637 2.90541L11.3245 2.67375C11.287 2.64244 11.3057 2.57983 11.3557 2.57983H11.7432L11.8682 2.21042C11.8745 2.16033 11.9432 2.16033 11.9557 2.21042Z" fill="#F5F5F5"/>
<path d="M11.9557 4.12662L12.0807 4.49603H12.4682C12.5182 4.49603 12.537 4.55864 12.4995 4.58995L12.187 4.82161L12.3057 5.19102C12.3182 5.24111 12.2682 5.27868 12.2245 5.24737L11.912 5.02197L11.5995 5.24737C11.5557 5.27868 11.5057 5.23485 11.5182 5.19102L11.637 4.82161L11.3245 4.58995C11.287 4.55864 11.3057 4.49603 11.3557 4.49603H11.7432L11.8682 4.12662C11.8745 4.08279 11.9432 4.08279 11.9557 4.12662Z" fill="#F5F5F5"/>
<path d="M11.9557 6.04831L12.0807 6.41772H12.4682C12.5182 6.41772 12.537 6.48033 12.4995 6.51163L12.187 6.7433L12.3057 7.11271C12.3182 7.1628 12.2682 7.20036 12.2245 7.16906L11.912 6.94365L11.5995 7.16906C11.5557 7.20036 11.5057 7.15653 11.5182 7.11271L11.637 6.7433L11.3245 6.51163C11.287 6.48033 11.3057 6.41772 11.3557 6.41772H11.7432L11.8682 6.04831C11.8745 5.99822 11.9432 5.99822 11.9557 6.04831Z" fill="#F5F5F5"/>
<path d="M11.9557 7.97018L12.0807 8.33959H12.4682C12.5182 8.33959 12.537 8.40221 12.4995 8.43351L12.187 8.66518L12.3057 9.03459C12.3182 9.08468 12.2682 9.12224 12.2245 9.09094L11.912 8.86553L11.5995 9.09094C11.5557 9.12224 11.5057 9.07841 11.5182 9.03459L11.637 8.66518L11.3245 8.43351C11.287 8.40221 11.3057 8.33959 11.3557 8.33959H11.7432L11.8682 7.97018C11.8745 7.92009 11.9432 7.92009 11.9557 7.97018Z" fill="#F5F5F5"/>
<path d="M13.444 1.27097L13.569 1.64037H13.9565C14.0065 1.64037 14.0253 1.70299 13.9878 1.73429L13.6753 1.96596L13.794 2.33536C13.8065 2.38545 13.7565 2.42302 13.7128 2.39172L13.4003 2.16631L13.0878 2.39172C13.044 2.42302 12.994 2.37919 13.0065 2.33536L13.1253 1.96596L12.8128 1.73429C12.7753 1.70299 12.794 1.64037 12.844 1.64037H13.2315L13.3565 1.27097C13.3628 1.22088 13.4315 1.22088 13.444 1.27097Z" fill="#F5F5F5"/>
<path d="M13.444 3.18717L13.569 3.55658H13.9565C14.0065 3.55658 14.0253 3.61919 13.9878 3.65049L13.6753 3.88216L13.794 4.25157C13.8065 4.30166 13.7565 4.33922 13.7128 4.30792L13.4003 4.08252L13.0878 4.30792C13.044 4.33922 12.994 4.2954 13.0065 4.25157L13.1253 3.88216L12.8128 3.65049C12.7753 3.61919 12.794 3.55658 12.844 3.55658H13.2315L13.3565 3.18717C13.3628 3.14334 13.4315 3.14334 13.444 3.18717Z" fill="#F5F5F5"/>
<path d="M13.444 5.10886L13.569 5.47827H13.9565C14.0065 5.47827 14.0253 5.54088 13.9878 5.57218L13.6753 5.80385L13.794 6.17326C13.8065 6.22335 13.7565 6.26091 13.7128 6.22961L13.4003 6.00421L13.0878 6.22961C13.044 6.26091 12.994 6.21709 13.0065 6.17326L13.1253 5.80385L12.8128 5.57218C12.7753 5.54088 12.794 5.47827 12.844 5.47827H13.2315L13.3565 5.10886C13.3628 5.05877 13.4315 5.05877 13.444 5.10886Z" fill="#F5F5F5"/>
<path d="M13.444 7.02506L13.569 7.39447H13.9565C14.0065 7.39447 14.0253 7.45708 13.9878 7.48839L13.6753 7.72005L13.794 8.08946C13.8065 8.13955 13.7565 8.17712 13.7128 8.14581L13.4003 7.92041L13.0878 8.14581C13.044 8.17712 12.994 8.13329 13.0065 8.08946L13.1253 7.72005L12.8128 7.48839C12.7753 7.45708 12.794 7.39447 12.844 7.39447H13.2315L13.3565 7.02506C13.3628 6.98123 13.4315 6.98123 13.444 7.02506Z" fill="#F5F5F5"/>
<path d="M13.444 8.94772L13.569 9.31714H13.9565C14.0065 9.31714 14.0253 9.37975 13.9878 9.41105L13.6753 9.64272L13.794 10.0121C13.8065 10.0622 13.7565 10.0998 13.7128 10.0685L13.4003 9.84308L13.0878 10.0685C13.044 10.0998 12.994 10.056 13.0065 10.0121L13.1253 9.64272L12.8128 9.41105C12.7753 9.37975 12.794 9.31714 12.844 9.31714H13.2315L13.3565 8.94772C13.3628 8.89763 13.4315 8.89763 13.444 8.94772Z" fill="#F5F5F5"/>
</svg>
