<svg width="18" height="21" viewBox="0 0 18 21" fill="none" xmlns="http://www.w3.org/2000/svg">
<path d="M11 3H13C14.3261 3 15.5979 3.52678 16.5355 4.46447C17.4732 5.40215 18 6.67392 18 8V12H16V8C16 7.20435 15.6839 6.44129 15.1213 5.87868C14.5587 5.31607 13.7956 5 13 5H11V8L6 4L11 0V3ZM12 10V20C12 20.2652 11.8946 20.5196 11.7071 20.7071C11.5196 20.8946 11.2652 21 11 21H1C0.734784 21 0.48043 20.8946 0.292893 20.7071C0.105357 20.5196 0 20.2652 0 20V10C0 9.73478 0.105357 9.48043 0.292893 9.29289C0.48043 9.10536 0.734784 9 1 9H11C11.2652 9 11.5196 9.10536 11.7071 9.29289C11.8946 9.48043 12 9.73478 12 10Z" fill="white"/>
</svg>
