<svg width="212" height="111" viewBox="0 0 212 111" fill="none" xmlns="http://www.w3.org/2000/svg">
<g clip-path="url(#clip0)">
<path d="M51.1954 25.7437C56.1928 28.5299 60.0796 32.4305 62.8559 37.4455C65.6323 42.4606 67.076 48.2558 67.076 54.7196C67.076 61.2949 65.6323 67.0901 62.8559 72.1052C60.0796 77.1202 56.1928 81.0208 51.1954 83.807C46.198 86.5931 40.6454 87.9305 34.3153 87.9305C29.6511 87.9305 25.4311 87.0389 21.5443 85.2558C17.6574 83.4727 14.4369 80.798 11.6606 77.4546V111.111H0V22.1775H11.2163V32.4305C13.7706 28.8642 17.1021 26.0781 21.1001 24.2949C25.098 22.4004 29.5401 21.5088 34.3153 21.5088C40.6454 21.5088 46.198 22.9576 51.1954 25.7437ZM44.5322 74.6684C47.8638 72.7739 50.418 70.0992 52.3059 66.5329C54.1938 63.0781 55.1933 59.066 55.1933 54.6082C55.1933 50.1504 54.1938 46.1383 52.3059 42.6835C50.418 39.2287 47.7528 36.554 44.5322 34.6594C41.2006 32.7648 37.5359 31.8732 33.3159 31.8732C29.2069 31.8732 25.5422 32.8763 22.2106 34.7708C18.879 36.6654 16.3248 39.3401 14.4369 42.7949C12.549 46.2498 11.5495 50.1504 11.5495 54.7196C11.5495 59.1775 12.4379 63.1895 14.3258 66.6443C16.2137 70.0992 18.7679 72.7739 22.0995 74.7799C25.4311 76.6745 29.0959 77.6775 33.2048 77.6775C37.5359 77.566 41.3117 76.6745 44.5322 74.6684Z" fill="url(#paint0_linear)"/>
<path d="M76.182 13.1505C74.6273 11.7017 73.9609 9.91856 73.9609 7.80109C73.9609 5.68362 74.7383 3.90048 76.182 2.34024C77.7367 0.780003 79.6246 0.111328 81.8457 0.111328C84.1778 0.111328 86.0657 0.780003 87.5094 2.2288C89.0641 3.67759 89.7305 5.46073 89.7305 7.5782C89.7305 9.80711 88.9531 11.7017 87.5094 13.1505C85.9547 14.7107 84.0668 15.3794 81.8457 15.3794C79.6246 15.3794 77.7367 14.5993 76.182 13.1505ZM76.0709 27.8613H87.7315V92.8342H76.0709V27.8613Z" fill="url(#paint1_linear)"/>
<path d="M144.146 92.8342L125.378 67.9818L106.499 92.8342H93.3945L118.937 59.6234L94.6161 27.8613H107.72L125.6 51.2649L143.368 27.8613H156.25L131.819 59.6234L157.583 92.8342H144.146Z" fill="url(#paint2_linear)"/>
<path d="M211.999 59.6234H189.789V81.5782H179.572V59.6234H157.361V49.9276H179.572V27.8613H189.789V49.9276H211.999V59.6234Z" fill="url(#paint3_linear)"/>
</g>
<defs>
<linearGradient id="paint0_linear" x1="33.5589" y1="501.493" x2="33.5589" y2="26.6053" gradientUnits="userSpaceOnUse">
<stop stop-color="#C8176F"/>
<stop offset="1" stop-color="#28D4FF"/>
</linearGradient>
<linearGradient id="paint1_linear" x1="81.9093" y1="507.202" x2="81.9093" y2="32.3145" gradientUnits="userSpaceOnUse">
<stop stop-color="#C8176F"/>
<stop offset="1" stop-color="#28D4FF"/>
</linearGradient>
<linearGradient id="paint2_linear" x1="125.43" y1="507.202" x2="125.43" y2="32.3145" gradientUnits="userSpaceOnUse">
<stop stop-color="#C8176F"/>
<stop offset="1" stop-color="#28D4FF"/>
</linearGradient>
<linearGradient id="paint3_linear" x1="184.601" y1="512.027" x2="184.601" y2="37.1392" gradientUnits="userSpaceOnUse">
<stop stop-color="#C8176F"/>
<stop offset="1" stop-color="#28D4FF"/>
</linearGradient>
<clipPath id="clip0">
<rect width="212" height="111" fill="white"/>
</clipPath>
</defs>
</svg>
