<svg width="212" height="111" viewBox="0 0 212 111" fill="none" xmlns="http://www.w3.org/2000/svg">
<g clip-path="url(#clip0)">
<path d="M51.1954 25.744C56.1928 28.5301 60.0796 32.4307 62.8559 37.4458C65.6323 42.4608 67.076 48.256 67.076 54.7199C67.076 61.2952 65.6323 67.0904 62.8559 72.1054C60.0796 77.1205 56.1928 81.0211 51.1954 83.8072C46.198 86.5934 40.6454 87.9307 34.3153 87.9307C29.6511 87.9307 25.4311 87.0392 21.5443 85.256C17.6574 83.4729 14.4369 80.7982 11.6606 77.4548V111.111H0V22.1777H11.2163V32.4307C13.7706 28.8645 17.1021 26.0783 21.1001 24.2952C25.098 22.4006 29.5401 21.509 34.3153 21.509C40.6454 21.509 46.198 22.9578 51.1954 25.744ZM44.5322 74.6687C47.8638 72.7741 50.418 70.0994 52.3059 66.5331C54.1938 63.0783 55.1933 59.0663 55.1933 54.6084C55.1933 50.1506 54.1938 46.1386 52.3059 42.6837C50.418 39.2289 47.7527 36.5542 44.5322 34.6596C41.2006 32.7651 37.5359 31.8735 33.3159 31.8735C29.2069 31.8735 25.5422 32.8765 22.2106 34.7711C18.879 36.6657 16.3248 39.3404 14.4369 42.7952C12.549 46.25 11.5495 50.1506 11.5495 54.7199C11.5495 59.1777 12.4379 63.1898 14.3258 66.6446C16.2137 70.0994 18.7679 72.7741 22.0995 74.7801C25.4311 76.6747 29.0959 77.6777 33.2048 77.6777C37.5359 77.5663 41.3117 76.6747 44.5322 74.6687Z" fill="white"/>
<path d="M76.1822 13.1506C74.6275 11.7018 73.9612 9.91868 73.9612 7.80121C73.9612 5.68374 74.7386 3.90061 76.1822 2.34037C77.737 0.780125 79.6249 0.11145 81.8459 0.11145C84.1781 0.11145 86.066 0.780125 87.5096 2.22892C89.0644 3.67772 89.7307 5.46085 89.7307 7.57832C89.7307 9.80723 88.9533 11.7018 87.5096 13.1506C85.9549 14.7108 84.067 15.3795 81.8459 15.3795C79.6249 15.3795 77.737 14.5994 76.1822 13.1506ZM76.0712 27.8615H87.7317V92.8344H76.0712V27.8615Z" fill="white"/>
<path d="M144.147 92.8344L125.379 67.9819L106.5 92.8344H93.3955L118.938 59.6235L94.6171 27.8615H107.721L125.601 51.2651L143.369 27.8615H156.251L131.82 59.6235L157.584 92.8344H144.147Z" fill="white"/>
<path d="M212 59.6235H189.789V81.5783H179.573V59.6235H157.362V49.9277H179.573V27.8615H189.789V49.9277H212V59.6235Z" fill="white"/>
</g>
<defs>
<clipPath id="clip0">
<rect width="212" height="111" fill="white"/>
</clipPath>
</defs>
</svg>
