<svg width="19" height="20" viewBox="0 0 19 20" fill="none" xmlns="http://www.w3.org/2000/svg">
<path d="M3.828 5.9998L6.364 8.5358L4.95 9.9498L0 4.9998L4.95 0.0498047L6.364 1.4638L3.828 3.9998H11C13.1217 3.9998 15.1566 4.84266 16.6569 6.34295C18.1571 7.84324 19 9.87807 19 11.9998C19 14.1215 18.1571 16.1564 16.6569 17.6567C15.1566 19.157 13.1217 19.9998 11 19.9998H2V17.9998H11C12.5913 17.9998 14.1174 17.3677 15.2426 16.2424C16.3679 15.1172 17 13.5911 17 11.9998C17 10.4085 16.3679 8.88238 15.2426 7.75716C14.1174 6.63195 12.5913 5.9998 11 5.9998H3.828Z" fill="white"/>
</svg>
