<svg width="358" height="93" viewBox="0 0 358 93" fill="none" xmlns="http://www.w3.org/2000/svg">
<path d="M11.4373 90.8964C6.55149 89.4571 2.77605 87.6857 0 85.4714L4.88586 76.1714C7.77295 78.1643 11.2153 79.825 15.3238 81.0429C19.4324 82.2607 23.5409 82.925 27.6495 82.925C37.8654 82.925 43.0844 80.0464 43.0844 74.1786C43.0844 72.1857 42.4181 70.6357 40.9746 69.5286C39.6421 68.4214 37.8654 67.5357 35.7556 66.9821C33.6458 66.4286 30.7587 65.875 26.8722 65.2107C21.6532 64.4357 17.4336 63.4393 14.1024 62.4429C10.7711 61.3357 7.99504 59.5643 5.55211 57.1286C3.22022 54.5821 1.99876 51.0393 1.99876 46.5C1.99876 40.6321 4.44169 35.9821 9.32754 32.4393C14.2134 28.8964 20.7649 27.125 28.982 27.125C33.3127 27.125 37.6433 27.6786 41.9739 28.675C46.3046 29.7821 49.8579 31.1107 52.634 32.9929L47.6371 42.2929C42.3071 38.8607 36.0887 37.2 28.982 37.2C23.9851 37.2 20.2097 37.975 17.6557 39.6357C15.1017 41.2964 13.7692 43.4 13.7692 46.0571C13.7692 48.1607 14.5465 49.8214 15.9901 51.0393C17.4336 52.2571 19.3213 53.1429 21.4311 53.6964C23.5409 54.25 26.6501 54.9143 30.5366 55.6893C35.7556 56.575 39.9752 57.5714 43.1954 58.5679C46.4156 59.5643 49.1917 61.3357 51.4125 63.7714C53.7444 66.2071 54.8548 69.6393 54.8548 73.9571C54.8548 79.825 52.3009 84.475 47.304 87.9071C42.196 91.2286 35.4225 93 26.7612 93C21.4311 93 16.4342 92.3357 11.4373 90.8964Z" fill="url(#paint0_linear)"/>
<path d="M162.565 34.0999C167.34 38.8606 169.672 45.8356 169.672 55.0249V92.2249H157.902V56.4642C157.902 50.1534 156.458 45.5034 153.571 42.2927C150.684 39.082 146.575 37.532 141.134 37.532C135.138 37.532 130.474 39.4142 126.921 43.0677C123.368 46.7213 121.702 52.0356 121.702 59.0106V92.3356H110.042V56.4642C110.042 50.1534 108.599 45.5034 105.712 42.2927C102.825 39.082 98.7162 37.532 93.2751 37.532C87.2788 37.532 82.6151 39.4142 79.0617 43.0677C75.5084 46.7213 73.8427 52.0356 73.8427 59.0106V92.3356H62.0723V27.6784H73.2875V37.3106C75.6194 33.9892 78.7286 31.4427 82.6151 29.6713C86.3905 27.8999 90.8322 27.0142 95.718 27.0142C100.715 27.0142 105.268 28.0106 109.154 30.1142C113.041 32.107 116.039 35.0963 118.149 38.9713C120.591 35.207 124.034 32.3284 128.364 30.2249C132.695 28.1213 137.581 27.0142 143.133 27.0142C151.239 27.0142 157.791 29.4499 162.565 34.0999Z" fill="url(#paint1_linear)"/>
<path d="M184.108 13.0644C182.553 11.6251 181.887 9.8537 181.887 7.75013C181.887 5.64655 182.664 3.87513 184.108 2.32513C185.662 0.775125 187.55 0.11084 189.771 0.11084C192.103 0.11084 193.99 0.775126 195.434 2.21441C196.988 3.6537 197.655 5.42513 197.655 7.5287C197.655 9.74298 196.877 11.6251 195.434 13.0644C193.879 14.6144 191.992 15.2787 189.771 15.2787C187.55 15.2787 185.662 14.5037 184.108 13.0644ZM183.997 27.6787H195.767V92.2251H183.997V27.6787Z" fill="url(#paint2_linear)"/>
<path d="M210.758 1.88232H222.528V92.3359H210.758V1.88232Z" fill="url(#paint3_linear)"/>
<path d="M295.817 63.8821H243.294C244.071 69.5286 246.514 74.1786 250.844 77.6107C255.175 81.0429 260.394 82.8143 266.835 82.8143C274.608 82.8143 280.826 80.2679 285.49 75.0643L291.93 82.5929C289.043 86.025 285.379 88.5714 280.937 90.3429C276.606 92.1143 271.72 93 266.279 93C259.395 93 253.398 91.5607 248.068 88.7929C242.738 86.025 238.63 82.0393 235.743 77.0571C232.856 72.075 231.412 66.3179 231.412 60.0071C231.412 53.6964 232.856 48.05 235.632 43.0679C238.408 38.0857 242.294 34.1 247.291 31.3321C252.177 28.5643 257.729 27.125 263.947 27.125C270.166 27.125 275.607 28.5643 280.493 31.3321C285.379 34.1 289.154 38.0857 291.819 43.0679C294.595 48.1607 295.928 53.9179 295.928 60.3393C296.039 61.225 296.039 62.4429 295.817 63.8821ZM249.956 42.0714C246.181 45.5036 243.96 49.9321 243.294 55.4679H284.823C284.157 50.0429 281.936 45.6143 278.161 42.0714C274.385 38.6393 269.611 36.8679 264.059 36.8679C258.395 36.9786 253.732 38.6393 249.956 42.0714Z" fill="url(#paint4_linear)"/>
<path d="M358 60.0072H335.791V81.8179H325.576V60.0072H303.367V50.375H325.576V28.4536H335.791V50.375H358V60.0072Z" fill="url(#paint5_linear)"/>
<defs>
<linearGradient id="paint0_linear" x1="27.3827" y1="34.453" x2="27.3827" y2="-437.318" gradientUnits="userSpaceOnUse">
<stop stop-color="#C8176F"/>
<stop offset="1" stop-color="#28D4FF"/>
</linearGradient>
<linearGradient id="paint1_linear" x1="115.886" y1="34.4528" x2="115.886" y2="-437.318" gradientUnits="userSpaceOnUse">
<stop stop-color="#C8176F"/>
<stop offset="1" stop-color="#28D4FF"/>
</linearGradient>
<linearGradient id="paint2_linear" x1="189.841" y1="34.4531" x2="189.841" y2="-437.318" gradientUnits="userSpaceOnUse">
<stop stop-color="#C8176F"/>
<stop offset="1" stop-color="#28D4FF"/>
</linearGradient>
<linearGradient id="paint3_linear" x1="216.611" y1="34.4531" x2="216.611" y2="-437.318" gradientUnits="userSpaceOnUse">
<stop stop-color="#C8176F"/>
<stop offset="1" stop-color="#28D4FF"/>
</linearGradient>
<linearGradient id="paint4_linear" x1="263.797" y1="34.453" x2="263.797" y2="-437.318" gradientUnits="userSpaceOnUse">
<stop stop-color="#C8176F"/>
<stop offset="1" stop-color="#28D4FF"/>
</linearGradient>
<linearGradient id="paint5_linear" x1="330.663" y1="39.9769" x2="330.663" y2="-431.794" gradientUnits="userSpaceOnUse">
<stop stop-color="#C8176F"/>
<stop offset="1" stop-color="#28D4FF"/>
</linearGradient>
</defs>
</svg>
