<svg width="380" height="445" viewBox="0 0 380 445" fill="none" xmlns="http://www.w3.org/2000/svg">
<path d="M189.921 293.78C155.23 293.78 127.094 265.557 127.094 230.759C127.094 230.438 127.094 230.117 127.094 229.797V229.636V151.06H136.686V230.759C136.686 260.265 160.506 284.159 189.921 284.159C219.336 284.159 243.156 260.265 243.156 230.759C243.156 230.278 243.156 229.797 243.156 229.315V151.06H252.748V229.155C252.748 229.636 252.748 230.117 252.748 230.759C252.748 265.397 224.612 293.78 189.921 293.78Z" fill="url(#paint0_linear)"/>
<path d="M189.92 323.928C141.32 323.928 101.674 284.158 101.674 235.409C101.674 234.928 101.674 234.286 101.674 233.805V120.751H111.266V233.965C111.266 234.607 111.266 235.088 111.266 235.569C111.266 279.027 146.596 314.466 189.92 314.466C233.243 314.466 268.573 279.027 268.573 235.409C268.573 234.767 268.573 233.965 268.573 233.324V120.751H278.165V233.164C278.165 233.805 278.165 234.607 278.165 235.409C278.165 284.319 238.678 323.928 189.92 323.928Z" fill="url(#paint1_linear)"/>
<path d="M189.92 354.236C127.253 354.236 76.2559 303.081 76.2559 240.22C76.2559 239.578 76.2559 238.937 76.2559 238.295V238.135V90.6035H85.8478V238.456C85.8478 239.097 85.8478 239.578 85.8478 240.22C85.8478 297.789 132.528 344.614 189.92 344.614C247.312 344.614 293.993 297.789 293.993 240.22C293.993 239.258 293.993 238.295 293.993 237.333V90.6035H303.584V237.173C303.584 238.135 303.584 239.097 303.584 240.22C303.744 303.081 252.747 354.236 189.92 354.236Z" fill="url(#paint2_linear)"/>
<path d="M189.921 384.544C113.185 384.544 50.8379 322.004 50.8379 245.031C50.8379 244.229 50.8379 243.588 50.8379 242.946V242.625V60.4561H60.4298V243.107C60.4298 243.748 60.4298 244.389 60.4298 245.031C60.4298 316.712 118.461 374.923 189.921 374.923C261.381 374.923 319.412 316.712 319.412 245.031C319.412 243.908 319.412 242.625 319.412 241.503V60.4561H329.004V241.343C329.004 242.465 329.004 243.748 329.004 245.031C329.164 321.843 266.656 384.544 189.921 384.544Z" fill="url(#paint3_linear)"/>
<path d="M189.919 414.852C99.1159 414.852 25.418 340.766 25.418 249.841C25.418 248.879 25.418 247.917 25.418 247.115V246.955V30.4683H35.0099V247.436C35.0099 248.238 35.0099 249.2 35.0099 250.002C35.0099 335.634 104.551 405.391 189.919 405.391C275.288 405.391 344.829 335.634 344.829 250.002C344.829 248.558 344.829 247.115 344.829 245.832V30.6286H354.421V245.351C354.421 246.794 354.421 248.238 354.421 249.681C354.581 340.766 280.723 414.852 189.919 414.852Z" fill="url(#paint4_linear)"/>
<path d="M189.92 445C85.2082 445 0 359.528 0 254.492C0 253.53 0 252.407 0 251.445V251.124V0H9.59192V251.605C9.59192 252.568 9.59192 253.53 9.59192 254.492C9.59192 354.236 90.4838 435.378 189.92 435.378C289.356 435.378 370.248 354.236 370.248 254.492C370.248 252.888 370.248 251.124 370.248 249.521V0H379.84V249.36C379.84 250.964 379.84 252.728 379.84 254.492C380 359.528 294.792 445 189.92 445Z" fill="url(#paint5_linear)"/>
<defs>
<linearGradient id="paint0_linear" x1="189.995" y1="289.015" x2="189.995" y2="84.9824" gradientUnits="userSpaceOnUse">
<stop stop-color="#C8176F"/>
<stop offset="1" stop-color="#28D4FF"/>
</linearGradient>
<linearGradient id="paint1_linear" x1="189.994" y1="289.015" x2="189.994" y2="84.982" gradientUnits="userSpaceOnUse">
<stop stop-color="#C8176F"/>
<stop offset="1" stop-color="#28D4FF"/>
</linearGradient>
<linearGradient id="paint2_linear" x1="189.994" y1="289.015" x2="189.994" y2="84.9822" gradientUnits="userSpaceOnUse">
<stop stop-color="#C8176F"/>
<stop offset="1" stop-color="#28D4FF"/>
</linearGradient>
<linearGradient id="paint3_linear" x1="189.995" y1="289.015" x2="189.995" y2="84.9825" gradientUnits="userSpaceOnUse">
<stop stop-color="#C8176F"/>
<stop offset="1" stop-color="#28D4FF"/>
</linearGradient>
<linearGradient id="paint4_linear" x1="189.994" y1="289.015" x2="189.994" y2="84.9821" gradientUnits="userSpaceOnUse">
<stop stop-color="#C8176F"/>
<stop offset="1" stop-color="#28D4FF"/>
</linearGradient>
<linearGradient id="paint5_linear" x1="189.994" y1="289.015" x2="189.994" y2="84.9823" gradientUnits="userSpaceOnUse">
<stop stop-color="#C8176F"/>
<stop offset="1" stop-color="#28D4FF"/>
</linearGradient>
</defs>
</svg>
