<svg width="127" height="67" viewBox="0 0 127 67" fill="none" xmlns="http://www.w3.org/2000/svg">
<g clip-path="url(#clip0)">
<path d="M79.4401 25.9551V40.2001H77.0116V38.0513C76.4827 38.7756 75.8095 39.3551 74.9679 39.7655C74.1264 40.176 73.1887 40.3691 72.2029 40.3691C70.3034 40.3691 68.8127 39.838 67.7307 38.7998C66.6487 37.7616 66.0957 36.2163 66.0957 34.1641V25.9792H68.6684V33.8744C68.6684 35.2506 69.005 36.2888 69.6542 37.0131C70.3034 37.7133 71.2652 38.0754 72.4914 38.0754C73.8379 38.0754 74.9198 37.665 75.6892 36.8441C76.4827 36.0232 76.8674 34.8643 76.8674 33.3432V25.9792H79.4401V25.9551Z" fill="black"/>
<path d="M96.6316 20.2568V40.1757H94.1792V37.9303C93.6021 38.7271 92.8808 39.3066 92.0152 39.7412C91.1496 40.1516 90.1879 40.3689 89.1299 40.3689C87.7594 40.3689 86.5332 40.055 85.4272 39.4514C84.3452 38.8478 83.4796 37.9786 82.8785 36.8921C82.2534 35.7815 81.9648 34.526 81.9648 33.1015C81.9648 31.677 82.2774 30.3974 82.8785 29.3109C83.5037 28.2244 84.3452 27.3794 85.4272 26.7516C86.5091 26.148 87.7354 25.8341 89.1299 25.8341C90.1398 25.8341 91.0775 26.0273 91.9431 26.4136C92.8087 26.7999 93.5059 27.3552 94.083 28.1278V20.2568H96.6316ZM91.7748 37.4475C92.4961 37.037 93.0731 36.4334 93.4819 35.6849C93.8906 34.9123 94.107 34.0431 94.107 33.0774C94.107 32.0875 93.8906 31.2183 93.4819 30.4698C93.0731 29.6972 92.4961 29.1177 91.7748 28.7073C91.0535 28.2968 90.236 28.0795 89.3463 28.0795C88.4327 28.0795 87.6152 28.2968 86.8939 28.7073C86.1725 29.1177 85.5955 29.6972 85.1867 30.4698C84.778 31.2424 84.5616 32.1116 84.5616 33.0774C84.5616 34.0673 84.778 34.9365 85.1867 35.6849C85.5955 36.4576 86.1725 37.037 86.8939 37.4475C87.6152 37.8579 88.4327 38.0752 89.3463 38.0752C90.236 38.0752 91.0535 37.8821 91.7748 37.4475Z" fill="black"/>
<path d="M100.478 22.7196C100.141 22.4057 99.9727 21.9953 99.9727 21.5365C99.9727 21.0778 100.141 20.6673 100.478 20.3535C100.814 20.0154 101.223 19.8464 101.728 19.8464C102.233 19.8464 102.642 20.0154 102.978 20.3052C103.315 20.619 103.483 21.0054 103.483 21.4641C103.483 21.947 103.315 22.3574 102.978 22.6954C102.642 23.0335 102.233 23.2025 101.728 23.2025C101.223 23.2025 100.814 23.0576 100.478 22.7196ZM100.429 25.9549H103.002V40.2H100.429V25.9549Z" fill="black"/>
<path d="M118.704 27.3793C119.762 28.4175 120.291 29.9627 120.291 31.9908V40.1757H117.718V32.2805C117.718 30.9043 117.381 29.8661 116.732 29.1659C116.083 28.4658 115.121 28.1277 113.895 28.1277C112.501 28.1277 111.419 28.5382 110.601 29.3591C109.808 30.18 109.399 31.3389 109.399 32.86V40.1998H106.826V25.9548H109.279V28.1036C109.784 27.3793 110.505 26.7998 111.37 26.4135C112.26 26.0272 113.246 25.834 114.376 25.834C116.203 25.8099 117.622 26.3411 118.704 27.3793Z" fill="black"/>
<path d="M124.017 22.7196C123.68 22.4057 123.512 21.9953 123.512 21.5365C123.512 21.0778 123.68 20.6673 124.017 20.3535C124.353 20.0154 124.762 19.8464 125.267 19.8464C125.772 19.8464 126.181 20.0154 126.517 20.3052C126.854 20.619 127.022 21.0054 127.022 21.4641C127.022 21.947 126.854 22.3574 126.517 22.6954C126.181 23.0335 125.772 23.2025 125.267 23.2025C124.762 23.2025 124.353 23.0576 124.017 22.7196ZM123.969 25.9549H126.541V40.2H123.969V25.9549Z" fill="black"/>
<path d="M66.1211 44.1833H67.5397C67.8763 44.1833 68.1889 44.2558 68.4533 44.3765C68.7178 44.5214 68.9342 44.6904 69.0785 44.956C69.2227 45.1974 69.2949 45.4871 69.2949 45.801C69.2949 46.1149 69.2227 46.4046 69.0785 46.6461C68.9342 46.8875 68.7178 47.0807 68.4533 47.2255C68.1889 47.3704 67.8763 47.4187 67.5397 47.4187H66.1211V44.1833ZM67.4916 46.9358C67.732 46.9358 67.9484 46.8875 68.1167 46.7909C68.285 46.6943 68.4293 46.5736 68.5255 46.4046C68.6216 46.2356 68.6697 46.0425 68.6697 45.8252C68.6697 45.6079 68.6216 45.4147 68.5255 45.2457C68.4293 45.0767 68.285 44.956 68.1167 44.8594C67.9484 44.7628 67.732 44.7145 67.4916 44.7145H66.6981V46.9358H67.4916Z" fill="black"/>
<path d="M74.7526 46.9363V47.4433H72.3242V44.1838H74.6805V44.6909H72.9253V45.5359H74.4882V46.0429H72.9253V46.9363H74.7526Z" fill="black"/>
<path d="M80.6919 44.1838V47.4192H80.187L78.4077 45.222V47.4192H77.8066V44.1838H78.3116L80.0908 46.381V44.1838H80.6919Z" fill="black"/>
<path d="M84.6113 44.715H83.5293V44.1838H86.2703V44.6909H85.1883V47.4192H84.5872V44.715H84.6113Z" fill="black"/>
<path d="M91.0799 46.6946H89.469L89.1564 47.4431H88.5312L89.9979 44.2078H90.599L92.0657 47.4431H91.4406L91.0799 46.6946ZM90.8875 46.2117L90.2865 44.7872L89.6854 46.2117H90.8875Z" fill="black"/>
<path d="M94.8535 44.1838H95.4546V46.9121H97.1377V47.4192H94.8535V44.1838Z" fill="black"/>
<path d="M103.967 47.3708C103.727 47.2984 103.558 47.2018 103.414 47.0811L103.63 46.6224C103.775 46.7189 103.919 46.8155 104.111 46.888C104.304 46.9604 104.496 46.9845 104.688 46.9845C104.929 46.9845 105.097 46.9362 105.217 46.8638C105.338 46.7914 105.386 46.6948 105.386 46.5499C105.386 46.4534 105.362 46.3809 105.289 46.3085C105.217 46.2361 105.145 46.2119 105.049 46.1636C104.953 46.1395 104.809 46.0912 104.64 46.0429C104.4 45.9946 104.183 45.9222 104.039 45.8739C103.895 45.8256 103.751 45.729 103.655 45.6083C103.558 45.4876 103.486 45.3186 103.486 45.1013C103.486 44.9323 103.534 44.7633 103.63 44.6184C103.727 44.4735 103.871 44.3528 104.063 44.2804C104.256 44.1838 104.496 44.1597 104.785 44.1597C104.977 44.1597 105.169 44.1838 105.362 44.2321C105.554 44.2804 105.722 44.3528 105.867 44.4494L105.674 44.9081C105.53 44.8357 105.386 44.7633 105.241 44.715C105.097 44.6667 104.929 44.6426 104.785 44.6426C104.544 44.6426 104.376 44.6908 104.256 44.7633C104.135 44.8357 104.087 44.9564 104.087 45.0771C104.087 45.1737 104.111 45.2462 104.183 45.2944C104.256 45.3427 104.328 45.391 104.424 45.4393C104.52 45.4635 104.664 45.5117 104.833 45.56C105.073 45.6083 105.265 45.6807 105.434 45.729C105.578 45.7773 105.722 45.8739 105.818 45.9946C105.939 46.1153 105.987 46.2844 105.987 46.5017C105.987 46.6707 105.939 46.8397 105.843 46.9845C105.746 47.1294 105.602 47.2501 105.41 47.3225C105.217 47.4191 104.977 47.4433 104.688 47.4433C104.448 47.4916 104.208 47.4433 103.967 47.3708Z" fill="black"/>
<path d="M109.351 47.1053C109.111 46.8638 108.967 46.5017 108.967 46.0188V44.1838H109.568V45.9947C109.568 46.6224 109.832 46.9604 110.385 46.9604C110.938 46.9604 111.203 46.6465 111.203 45.9947V44.1838H111.804V46.0188C111.804 46.4775 111.684 46.8397 111.443 47.1053C111.203 47.3709 110.842 47.4916 110.409 47.4916C109.929 47.4916 109.592 47.3709 109.351 47.1053Z" fill="black"/>
<path d="M115.051 44.1838H115.652V47.4192H115.051V44.1838Z" fill="black"/>
<path d="M119.57 44.715H118.488V44.1838H121.229V44.6909H120.147V47.4192H119.546V44.715H119.57Z" fill="black"/>
<path d="M126.52 46.9363V47.4433H124.092V44.1838H126.448V44.6909H124.693V45.5359H126.256V46.0429H124.693V46.9363H126.52Z" fill="black"/>
<path d="M28.5645 44.2319C23.347 44.2319 19.1152 39.9826 19.1152 34.7433C19.1152 34.695 19.1152 34.6467 19.1152 34.5984V34.5743V22.7437H20.5579V34.7433C20.5579 39.1858 24.1404 42.7833 28.5645 42.7833C32.9886 42.7833 36.5711 39.1858 36.5711 34.7433C36.5711 34.6709 36.5711 34.5984 36.5711 34.526V22.7437H38.0138V34.5018C38.0138 34.5743 38.0138 34.6467 38.0138 34.7433C38.0138 39.9584 33.782 44.2319 28.5645 44.2319Z" fill="url(#paint0_linear)"/>
<path d="M28.5633 48.7713C21.2539 48.7713 15.291 42.7835 15.291 35.4437C15.291 35.3713 15.291 35.2747 15.291 35.2023V18.1807H16.7337V35.2264C16.7337 35.323 16.7337 35.3954 16.7337 35.4679C16.7337 42.0109 22.0474 47.3468 28.5633 47.3468C35.0792 47.3468 40.3929 42.0109 40.3929 35.4437C40.3929 35.3472 40.3929 35.2264 40.3929 35.1299V18.1807H41.8355V35.1057C41.8355 35.2023 41.8355 35.323 41.8355 35.4437C41.8355 42.8077 35.8967 48.7713 28.5633 48.7713Z" fill="url(#paint1_linear)"/>
<path d="M28.564 53.3343C19.1388 53.3343 11.4688 45.6323 11.4688 36.1678C11.4688 36.0713 11.4688 35.9747 11.4688 35.8781V35.854V13.6414H12.9114V35.9023C12.9114 35.9988 12.9114 36.0713 12.9114 36.1678C12.9114 44.8356 19.9322 51.8857 28.564 51.8857C37.1957 51.8857 44.2166 44.8356 44.2166 36.1678C44.2166 36.023 44.2166 35.8781 44.2166 35.7332V13.6414H45.6592V35.7091C45.6592 35.854 45.6592 35.9988 45.6592 36.1678C45.6833 45.6323 38.0132 53.3343 28.564 53.3343Z" fill="url(#paint2_linear)"/>
<path d="M28.5647 57.8976C17.0236 57.8976 7.64648 48.4814 7.64648 36.8922C7.64648 36.7715 7.64648 36.6749 7.64648 36.5783V36.53V9.10229H9.08912V36.6025C9.08912 36.6991 9.08912 36.7956 9.08912 36.8922C9.08912 47.6846 17.8171 56.449 28.5647 56.449C39.3123 56.449 48.0403 47.6846 48.0403 36.8922C48.0403 36.7232 48.0403 36.53 48.0403 36.361V9.10229H49.4829V36.3369C49.4829 36.5059 49.4829 36.6991 49.4829 36.8922C49.507 48.4573 40.1058 57.8976 28.5647 57.8976Z" fill="url(#paint3_linear)"/>
<path d="M28.5635 62.4609C14.9065 62.4609 3.82227 51.3063 3.82227 37.6166C3.82227 37.4717 3.82227 37.3269 3.82227 37.2061V37.182V4.5874H5.2649V37.2544C5.2649 37.3752 5.2649 37.52 5.2649 37.6407C5.2649 50.5337 15.724 61.0364 28.5635 61.0364C41.4029 61.0364 51.862 50.5337 51.862 37.6407C51.862 37.4234 51.862 37.2061 51.862 37.013V4.61155H53.3047V36.9406C53.3047 37.1579 53.3047 37.3752 53.3047 37.5924C53.3287 51.3063 42.2204 62.4609 28.5635 62.4609Z" fill="url(#paint4_linear)"/>
<path d="M28.5642 67C12.8154 67 0 54.1312 0 38.3168C0 38.1719 0 38.0029 0 37.858V37.8097V0H1.44264V37.8822C1.44264 38.027 1.44264 38.1719 1.44264 38.3168C1.44264 53.3344 13.6089 65.5514 28.5642 65.5514C43.5195 65.5514 55.6857 53.3344 55.6857 38.3168C55.6857 38.0753 55.6857 37.8097 55.6857 37.5683V0H57.1284V37.5441C57.1284 37.7856 57.1284 38.0512 57.1284 38.3168C57.1524 54.1312 44.337 67 28.5642 67Z" fill="url(#paint5_linear)"/>
</g>
<defs>
<linearGradient id="paint0_linear" x1="28.5756" y1="43.5145" x2="28.5756" y2="12.795" gradientUnits="userSpaceOnUse">
<stop stop-color="#C8176F"/>
<stop offset="1" stop-color="#28D4FF"/>
</linearGradient>
<linearGradient id="paint1_linear" x1="28.5745" y1="43.5148" x2="28.5745" y2="12.7952" gradientUnits="userSpaceOnUse">
<stop stop-color="#C8176F"/>
<stop offset="1" stop-color="#28D4FF"/>
</linearGradient>
<linearGradient id="paint2_linear" x1="28.5751" y1="43.5146" x2="28.5751" y2="12.795" gradientUnits="userSpaceOnUse">
<stop stop-color="#C8176F"/>
<stop offset="1" stop-color="#28D4FF"/>
</linearGradient>
<linearGradient id="paint3_linear" x1="28.5758" y1="43.5146" x2="28.5758" y2="12.795" gradientUnits="userSpaceOnUse">
<stop stop-color="#C8176F"/>
<stop offset="1" stop-color="#28D4FF"/>
</linearGradient>
<linearGradient id="paint4_linear" x1="28.5747" y1="43.5147" x2="28.5747" y2="12.7951" gradientUnits="userSpaceOnUse">
<stop stop-color="#C8176F"/>
<stop offset="1" stop-color="#28D4FF"/>
</linearGradient>
<linearGradient id="paint5_linear" x1="28.5753" y1="43.5147" x2="28.5753" y2="12.7951" gradientUnits="userSpaceOnUse">
<stop stop-color="#C8176F"/>
<stop offset="1" stop-color="#28D4FF"/>
</linearGradient>
<clipPath id="clip0">
<rect width="127" height="67" fill="white"/>
</clipPath>
</defs>
</svg>
