<svg width="94" height="44" viewBox="0 0 94 44" fill="none" xmlns="http://www.w3.org/2000/svg">
<path d="M20.377 9.50098V31.6609H16.6688V28.3181C15.861 29.4449 14.833 30.3463 13.548 30.9848C12.2629 31.6234 10.831 31.9238 9.3257 31.9238C6.42518 31.9238 4.14883 31.0975 2.49664 29.4825C0.844453 27.7923 0 25.3885 0 22.2336V9.50098H3.92854V21.7828C3.92854 23.9237 4.44256 25.5388 5.43387 26.6655C6.42518 27.7548 7.8938 28.3181 9.76628 28.3181C11.8223 28.3181 13.4745 27.6796 14.6494 26.4026C15.861 25.1256 16.4485 23.3228 16.4485 20.9565V9.50098H20.377Z" fill="white"/>
<path d="M46.6288 0.637695V31.6234H42.8838V28.1304C42.0027 29.3699 40.9012 30.2713 39.5794 30.9473C38.2577 31.5858 36.7891 31.9238 35.1736 31.9238C33.0808 31.9238 31.2083 31.4356 29.5194 30.4966C27.8672 29.5576 26.5455 28.2055 25.6276 26.5154C24.673 24.7877 24.2324 22.8347 24.2324 20.6188C24.2324 18.4028 24.7097 16.4122 25.6276 14.7221C26.5822 13.032 27.8672 11.7174 29.5194 10.7409C31.1716 9.80194 33.0441 9.31368 35.1736 9.31368C36.7156 9.31368 38.1475 9.61415 39.4693 10.2151C40.791 10.816 41.8558 11.6799 42.737 12.8817V0.637695H46.6288ZM39.2123 27.3793C40.3137 26.7408 41.1949 25.8018 41.8191 24.6375C42.4432 23.4356 42.7737 22.0835 42.7737 20.5812C42.7737 19.0413 42.4432 17.6892 41.8191 16.5249C41.1949 15.323 40.3137 14.4216 39.2123 13.7831C38.1108 13.1446 36.8625 12.8066 35.504 12.8066C34.1088 12.8066 32.8605 13.1446 31.7591 13.7831C30.6576 14.4216 29.7764 15.323 29.1523 16.5249C28.5281 17.7268 28.1977 19.0789 28.1977 20.5812C28.1977 22.1211 28.5281 23.4732 29.1523 24.6375C29.7764 25.8394 30.6576 26.7408 31.7591 27.3793C32.8605 28.0178 34.1088 28.3558 35.504 28.3558C36.8625 28.3558 38.0741 28.0553 39.2123 27.3793Z" fill="white"/>
<path d="M52.5034 4.4693C51.9894 3.98105 51.7324 3.34258 51.7324 2.629C51.7324 1.91541 51.9894 1.27694 52.5034 0.788699C53.0175 0.2629 53.6416 0 54.4126 0C55.1837 0 55.8078 0.2629 56.3218 0.713585C56.8359 1.20183 57.0929 1.80274 57.0929 2.51633C57.0929 3.26747 56.8359 3.90594 56.3218 4.43174C55.8078 4.95754 55.1837 5.22044 54.4126 5.22044C53.6416 5.22044 53.0175 4.95754 52.5034 4.4693ZM52.43 9.50195H56.3586V31.6606H52.43V9.50195Z" fill="white"/>
<path d="M80.2975 11.7174C81.913 13.3324 82.7208 15.7361 82.7208 18.891V31.6231H78.7922V19.3417C78.7922 17.2009 78.2782 15.5859 77.2869 14.4967C76.2956 13.4075 74.827 12.8817 72.9545 12.8817C70.825 12.8817 69.1728 13.5202 67.9245 14.7972C66.7129 16.0741 66.0887 17.8769 66.0887 20.2431V31.6606H62.1602V9.50151H65.9051V12.8442C66.6761 11.7174 67.7776 10.816 69.0994 10.2151C70.4578 9.61419 71.9632 9.31373 73.6888 9.31373C76.5159 9.27617 78.6821 10.1024 80.2975 11.7174Z" fill="white"/>
<path d="M88.4468 4.4693C87.9328 3.98105 87.6758 3.34258 87.6758 2.629C87.6758 1.91541 87.9328 1.27694 88.4468 0.788699C88.9608 0.2629 89.585 0 90.356 0C91.127 0 91.7512 0.2629 92.2652 0.713585C92.7792 1.20183 93.0362 1.80274 93.0362 2.51633C93.0362 3.26747 92.7792 3.90594 92.2652 4.43174C91.7512 4.95754 91.127 5.22044 90.356 5.22044C89.585 5.22044 88.9608 4.95754 88.4468 4.4693ZM88.3734 9.50195H92.3019V31.6606H88.3734V9.50195Z" fill="white"/>
<path d="M0 37.8589H2.1662C2.68022 37.8589 3.15752 37.9715 3.56138 38.1593C3.96525 38.3846 4.29569 38.6475 4.51598 39.0606C4.73627 39.4362 4.84642 39.8868 4.84642 40.375C4.84642 40.8632 4.73627 41.3138 4.51598 41.6894C4.29569 42.0649 3.96525 42.3654 3.56138 42.5907C3.15752 42.816 2.68022 42.8911 2.1662 42.8911H0V37.8589ZM2.12949 42.14C2.49664 42.14 2.82708 42.0649 3.08409 41.9147C3.34109 41.7645 3.56138 41.5767 3.70825 41.3138C3.85511 41.051 3.92854 40.7505 3.92854 40.4126C3.92854 40.0746 3.85511 39.7741 3.70825 39.5113C3.56138 39.2484 3.34109 39.0606 3.08409 38.9104C2.82708 38.7602 2.49664 38.6851 2.12949 38.6851H0.917883V42.14H2.12949Z" fill="white"/>
<path d="M13.218 42.1403V42.9292H9.50977V37.8955H13.1079V38.6844H10.4276V39.9991H12.8141V40.788H10.4276V42.1779H13.218V42.1403Z" fill="white"/>
<path d="M22.2867 37.8589V42.8911H21.5157L18.7987 39.4737V42.8911H17.8809V37.8589H18.6519L21.3688 41.2763V37.8589H22.2867Z" fill="white"/>
<path d="M28.2713 38.6475H26.6191V37.8589H30.8414V38.6475H29.1892V42.8911H28.2713V38.6475Z" fill="white"/>
<path d="M38.1477 41.7647H35.6878L35.2105 42.9292H34.2559L36.4955 37.8955H37.4134L39.653 42.9292H38.6984L38.1477 41.7647ZM37.854 41.0134L36.9361 38.7971L36.0182 41.0134H37.854Z" fill="white"/>
<path d="M43.875 37.8589H44.7929V42.1025H47.363V42.8911H43.875V37.8589Z" fill="white"/>
<path d="M57.8269 42.8156C57.4597 42.7029 57.2027 42.5527 56.9824 42.3649L57.3129 41.6513C57.5332 41.8015 57.7535 41.9517 58.0472 42.0644C58.3409 42.1771 58.6346 42.2146 58.9284 42.2146C59.2955 42.2146 59.5525 42.1395 59.7361 42.0269C59.9197 41.9142 59.9931 41.7639 59.9931 41.5386C59.9931 41.3884 59.9564 41.2757 59.8463 41.163C59.7361 41.0503 59.626 41.0128 59.4791 40.9377C59.3322 40.9001 59.1119 40.825 58.8549 40.7499C58.4878 40.6748 58.1573 40.5621 57.937 40.487C57.7167 40.4118 57.4964 40.2616 57.3496 40.0738C57.166 39.886 57.0926 39.6231 57.0926 39.2851C57.0926 39.0222 57.166 38.7593 57.3129 38.5339C57.4597 38.3086 57.68 38.1208 57.9737 38.0081C58.2675 37.8579 58.6346 37.8203 59.0752 37.8203C59.3689 37.8203 59.6627 37.8579 59.9564 37.933C60.2501 38.0081 60.5071 38.1208 60.7274 38.271L60.4337 38.9846C60.2134 38.872 59.9931 38.7593 59.7728 38.6842C59.5525 38.609 59.2955 38.5715 59.0752 38.5715C58.7081 38.5715 58.4511 38.6466 58.2675 38.7593C58.0839 38.8719 58.0105 39.0597 58.0105 39.2475C58.0105 39.3978 58.0472 39.5104 58.1573 39.5856C58.2675 39.6607 58.3776 39.7358 58.5245 39.8109C58.6713 39.8485 58.8916 39.9236 59.1487 39.9987C59.5158 40.0738 59.8095 40.1865 60.0666 40.2616C60.2868 40.3367 60.5071 40.487 60.654 40.6748C60.8376 40.8625 60.911 41.1255 60.911 41.4635C60.911 41.7264 60.8376 41.9893 60.6907 42.2146C60.5439 42.44 60.3236 42.6278 60.0298 42.7405C59.7361 42.8907 59.3689 42.9283 58.9284 42.9283C58.5612 43.0034 58.194 42.9283 57.8269 42.8156Z" fill="white"/>
<path d="M66.0132 42.403C65.6461 42.0275 65.4258 41.4642 65.4258 40.7131V37.8589H66.3437V40.6755C66.3437 41.6519 66.7475 42.1777 67.592 42.1777C68.4365 42.1777 68.8403 41.6895 68.8403 40.6755V37.8589H69.7582V40.7131C69.7582 41.4266 69.5746 41.9899 69.2075 42.403C68.8403 42.8161 68.2896 43.0039 67.6287 43.0039C66.9311 43.0039 66.4171 42.7786 66.0132 42.403Z" fill="white"/>
<path d="M74.7148 37.8589H75.6327V42.8911H74.7148V37.8589Z" fill="white"/>
<path d="M81.6541 38.6475H80.002V37.8589H84.1875V38.6475H82.5353V42.8911H81.6174V38.6475H81.6541Z" fill="white"/>
<path d="M92.2649 42.1403V42.9292H88.5566V37.8955H92.1547V38.6844H89.4745V39.9991H91.861V40.788H89.4745V42.1779H92.2649V42.1403Z" fill="white"/>
</svg>
