<svg width="278" height="326" viewBox="0 0 278 326" fill="none" xmlns="http://www.w3.org/2000/svg">
<path d="M138.941 215.219C113.562 215.219 92.9785 194.543 92.9785 169.05C92.9785 168.815 92.9785 168.58 92.9785 168.345V168.228V110.664H99.9958V169.05C99.9958 190.666 117.422 208.17 138.941 208.17C160.461 208.17 177.887 190.666 177.887 169.05C177.887 168.698 177.887 168.345 177.887 167.993V110.664H184.904V167.875C184.904 168.228 184.904 168.58 184.904 169.05C184.904 194.425 164.321 215.219 138.941 215.219Z" fill="#C8176F"/>
<path d="M138.942 237.304C103.387 237.304 74.3828 208.17 74.3828 172.457C74.3828 172.104 74.3828 171.635 74.3828 171.282V88.4604H81.4001V171.4C81.4001 171.869 81.4001 172.222 81.4001 172.574C81.4001 204.411 107.247 230.373 138.942 230.373C170.636 230.373 196.483 204.411 196.483 172.457C196.483 171.987 196.483 171.4 196.483 170.93V88.4604H203.5V170.812C203.5 171.282 203.5 171.869 203.5 172.457C203.5 208.287 174.613 237.304 138.942 237.304Z" fill="#C8176F"/>
<path d="M138.942 259.508C93.0955 259.508 55.7871 222.032 55.7871 175.981C55.7871 175.511 55.7871 175.041 55.7871 174.572V174.454V66.3748H62.8044V174.689C62.8044 175.159 62.8044 175.511 62.8044 175.981C62.8044 218.156 96.955 252.459 138.942 252.459C180.928 252.459 215.079 218.156 215.079 175.981C215.079 175.276 215.079 174.572 215.079 173.867V66.3748H222.096V173.749C222.096 174.454 222.096 175.159 222.096 175.981C222.213 222.032 184.904 259.508 138.942 259.508Z" fill="#C8176F"/>
<path d="M138.941 281.711C82.8035 281.711 37.1914 235.895 37.1914 179.506C37.1914 178.918 37.1914 178.448 37.1914 177.978V177.743V44.2891H44.2087V178.096C44.2087 178.566 44.2087 179.036 44.2087 179.506C44.2087 232.018 86.663 274.662 138.941 274.662C191.22 274.662 233.674 232.018 233.674 179.506C233.674 178.683 233.674 177.743 233.674 176.921V44.2891H240.692V176.804C240.692 177.626 240.692 178.566 240.692 179.506C240.809 235.777 195.079 281.711 138.941 281.711Z" fill="#C8176F"/>
<path d="M138.942 303.914C72.5116 303.914 18.5957 249.64 18.5957 183.03C18.5957 182.325 18.5957 181.62 18.5957 181.033V180.915V22.3208H25.613V181.268C25.613 181.855 25.613 182.56 25.613 183.147C25.613 245.88 76.488 296.983 138.942 296.983C201.395 296.983 252.27 245.88 252.27 183.147C252.27 182.09 252.27 181.033 252.27 180.093V22.4383H259.287V179.741C259.287 180.798 259.287 181.855 259.287 182.913C259.404 249.64 205.371 303.914 138.942 303.914Z" fill="#C8176F"/>
<path d="M138.942 326C62.3366 326 0 263.384 0 186.437C0 185.732 0 184.91 0 184.205V183.97V0H7.01725V184.322C7.01725 185.027 7.01725 185.732 7.01725 186.437C7.01725 259.508 66.1961 318.951 138.942 318.951C211.687 318.951 270.866 259.508 270.866 186.437C270.866 185.262 270.866 183.97 270.866 182.795V0H277.883V182.677C277.883 183.852 277.883 185.145 277.883 186.437C278 263.384 215.663 326 138.942 326Z" fill="#C8176F"/>
</svg>
