<svg width="89" height="104" viewBox="0 0 89 104" fill="none" xmlns="http://www.w3.org/2000/svg">
<path d="M44.4804 68.6587C36.3554 68.6587 29.7656 62.0626 29.7656 53.93C29.7656 53.8551 29.7656 53.7801 29.7656 53.7052V53.6677V35.3037H32.0122V53.93C32.0122 60.8259 37.591 66.41 44.4804 66.41C51.3697 66.41 56.9486 60.8259 56.9486 53.93C56.9486 53.8176 56.9486 53.7052 56.9486 53.5927V35.3037H59.1952V53.5552C59.1952 53.6677 59.1952 53.7801 59.1952 53.93C59.1952 62.0252 52.6053 68.6587 44.4804 68.6587Z" fill="white"/>
<path d="M44.4806 75.7047C33.0982 75.7047 23.8125 66.4102 23.8125 55.0171C23.8125 54.9047 23.8125 54.7548 23.8125 54.6423V28.2207H26.059V54.6798C26.059 54.8297 26.059 54.9421 26.059 55.0546C26.059 65.211 34.3337 73.4935 44.4806 73.4935C54.6274 73.4935 62.9021 65.211 62.9021 55.0171C62.9021 54.8672 62.9021 54.6798 62.9021 54.5299V28.2207H65.1486V54.4924C65.1486 54.6423 65.1486 54.8297 65.1486 55.0171C65.1486 66.4477 55.9004 75.7047 44.4806 75.7047Z" fill="white"/>
<path d="M44.4808 82.7878C29.8034 82.7878 17.8594 70.8325 17.8594 56.1413C17.8594 55.9914 17.8594 55.8415 17.8594 55.6916V55.6541V21.1748H20.1059V55.729C20.1059 55.8789 20.1059 55.9914 20.1059 56.1413C20.1059 69.5957 31.039 80.5391 44.4808 80.5391C57.9225 80.5391 68.8556 69.5957 68.8556 56.1413C68.8556 55.9164 68.8556 55.6916 68.8556 55.4667V21.1748H71.1021V55.4292C71.1021 55.6541 71.1021 55.8789 71.1021 56.1413C71.1396 70.8325 59.1955 82.7878 44.4808 82.7878Z" fill="white"/>
<path d="M44.4809 89.8709C26.5087 89.8709 11.9062 75.2547 11.9062 57.2655C11.9062 57.0781 11.9062 56.9282 11.9062 56.7783V56.7033V14.1289H14.1528V56.8158C14.1528 56.9657 14.1528 57.1156 14.1528 57.2655C14.1528 74.0179 27.7443 87.6222 44.4809 87.6222C61.2176 87.6222 74.8091 74.0179 74.8091 57.2655C74.8091 57.0031 74.8091 56.7033 74.8091 56.441V14.1289H77.0556V56.4035C77.0556 56.6658 77.0556 56.9657 77.0556 57.2655C77.093 75.2172 62.4532 89.8709 44.4809 89.8709Z" fill="white"/>
<path d="M44.4811 96.9541C23.214 96.9541 5.95312 79.6395 5.95312 58.3898C5.95312 58.1649 5.95312 57.9401 5.95312 57.7527V57.7152V7.12061H8.19965V57.8276C8.19965 58.015 8.19965 58.2399 8.19965 58.4273C8.19965 78.4403 24.487 94.743 44.4811 94.743C64.4752 94.743 80.7625 78.4403 80.7625 58.4273C80.7625 58.09 80.7625 57.7527 80.7625 57.4529V7.15808H83.0091V57.3404C83.0091 57.6777 83.0091 58.015 83.0091 58.3523C83.0465 79.6395 65.7482 96.9541 44.4811 96.9541Z" fill="white"/>
<path d="M44.4813 104C19.9567 104 0 84.0245 0 59.4768C0 59.2519 0 58.9896 0 58.7647V58.6897V0H2.24653V58.8022C2.24653 59.027 2.24653 59.2519 2.24653 59.4768C2.24653 82.7878 21.1923 101.751 44.4813 101.751C67.7703 101.751 86.716 82.7878 86.716 59.4768C86.716 59.102 86.716 58.6897 86.716 58.315V0H88.9626V58.2775C88.9626 58.6523 88.9626 59.0645 88.9626 59.4768C89 84.0245 69.0433 104 44.4813 104Z" fill="white"/>
</svg>
