<svg width="190" height="100" viewBox="0 0 190 100" fill="none" xmlns="http://www.w3.org/2000/svg">
<g clip-path="url(#clip0)">
<path d="M118.849 38.7383V59.9995H115.216V56.7923C114.424 57.8734 113.417 58.7383 112.158 59.3509C110.899 59.9635 109.496 60.2518 108.021 60.2518C105.18 60.2518 102.95 59.459 101.331 57.9095C99.7121 56.3599 98.8848 54.0536 98.8848 50.9905V38.7743H102.734V50.5581C102.734 52.6122 103.237 54.1617 104.209 55.2428C105.18 56.2878 106.619 56.8284 108.453 56.8284C110.468 56.8284 112.086 56.2158 113.237 54.9905C114.424 53.7653 115 52.0356 115 49.7653V38.7743H118.849V38.7383Z" fill="white"/>
<path d="M144.567 30.2334V59.9631H140.898V56.6118C140.035 57.801 138.956 58.6658 137.661 59.3145C136.366 59.9271 134.927 60.2514 133.344 60.2514C131.294 60.2514 129.46 59.7829 127.805 58.882C126.186 57.9811 124.891 56.6838 123.992 55.0622C123.057 53.4046 122.625 51.5307 122.625 49.4046C122.625 47.2784 123.093 45.3685 123.992 43.7469C124.927 42.1253 126.186 40.864 127.805 39.9271C129.424 39.0262 131.258 38.5577 133.344 38.5577C134.855 38.5577 136.258 38.846 137.553 39.4226C138.848 39.9992 139.891 40.828 140.754 41.9811V30.2334H144.567ZM137.301 55.8911C138.38 55.2784 139.244 54.3775 139.855 53.2604C140.467 52.1073 140.79 50.81 140.79 49.3685C140.79 47.8911 140.467 46.5938 139.855 45.4766C139.244 44.3235 138.38 43.4586 137.301 42.846C136.222 42.2334 134.999 41.9091 133.668 41.9091C132.301 41.9091 131.078 42.2334 129.999 42.846C128.92 43.4586 128.057 44.3235 127.445 45.4766C126.834 46.6298 126.51 47.9271 126.51 49.3685C126.51 50.846 126.834 52.1433 127.445 53.2604C128.057 54.4136 128.92 55.2784 129.999 55.8911C131.078 56.5037 132.301 56.828 133.668 56.828C134.999 56.828 136.222 56.5397 137.301 55.8911Z" fill="white"/>
<path d="M150.324 33.9094C149.82 33.4409 149.568 32.8283 149.568 32.1436C149.568 31.4589 149.82 30.8463 150.324 30.3779C150.827 29.8733 151.439 29.6211 152.194 29.6211C152.95 29.6211 153.561 29.8733 154.065 30.3058C154.568 30.7742 154.82 31.3508 154.82 32.0355C154.82 32.7562 154.568 33.3688 154.065 33.8733C153.561 34.3779 152.95 34.6301 152.194 34.6301C151.439 34.6301 150.827 34.4139 150.324 33.9094ZM150.252 38.7382H154.101V59.9995H150.252V38.7382Z" fill="white"/>
<path d="M177.59 40.8641C179.173 42.4137 179.964 44.72 179.964 47.747V59.9632H176.115V48.1794C176.115 46.1254 175.612 44.5758 174.64 43.5308C173.669 42.4857 172.23 41.9812 170.396 41.9812C168.31 41.9812 166.691 42.5939 165.468 43.8191C164.281 45.0443 163.669 46.774 163.669 49.0443V59.9993H159.82V38.738H163.489V41.9452C164.245 40.8641 165.324 39.9993 166.619 39.4227C167.95 38.8461 169.425 38.5578 171.115 38.5578C173.849 38.5218 175.971 39.3146 177.59 40.8641Z" fill="white"/>
<path d="M185.539 33.9094C185.035 33.4409 184.783 32.8283 184.783 32.1436C184.783 31.4589 185.035 30.8463 185.539 30.3779C186.042 29.8733 186.654 29.6211 187.409 29.6211C188.164 29.6211 188.776 29.8733 189.28 30.3058C189.783 30.7742 190.035 31.3508 190.035 32.0355C190.035 32.7562 189.783 33.3688 189.28 33.8733C188.776 34.3779 188.164 34.6301 187.409 34.6301C186.654 34.6301 186.042 34.4139 185.539 33.9094ZM185.467 38.7382H189.316V59.9995H185.467V38.7382Z" fill="white"/>
<path d="M98.9199 65.9463H101.042C101.546 65.9463 102.013 66.0544 102.409 66.2346C102.805 66.4508 103.129 66.703 103.344 67.0994C103.56 67.4598 103.668 67.8922 103.668 68.3607C103.668 68.8292 103.56 69.2616 103.344 69.622C103.129 69.9823 102.805 70.2706 102.409 70.4868C102.013 70.7031 101.546 70.7751 101.042 70.7751H98.9199V65.9463ZM100.97 70.0544C101.33 70.0544 101.654 69.9823 101.906 69.8382C102.157 69.694 102.373 69.5139 102.517 69.2616C102.661 69.0094 102.733 68.7211 102.733 68.3967C102.733 68.0724 102.661 67.7841 102.517 67.5319C102.373 67.2796 102.157 67.0994 101.906 66.9553C101.654 66.8112 101.33 66.7391 100.97 66.7391H99.7832V70.0544H100.97Z" fill="white"/>
<path d="M111.832 70.0544V70.8112H108.199V65.9463H111.724V66.703H109.098V67.9643H111.437V68.7211H109.098V70.0544H111.832V70.0544Z" fill="white"/>
<path d="M120.719 65.9463V70.7751H119.963L117.302 67.4958V70.7751H116.402V65.9463H117.158L119.82 69.2256V65.9463H120.719Z" fill="white"/>
<path d="M126.582 66.7391H124.963V65.9463H129.064V66.7031H127.445V70.7751H126.546V66.7391H126.582Z" fill="white"/>
<path d="M136.258 69.6941H133.848L133.381 70.8112H132.445L134.64 65.9824H135.539L137.733 70.8112H136.798L136.258 69.6941ZM135.97 68.9734L135.071 66.8473L134.172 68.9734H135.97Z" fill="white"/>
<path d="M141.906 65.9463H142.806V70.0184H145.324V70.7751H141.906V65.9463Z" fill="white"/>
<path d="M155.538 70.7029C155.179 70.5948 154.927 70.4507 154.711 70.2705L155.035 69.5858C155.251 69.73 155.466 69.8741 155.754 69.9822C156.042 70.0903 156.33 70.1264 156.617 70.1264C156.977 70.1264 157.229 70.0543 157.409 69.9462C157.589 69.8381 157.661 69.6939 157.661 69.4777C157.661 69.3336 157.625 69.2255 157.517 69.1174C157.409 69.0093 157.301 68.9732 157.157 68.9011C157.013 68.8651 156.797 68.793 156.545 68.721C156.186 68.6489 155.862 68.5408 155.646 68.4687C155.43 68.3966 155.215 68.2525 155.071 68.0723C154.927 67.8921 154.819 67.6399 154.819 67.3156C154.819 67.0633 154.891 66.8111 155.035 66.5948C155.179 66.3786 155.394 66.1984 155.682 66.0903C155.97 65.9462 156.33 65.9102 156.761 65.9102C157.049 65.9102 157.337 65.9462 157.625 66.0183C157.912 66.0903 158.164 66.1984 158.38 66.3426L158.092 67.0273C157.876 66.9192 157.661 66.8111 157.445 66.739C157.229 66.6669 156.977 66.6309 156.761 66.6309C156.402 66.6309 156.15 66.7029 155.97 66.8111C155.79 66.9192 155.718 67.0993 155.718 67.2795C155.718 67.4237 155.754 67.5318 155.862 67.6039C155.97 67.6759 156.078 67.748 156.222 67.8201C156.366 67.8561 156.581 67.9282 156.833 68.0002C157.193 68.0723 157.481 68.1804 157.733 68.2525C157.948 68.3246 158.164 68.4687 158.308 68.6489C158.488 68.8291 158.56 69.0813 158.56 69.4057C158.56 69.6579 158.488 69.9102 158.344 70.1264C158.2 70.3426 157.984 70.5228 157.697 70.6309C157.409 70.775 157.049 70.8111 156.617 70.8111C156.258 70.8831 155.898 70.8111 155.538 70.7029Z" fill="white"/>
<path d="M163.597 70.3067C163.237 69.9463 163.021 69.4058 163.021 68.685V65.9463H163.921V68.649C163.921 69.5859 164.316 70.0904 165.144 70.0904C165.971 70.0904 166.367 69.622 166.367 68.649V65.9463H167.266V68.685C167.266 69.3697 167.086 69.9103 166.727 70.3067C166.367 70.703 165.827 70.8832 165.18 70.8832C164.46 70.8832 163.957 70.703 163.597 70.3067Z" fill="white"/>
<path d="M172.121 65.9463H173.02V70.7751H172.121V65.9463Z" fill="white"/>
<path d="M178.884 66.7391H177.266V65.9463H181.366V66.7031H179.748V70.7751H178.848V66.7391H178.884Z" fill="white"/>
<path d="M189.28 70.0544V70.8112H185.646V65.9463H189.172V66.703H186.546V67.9643H188.884V68.7211H186.546V70.0544H189.28V70.0544Z" fill="white"/>
<path d="M42.7343 66.0184C34.9286 66.0184 28.5977 59.676 28.5977 51.8562C28.5977 51.7841 28.5977 51.7121 28.5977 51.64V51.6039V33.9463H30.7559V51.8562C30.7559 58.4868 36.1156 63.8562 42.7343 63.8562C49.3531 63.8562 54.7128 58.4868 54.7128 51.8562C54.7128 51.7481 54.7128 51.64 54.7128 51.5319V33.9463H56.871V51.4958C56.871 51.6039 56.871 51.7121 56.871 51.8562C56.871 59.64 50.5401 66.0184 42.7343 66.0184Z" fill="url(#paint0_linear)"/>
<path d="M42.735 72.7934C31.7998 72.7934 22.8789 63.8565 22.8789 52.9015C22.8789 52.7934 22.8789 52.6493 22.8789 52.5411V27.1357H25.0372V52.5772C25.0372 52.7213 25.0372 52.8294 25.0372 52.9375C25.0372 62.7033 32.9868 70.6673 42.735 70.6673C52.4832 70.6673 60.4329 62.7033 60.4329 52.9015C60.4329 52.7574 60.4329 52.5772 60.4329 52.433V27.1357H62.5911V52.397C62.5911 52.5411 62.5911 52.7213 62.5911 52.9015C62.5911 63.8925 53.7062 72.7934 42.735 72.7934Z" fill="url(#paint1_linear)"/>
<path d="M42.7337 79.6036C28.633 79.6036 17.1582 68.1081 17.1582 53.982C17.1582 53.8378 17.1582 53.6937 17.1582 53.5495V53.5135V20.3604H19.3165V53.5856C19.3165 53.7297 19.3165 53.8378 19.3165 53.982C19.3165 66.9189 29.8201 77.4414 42.7337 77.4414C55.6474 77.4414 66.151 66.9189 66.151 53.982C66.151 53.7658 66.151 53.5495 66.151 53.3333V20.3604H68.3093V53.2973C68.3093 53.5135 68.3093 53.7297 68.3093 53.982C68.3453 68.1081 56.8704 79.6036 42.7337 79.6036Z" fill="url(#paint2_linear)"/>
<path d="M42.7325 86.4148C25.4663 86.4148 11.4375 72.3607 11.4375 55.0634C11.4375 54.8832 11.4375 54.7391 11.4375 54.5949V54.5229V13.5859H13.5958V54.631C13.5958 54.7751 13.5958 54.9193 13.5958 55.0634C13.5958 71.1715 26.6533 84.2526 42.7325 84.2526C58.8116 84.2526 71.8692 71.1715 71.8692 55.0634C71.8692 54.8112 71.8692 54.5229 71.8692 54.2706V13.5859H74.0274V54.2346C74.0274 54.4868 74.0274 54.7751 74.0274 55.0634C74.0634 72.3247 59.9987 86.4148 42.7325 86.4148Z" fill="url(#paint3_linear)"/>
<path d="M42.7331 93.2251C22.3015 93.2251 5.71875 76.5764 5.71875 56.144C5.71875 55.9278 5.71875 55.7115 5.71875 55.5314V55.4953V6.84668H7.87702V55.6034C7.87702 55.7836 7.87702 55.9998 7.87702 56.18C7.87702 75.4233 23.5245 91.0989 42.7331 91.0989C61.9418 91.0989 77.5893 75.4233 77.5893 56.18C77.5893 55.8557 77.5893 55.5314 77.5893 55.2431V6.88272H79.7475V55.135C79.7475 55.4593 79.7475 55.7836 79.7475 56.1079C79.7835 76.5764 63.1648 93.2251 42.7331 93.2251Z" fill="url(#paint4_linear)"/>
<path d="M42.7338 100C19.1727 100 0 80.7928 0 57.1892C0 56.973 0 56.7207 0 56.5045V56.4324V0H2.15827V56.5405C2.15827 56.7568 2.15827 56.973 2.15827 57.1892C2.15827 79.6036 20.3597 97.8378 42.7338 97.8378C65.1079 97.8378 83.3094 79.6036 83.3094 57.1892C83.3094 56.8288 83.3094 56.4324 83.3094 56.0721V0H85.4676V56.036C85.4676 56.3964 85.4676 56.7928 85.4676 57.1892C85.5036 80.7928 66.3309 100 42.7338 100Z" fill="url(#paint5_linear)"/>
</g>
<defs>
<linearGradient id="paint0_linear" x1="42.751" y1="64.9476" x2="42.751" y2="19.0975" gradientUnits="userSpaceOnUse">
<stop stop-color="#C8176F"/>
<stop offset="1" stop-color="#28D4FF"/>
</linearGradient>
<linearGradient id="paint1_linear" x1="42.7518" y1="64.9479" x2="42.7518" y2="19.0978" gradientUnits="userSpaceOnUse">
<stop stop-color="#C8176F"/>
<stop offset="1" stop-color="#28D4FF"/>
</linearGradient>
<linearGradient id="paint2_linear" x1="42.7504" y1="64.9472" x2="42.7504" y2="19.0971" gradientUnits="userSpaceOnUse">
<stop stop-color="#C8176F"/>
<stop offset="1" stop-color="#28D4FF"/>
</linearGradient>
<linearGradient id="paint3_linear" x1="42.7491" y1="64.9476" x2="42.7491" y2="19.0975" gradientUnits="userSpaceOnUse">
<stop stop-color="#C8176F"/>
<stop offset="1" stop-color="#28D4FF"/>
</linearGradient>
<linearGradient id="paint4_linear" x1="42.7499" y1="64.9471" x2="42.7499" y2="19.097" gradientUnits="userSpaceOnUse">
<stop stop-color="#C8176F"/>
<stop offset="1" stop-color="#28D4FF"/>
</linearGradient>
<linearGradient id="paint5_linear" x1="42.7504" y1="64.9472" x2="42.7504" y2="19.0972" gradientUnits="userSpaceOnUse">
<stop stop-color="#C8176F"/>
<stop offset="1" stop-color="#28D4FF"/>
</linearGradient>
<clipPath id="clip0">
<rect width="190" height="100" fill="white"/>
</clipPath>
</defs>
</svg>
