<svg width="24" height="20" viewBox="0 0 24 20" fill="none" xmlns="http://www.w3.org/2000/svg">
<path d="M7 19.9813C5.63405 19.8764 4.33616 19.3426 3.29166 18.4561C2.24715 17.5696 1.50944 16.3758 1.18386 15.0451C0.858273 13.7144 0.961468 12.3148 1.4787 11.0462C1.99594 9.77766 2.90077 8.70494 4.064 7.98125C4.31151 6.05134 5.2538 4.27776 6.71452 2.99241C8.17524 1.70706 10.0543 0.998047 12 0.998047C13.9457 0.998047 15.8248 1.70706 17.2855 2.99241C18.7462 4.27776 19.6885 6.05134 19.936 7.98125C21.0992 8.70494 22.0041 9.77766 22.5213 11.0462C23.0385 12.3148 23.1417 13.7144 22.8161 15.0451C22.4906 16.3758 21.7528 17.5696 20.7083 18.4561C19.6638 19.3426 18.3659 19.8764 17 19.9813V20.0003H7V19.9813ZM13 12.0003H16L12 7.00025L8 12.0003H11V16.0003H13V12.0003Z" fill="white"/>
</svg>
